<?xml version="1.0" encoding="UTF-8"?>
<svg width="69px" height="69px" viewBox="0 0 69 69" version="1.1" xmlns="http://www.w3.org/2000/svg" xmlns:xlink="http://www.w3.org/1999/xlink">
    <!-- Generator: Sketch 41.2 (35397) - http://www.bohemiancoding.com/sketch -->
    <title>shield-2</title>
    <desc>Created with Sketch.</desc>
    <defs></defs>
    <g id="Page-1" stroke="none" stroke-width="1" fill="none" fill-rule="evenodd">
        <g id="Cybersecurity-Home" transform="translate(-153.000000, -94.000000)" fill="#008EA3">
            <g id="shield-2" transform="translate(153.000000, 94.000000)">
                <g id="Group">
                    <polygon id="Shape" points="27.97513 33.03605 24.83816 35.79559 32.36514 44.18507 45.88822 30.46741 43.47897 27.30054 32.5082 36.32896"></polygon>
                    <path d="M34.49931,0 C15.44634,0 0.00069,15.44703 0.00069,34.49931 C0.00069,53.55159 15.44634,69 34.49931,69 C53.55228,69 68.99931,53.55251 68.99931,34.49931 C68.99931,15.44611 53.55251,0 34.49931,0 Z M34.5,53.56378 C16.74745,53.56378 15.48291,23.52762 15.48291,23.52762 L34.49954,15.43461 L34.5,15.43461 L53.51663,23.52762 C53.51663,23.52762 52.25209,53.56378 34.5,53.56378 Z" id="Shape"></path>
                </g>
            </g>
        </g>
    </g>
</svg>