<?xml version="1.0" encoding="UTF-8" standalone="no"?>
<svg width="63px" height="63px" viewBox="0 0 63 63" version="1.1" xmlns="http://www.w3.org/2000/svg" xmlns:xlink="http://www.w3.org/1999/xlink">
    <!-- Generator: Sketch 3.8.2 (29753) - http://www.bohemiancoding.com/sketch -->
    <title>Group</title>
    <desc>Created with Sketch.</desc>
    <defs></defs>
    <g id="Guide-Screens" stroke="none" stroke-width="1" fill="none" fill-rule="evenodd">
        <g id="Schedules" transform="translate(-156.000000, -116.000000)" fill="#008EA3">
            <g id="Group" transform="translate(156.000000, 116.000000)">
                <path d="M62.3214096,25.190617 C62.0999043,24.1025266 61.0392926,23.401484 59.9498617,23.6216489 C59.8050957,23.6511383 59.667367,23.6963777 59.5376809,23.754016 C58.6918723,24.1276596 58.1888777,25.0498723 58.3808936,25.9931968 C60.5135106,36.4669468 56.3213298,47.3180266 47.7000479,53.6377979 C41.8229521,57.9459255 34.5709149,59.6995372 27.2796702,58.5769309 C19.9884255,57.4536543 13.6002926,53.5985904 9.29216489,47.7211596 C0.334771277,35.5005 2.98881383,18.2710053 15.2088032,9.31294149 C21.0858989,5.00514894 28.3382713,3.25153723 35.6291809,4.37380851 C42.7099787,5.46457979 48.9332394,9.13801596 53.2326543,14.7319468 L51.3842074,14.4662074 C50.2840532,14.307367 49.2656649,15.0710745 49.1078298,16.1702234 C48.9496596,17.2693723 49.7126968,18.2884309 50.8118457,18.4466011 L57.4854894,19.4063457 C57.5297234,19.4127128 57.5732872,19.4123777 57.6175213,19.4157287 C57.6697979,19.41975 57.7224096,19.4271223 57.7743511,19.4271223 C58.7582234,19.4271223 59.6177713,18.7042979 59.7622021,17.7023298 L60.7219468,11.0286862 C60.880117,9.92953723 60.1170798,8.91047872 59.0179309,8.75230851 C57.9184468,8.59380319 56.8997234,9.35717553 56.7415532,10.4563245 L56.4697819,12.3459894 C51.5353404,5.89117021 44.3811543,1.65307979 36.2417553,0.399446809 C27.8892287,-0.888031915 19.5752394,1.12662766 12.8318936,6.06944681 C6.08821277,11.0132713 1.66547872,18.3356809 0.379005319,26.6882074 C-0.907468085,35.0410691 1.10585106,43.3547234 6.04934043,50.0984043 C10.9924947,56.84175 18.3149043,61.2641489 26.667766,62.5509574 C28.3144787,62.804633 29.9588457,62.9299628 31.5908138,62.9299628 C38.2369787,62.9299628 44.663984,60.8492872 50.0776277,56.8806223 C59.9599149,49.6362926 64.7660106,37.1971436 62.3214096,25.190617 L62.3214096,25.190617 Z" id="Shape"></path>
                <path d="M42.4248032,32.227516 L35.5618245,32.227516 C35.0584947,31.0884894 34.142984,30.1726436 33.0039574,29.6696489 L33.0039574,14.2433617 C33.0039574,13.1331543 32.1035266,12.2327234 30.9933191,12.2327234 C29.8831117,12.2327234 28.9826809,13.1331543 28.9826809,14.2433617 L28.9826809,29.6696489 C27.2280638,30.4450851 25.9988936,32.1997021 25.9988936,34.2381543 C25.9988936,36.9920585 28.2394149,39.2325798 30.9933191,39.2325798 C33.0317713,39.2325798 34.7863883,38.0034096 35.5618245,36.2487926 L42.4248032,36.2487926 C43.5350106,36.2487926 44.4354415,35.3483617 44.4354415,34.2381543 C44.4354415,33.1279468 43.5350106,32.227516 42.4248032,32.227516 L42.4248032,32.227516 Z M30.0198351,34.2381543 C30.0198351,33.7013138 30.4564787,33.2646702 30.992984,33.2646702 C31.5294894,33.2646702 31.9664681,33.7013138 31.9664681,34.2381543 C31.9664681,34.7749947 31.5298245,35.2113032 30.992984,35.2113032 C30.4561436,35.2113032 30.0198351,34.7746596 30.0198351,34.2381543 L30.0198351,34.2381543 Z" id="Shape"></path>
            </g>
        </g>
    </g>
</svg>