<?xml version="1.0" encoding="UTF-8"?>
<svg width="22px" height="22px" viewBox="0 0 22 22" version="1.1" xmlns="http://www.w3.org/2000/svg" xmlns:xlink="http://www.w3.org/1999/xlink">
    <!-- Generator: Sketch 46.2 (44496) - http://www.bohemiancoding.com/sketch -->
    <title>Question Mark</title>
    <desc>Created with Sketch.</desc>
    <defs></defs>
    <g id="Page-1" stroke="none" stroke-width="1" fill="none" fill-rule="evenodd">
        <g id="Credit-Card-Info" transform="translate(-303.000000, -311.000000)" fill="#FFFFFF">
            <g id="Question-Mark" transform="translate(303.000000, 311.000000)">
                <g id="Group">
                    <path d="M9.24134804,6.21792157 C9.00761098,6.4527618 8.8555305,6.6042687 8.74134804,6.71792157 C8.9533035,6.5057756 9.24134804,6.21792157 9.24134804,6.21792157 L9.24134804,6.21792157 Z" id="Shape"></path>
                    <path d="M12.4988382,7.59411275 C12.7718382,7.93011275 12.9073775,8.32626471 12.9073775,8.78253431 C12.9073775,9.1089951 12.8138039,9.42303431 12.6276863,9.72657353 C12.5255343,9.89838235 12.3909902,10.0644951 12.2229559,10.2229216 L11.6636078,10.7756127 C11.1271471,11.3025343 10.7806471,11.7692696 10.6221863,12.1778431 C10.4637255,12.5854216 10.3844951,13.1228431 10.3844951,13.7891127 L11.6292255,13.7891127 C11.6292255,13.2020735 11.6960343,12.7581912 11.8287255,12.4575 C11.9613824,12.1568088 12.2515735,11.7903039 12.6992647,11.3559608 C13.3149216,10.759348 13.7234951,10.3069216 13.9258431,9.99953922 C14.1281912,9.69215686 14.2303431,9.29126961 14.2303431,8.79680882 C14.2303431,7.98165196 13.9544951,7.31153922 13.4018039,6.78653922 C12.8491471,6.26153922 12.1141471,6 11.1958431,6 C10.2031127,6 9.42230392,6.30638725 8.85338235,6.91923039 C8.28446078,7.53207353 8,8.3415 8,9.34853922 L9.24473039,9.34853922 C9.26761765,8.74238725 9.36407353,8.2785 9.53111275,7.95680882 C9.82892157,7.37930882 10.3673039,7.09007843 11.1461912,7.09007843 C11.7752647,7.09011275 12.2267647,7.25811275 12.4988382,7.59411275 L12.4988382,7.59411275 Z" id="Shape"></path>
                    <path d="M22,11 C22,17.0749837 17.0749837,22 11,22 C4.92498039,22 0,17.0749837 0,11 C0,4.92498039 4.92498039,0 11,0 C17.0749837,0 22,4.92498039 22,11 Z M1,10.9772761 C1,16.4877287 5.46682361,20.9545523 10.9772761,20.9545523 C16.4877287,20.9545523 20.9545523,16.4877287 20.9545523,10.9772761 C20.9545523,5.46682361 16.4877287,1 10.9772761,1 C5.46682361,1 1,5.46682361 1,10.9772761 Z" id="Shape"></path>
                    <rect id="Rectangle-path" x="10.4194608" y="14.2475392" width="1.39173039" height="1.45376961"></rect>
                </g>
            </g>
        </g>
    </g>
</svg>