<?xml version="1.0" encoding="UTF-8" standalone="no"?>
<svg width="17px" height="25px" viewBox="0 0 17 25" version="1.1" xmlns="http://www.w3.org/2000/svg" xmlns:xlink="http://www.w3.org/1999/xlink">
    <!-- Generator: Sketch 39.1 (31720) - http://www.bohemiancoding.com/sketch -->
    <title>down-arrow</title>
    <desc>Created with Sketch.</desc>
    <defs></defs>
    <g id="Speed-Test" stroke="none" stroke-width="1" fill="none" fill-rule="evenodd">
        <g id="Settings" transform="translate(-221.000000, -188.000000)" fill="#999999">
            <g id="down-arrow" transform="translate(229.500000, 200.500000) rotate(-180.000000) translate(-229.500000, -200.500000) translate(221.000000, 188.000000)">
                <g id="Group">
                    <path d="M9.37250509,24.4346232 L16.5291242,17.2780041 C17.0276986,16.7794297 17.0276986,15.9796334 16.5291242,15.4810591 C16.0305499,14.9824847 15.2307536,14.9824847 14.7321792,15.4810591 L9.74643585,20.4668024 L9.74643585,1.40672098 C9.74643585,0.700407332 9.17515275,0.129124236 8.4688391,0.129124236 C7.76252546,0.129124236 7.19124236,0.700407332 7.19124236,1.40672098 L7.19124236,20.4564155 L2.20549898,15.4706721 C1.70692464,14.9720978 0.90712831,14.9720978 0.408553971,15.4706721 C-0.0900203666,15.9692464 -0.0900203666,16.7690428 0.408553971,17.2676171 L7.56517312,24.4242363 C7.81446029,24.6735234 8.13645621,24.798167 8.4688391,24.798167 C8.801222,24.798167 9.12321792,24.6839104 9.37250509,24.4346232 L9.37250509,24.4346232 Z" id="Shape"></path>
                </g>
            </g>
        </g>
    </g>
</svg>