<?xml version="1.0" encoding="UTF-8"?>
<svg width="25px" height="25px" viewBox="0 0 25 25" version="1.1" xmlns="http://www.w3.org/2000/svg" xmlns:xlink="http://www.w3.org/1999/xlink">
    <!-- Generator: Sketch 47.1 (45422) - http://www.bohemiancoding.com/sketch -->
    <title>0860-plus-circle</title>
    <desc>Created with Sketch.</desc>
    <defs></defs>
    <g id="Menu-&amp;-New-RC-Activation" stroke="none" stroke-width="1" fill="none" fill-rule="evenodd">
        <g id="Expanded-Menu---LA" transform="translate(-25.000000, -244.000000)" fill-rule="nonzero" fill="#008EA3">
            <g id="Group-2" transform="translate(25.000000, 244.000000)">
                <g id="0860-plus-circle">
                    <path d="M20.9264516,3.58967742 C18.6116129,1.27483871 15.5329032,0 12.2580645,0 C8.98322581,0 5.90580645,1.27483871 3.58967742,3.58967742 C1.27354839,5.90451613 0,8.98322581 0,12.2567742 C0,15.5303226 1.27483871,18.6090323 3.58967742,20.9251613 C5.90451613,23.2412903 8.98322581,24.5148387 12.2580645,24.5148387 C15.5329032,24.5148387 18.6103226,23.24 20.9264516,20.9251613 C23.2425806,18.6103226 24.516129,15.5316129 24.516129,12.2567742 C24.516129,8.98193548 23.2412903,5.90451613 20.9264516,3.58967742 Z M12.2580645,23.2258065 C6.21032258,23.2258065 1.29032258,18.3058065 1.29032258,12.2580645 C1.29032258,6.21032258 6.21032258,1.29032258 12.2580645,1.29032258 C18.3058065,1.29032258 23.2258065,6.21032258 23.2258065,12.2580645 C23.2258065,18.3058065 18.3058065,23.2258065 12.2580645,23.2258065 Z" id="Shape"></path>
                    <path d="M17.2129032,11.8451613 L12.6709677,11.8451613 L12.6709677,7.30322581 C12.6709677,7.07530323 12.4859871,6.89032258 12.2580645,6.89032258 C12.0301419,6.89032258 11.8451613,7.07530323 11.8451613,7.30322581 L11.8451613,11.8451613 L7.30322581,11.8451613 C7.07530323,11.8451613 6.89032258,12.0301419 6.89032258,12.2580645 C6.89032258,12.4859871 7.07530323,12.6709677 7.30322581,12.6709677 L11.8451613,12.6709677 L11.8451613,17.2129032 C11.8451613,17.4408258 12.0301419,17.6258065 12.2580645,17.6258065 C12.4859871,17.6258065 12.6709677,17.4408258 12.6709677,17.2129032 L12.6709677,12.6709677 L17.2129032,12.6709677 C17.4408258,12.6709677 17.6258065,12.4859871 17.6258065,12.2580645 C17.6258065,12.0301419 17.4408258,11.8451613 17.2129032,11.8451613 Z" id="Shape"></path>
                </g>
            </g>
        </g>
    </g>
</svg>