<?xml version="1.0" encoding="UTF-8"?>
<svg width="39px" height="38px" viewBox="0 0 39 38" version="1.1" xmlns="http://www.w3.org/2000/svg" xmlns:xlink="http://www.w3.org/1999/xlink">
    <!-- Generator: Sketch 47.1 (45422) - http://www.bohemiancoding.com/sketch -->
    <title>Group</title>
    <desc>Created with Sketch.</desc>
    <defs></defs>
    <g id="Menu-&amp;-New-RC-Activation" stroke="none" stroke-width="1" fill="none" fill-rule="evenodd">
        <g id="Collapsed-Menu---LA" transform="translate(-17.000000, -30.000000)">
            <g id="Group" transform="translate(17.500000, 31.000000)">
                <g id="RC" transform="translate(0.410000, 0.180000)" stroke="#FFFFFF" stroke-width="1.08">
                    <path d="M4.40795556,0.0157511468 L32.4267493,0.0157511468 C32.8708863,0.149549201 33.2077381,0.298574379 33.4373048,0.462826681 C33.6668715,0.627078984 33.9962263,0.954716904 34.4253692,1.44574044 C34.6416254,1.70273416 34.7960247,1.89563674 34.8885671,2.02444819 C34.9811094,2.15325964 35.100624,2.34162288 35.2471108,2.58953791 L35.7114511,3.56306073 L35.9632923,4.35372044 L36.1425318,5.26661242 L36.6005954,23.324571 L36.6005954,26.4521384 C36.5805278,26.6931082 36.5282969,27.0094338 36.4439028,27.4011151 C36.3595087,27.7927965 36.2955124,28.0538541 36.2519139,28.1842881 C36.2091678,28.3898219 36.0827385,28.6897631 35.8726261,29.0841118 C35.6625136,29.4784606 35.4644942,29.7934881 35.2785678,30.0291942 C35.0994884,30.2668492 34.8791869,30.5235224 34.6176633,30.7992138 C34.3561397,31.0749053 34.066285,31.3382752 33.7480992,31.5893235 C33.3507238,31.8841967 33.0526924,32.0916314 32.8540047,32.2116276 C32.655317,32.3316239 32.3572855,32.4924857 31.9599102,32.6942131 C31.5105533,32.9090002 31.1735356,33.0599663 30.9488571,33.1471116 C30.7241786,33.2342569 30.3871609,33.368555 29.937804,33.5500057 C29.2527252,33.7912795 28.7389161,33.9642252 28.3963767,34.0688427 C28.0538373,34.1734602 27.5400282,34.2977918 26.8549494,34.4418377 C26.0347775,34.6211385 25.4611005,34.7466713 25.1339183,34.8184361 C24.8067361,34.8902009 24.3988666,34.9759749 23.9103098,35.0757582 C23.7768266,35.1236151 23.3004723,35.1980937 22.4812469,35.299194 C21.6620215,35.4002942 21.1856672,35.4433889 21.052184,35.4284782 L18.3593855,35.543528 L15.2638483,35.4284782 L12.2894433,35.0757582 L8.38978716,34.182149 L5.17324707,33.0638757 L3.60752213,32.2893281 L2.4126353,31.3372882 L1.28614419,30.0091041 L0.568539139,28.7221387 L0.23613723,27.5807648 L0.087245505,26.4521384 L0.087245505,5.75203435 C0.115844021,5.50432936 0.189990681,5.14235346 0.309685487,4.66610664 C0.429380292,4.18985982 0.515664843,3.91350515 0.568539139,3.83704262 C0.761228651,3.4137405 0.914077181,3.09799956 1.02708473,2.8898198 C1.14009228,2.68164005 1.29329084,2.43358847 1.48668041,2.14566509 C1.69790021,1.84936081 1.95369487,1.55178335 2.25406437,1.25293272 C2.55443388,0.954082082 2.77454664,0.757887635 2.91440263,0.664349375 C3.0854225,0.527918439 3.2791353,0.397777398 3.49554105,0.273926249 C3.71194679,0.150075101 3.9109953,0.0716040556 4.09268658,0.0385131127 L4.40795556,0.0157511468 Z" id="Path-2"></path>
                    <path d="M10.7207832,18.0018753 C13.0369768,19.3986263 15.5921817,20.0970018 18.386398,20.0970018 C21.1806142,20.0970018 23.7358192,19.3986263 26.0520127,18.0018753" id="Path-3"></path>
                    <path d="M9.83937145,19.8371892 C12.2701288,21.4587268 15.0986389,22.2694956 18.3249016,22.2694956 C21.5511643,22.2694956 24.3796744,21.4587268 26.8104318,19.8371892" id="Path-4"></path>
                    <path d="M8.95296284,21.6432947 C11.7343502,23.3359889 14.8503038,24.2201471 18.3008236,24.2957692 C21.7513434,24.3713912 24.867297,23.4872331 27.6486844,21.6432947" id="Path-5"></path>
                    <path d="M8.1784367,23.4343677 C11.0487874,25.4654607 14.4390304,26.4810072 18.3491658,26.4810072 C22.2593011,26.4810072 25.6495441,25.4654607 28.5198948,23.4343677" id="Path-6"></path>
                    <path d="M7.36970057,25.093102 C10.4071881,27.4196813 14.0613552,28.5829709 18.3322018,28.5829709 C22.6030484,28.5829709 26.2572155,27.4196813 29.294703,25.093102" id="Path-7"></path>
                </g>
                <g id="Roqos-Logo-SVG" transform="translate(7.910000, 7.400000)" fill-rule="nonzero" fill="#FFFFFF">
                    <path d="M0.317584147,0.765668383 C0.108667314,0.9528352 0.0042505634,1.18066872 0.0042505634,1.44925226 L0.0042505634,4.11042106 L0.659417754,4.11042106 L0.659417754,1.58758571 C0.662084423,1.43575225 0.716334466,1.31233549 0.822167884,1.21733541 C0.930584638,1.11966867 1.06625141,1.07083529 1.22908488,1.07083529 L2.71425273,1.07083529 L2.71425273,0.484918159 L1.07441809,0.484918159 C0.781417852,0.48225149 0.52916765,0.575834898 0.317584147,0.765668383 Z" id="Shape"></path>
                    <path d="M3.85358698,0.765668383 C3.64200347,0.9528352 3.53617006,1.18066872 3.53617006,1.44925226 L3.53617006,3.15008696 C3.53617006,3.41325383 3.64058681,3.63975402 3.84950364,3.82967083 C4.06375381,4.01950432 4.31742068,4.1145044 4.61042091,4.1145044 L6.36008898,4.1145044 C6.65575588,4.1145044 6.90800609,4.02092099 7.11692292,3.83367084 C7.32850642,3.64383735 7.43433984,3.41600384 7.43433984,3.15008696 L7.43433984,1.44925226 C7.43433984,1.18341872 7.32983976,0.956918536 7.12100626,0.76975172 C6.91208942,0.579918235 6.65850589,0.484918159 6.36008898,0.484918159 L4.61042091,0.484918159 C4.31742068,0.48225149 4.06517048,0.575834898 3.85358698,0.765668383 Z M6.20550552,1.07900197 C6.37367233,1.07900197 6.51067244,1.12783534 6.61642252,1.22550208 C6.72492261,1.3230855 6.77917265,1.44516893 6.77917265,1.59166904 L6.77917265,3.01175351 C6.77917265,3.15825363 6.72492261,3.28033706 6.61642252,3.37800381 C6.51067244,3.47567055 6.37367233,3.52442059 6.20550552,3.52442059 L4.76508771,3.52442059 C4.60225424,3.52442059 4.46525413,3.47567055 4.35408738,3.37800381 C4.24825396,3.28033706 4.19400392,3.15825363 4.19133725,3.01175351 L4.19133725,1.59166904 C4.19400392,1.44791893 4.24825396,1.32716883 4.35408738,1.22950209 C4.46525413,1.12916867 4.60225424,1.07900197 4.76508771,1.07900197 L6.20550552,1.07900197 Z" id="Shape"></path>
                    <path d="M12.0525935,0.484918159 L9.43625811,0.484918159 C9.14050787,0.48225149 8.88692434,0.575834898 8.67534083,0.765668383 C8.46375733,0.9528352 8.35792391,1.18075205 8.35792391,1.44925226 L8.35792391,3.15008696 C8.35792391,3.41325383 8.46234066,3.63975402 8.6712575,3.82967083 C8.882841,4.01958765 9.13775787,4.1145044 9.43625811,4.1145044 L11.3975097,4.1145044 L11.3975097,5.52642219 L12.0525935,5.52642219 L12.0525935,0.484918159 Z M9.15950789,3.36983713 C9.06184114,3.26408705 9.01300777,3.14200362 9.01300777,3.00367017 L9.01300777,1.58758571 C9.01575777,1.44116892 9.07000782,1.31908549 9.17584123,1.22141875 C9.28700799,1.123752 9.4240081,1.07491863 9.58675823,1.07491863 L11.3975097,1.07491863 L11.3975097,3.52450392 L9.52575818,3.52450392 C9.37925806,3.52450392 9.25717463,3.47292055 9.15950789,3.36983713 Z" id="Shape"></path>
                    <path d="M13.3465946,0.765668383 C13.1350111,0.9528352 13.0291776,1.18066872 13.0291776,1.44925226 L13.0291776,3.15008696 C13.0291776,3.41325383 13.1335944,3.63975402 13.3425112,3.82967083 C13.5567614,4.01950432 13.8104283,4.1145044 14.1034285,4.1145044 L15.8530966,4.1145044 C16.1487635,4.1145044 16.4010137,4.02092099 16.6099305,3.83367084 C16.821514,3.64383735 16.9273474,3.41600384 16.9273474,3.15008696 L16.9273474,1.44925226 C16.9273474,1.18341872 16.8228474,0.956918536 16.6140139,0.76975172 C16.405097,0.579918235 16.1514301,0.484918159 15.8530966,0.484918159 L14.1034285,0.484918159 C13.8104283,0.48225149 13.5581781,0.575834898 13.3465946,0.765668383 Z M15.6985131,1.07900197 C15.8665966,1.07900197 16.00368,1.12783534 16.1094301,1.22550208 C16.2179302,1.3230855 16.2721802,1.44516893 16.2721802,1.59166904 L16.2721802,3.01175351 C16.2721802,3.15825363 16.2179302,3.28033706 16.1094301,3.37800381 C16.00368,3.47567055 15.8665966,3.52442059 15.6985131,3.52442059 L14.2580953,3.52442059 C14.0952618,3.52442059 13.9582617,3.47567055 13.847095,3.37800381 C13.7412616,3.28033706 13.6870115,3.15825363 13.6843448,3.01175351 L13.6843448,1.59166904 C13.6870115,1.44791893 13.7412616,1.32716883 13.847095,1.22950209 C13.9582617,1.12916867 14.0952618,1.07900197 14.2580953,1.07900197 L15.6985131,1.07900197 Z" id="Shape"></path>
                    <path d="M18.0991817,0.700584998 C17.9282649,0.847085115 17.8428482,1.02341859 17.8428482,1.22958542 L17.8428482,1.78700253 C17.8428482,1.9905027 17.9269316,2.1654195 18.0950984,2.31191962 C18.2686818,2.45841974 18.4748487,2.5316698 18.7135989,2.5316698 L20.4511003,2.5316698 C20.5541003,2.5316698 20.6341837,2.55741982 20.6911838,2.60891986 C20.7507672,2.65775323 20.7806839,2.72558662 20.7806839,2.81242002 L20.7806839,3.27625373 C20.7833505,3.35767046 20.7535172,3.42550384 20.6911838,3.47975389 C20.6314337,3.53400393 20.550017,3.56108729 20.4470169,3.56108729 L18.0055983,3.56108729 L18.0055983,4.1145044 L20.5609337,4.1145044 C20.8023505,4.1145044 21.007184,4.04258767 21.1753508,3.89883756 C21.3462676,3.75233744 21.4316844,3.5773373 21.4316844,3.37392047 L21.4316844,2.73916996 C21.4316844,2.5356698 21.3475176,2.36075299 21.1794342,2.21425288 C21.011184,2.06775276 20.8051005,1.9945027 20.5609337,1.9945027 L18.8275156,1.9945027 C18.7298489,1.9945027 18.6497655,1.96875268 18.5874321,1.91725264 C18.5250154,1.86025259 18.4938487,1.79108587 18.4938487,1.70966914 L18.4938487,1.32725217 C18.4938487,1.24316877 18.523682,1.17533538 18.5834321,1.123752 C18.6485155,1.06950196 18.7298489,1.0424186 18.8275156,1.0424186 L21.1061841,1.0424186 L21.1061841,0.484918159 L18.7135989,0.484918159 C18.4748487,0.48225149 18.2700985,0.554084881 18.0991817,0.700584998 Z" id="Shape"></path>
                </g>
            </g>
        </g>
    </g>
</svg>