<?xml version="1.0" encoding="UTF-8"?>
<svg width="30px" height="36px" viewBox="0 0 30 36" version="1.1" xmlns="http://www.w3.org/2000/svg" xmlns:xlink="http://www.w3.org/1999/xlink">
    <!-- Generator: Sketch 44.1 (41455) - http://www.bohemiancoding.com/sketch -->
    <title>avatar (2)</title>
    <desc>Created with Sketch.</desc>
    <defs></defs>
    <g id="Page-1" stroke="none" stroke-width="1" fill="none" fill-rule="evenodd">
        <g id="Add-Guest" transform="translate(-40.000000, -99.000000)" fill-rule="nonzero" fill="#008EA3">
            <g id="avatar-(2)" transform="translate(40.000000, 99.102384)">
                <path d="M14.7554165,18.8481069 L14.8713157,18.8481069 L14.9147779,18.8481069 L14.9872149,18.8481069 C17.109619,18.8118884 18.8263758,18.0657873 20.0940233,16.6387785 C22.8828477,13.4950128 22.4192509,8.1057001 22.368545,7.59139741 C22.1874525,3.73050541 20.3620402,1.88336195 18.8553506,1.02136167 C17.7325772,0.37667239 16.4214675,0.0289747993 14.9582401,0 L14.9075342,0 L14.8785594,0 L14.8350972,0 C14.0310465,0 12.45192,0.130386597 10.9379867,0.992386875 C9.41680976,1.85438715 7.56242261,3.70153061 7.38133011,7.59139741 C7.33062421,8.1057001 6.86702743,13.4950128 9.65585186,16.6387785 C10.9162556,18.0657873 12.6330125,18.8118884 14.7554165,18.8481069 Z M9.31539796,7.7724899 C9.31539796,7.7507588 9.32264166,7.7290277 9.32264166,7.71454031 C9.56168376,2.52080754 13.248727,1.96304265 14.8278535,1.96304265 L14.8568283,1.96304265 L14.9147779,1.96304265 C16.8705769,2.00650485 20.1954351,2.80331183 20.4199898,7.71454031 C20.4199898,7.7362714 20.4199898,7.7580025 20.4272335,7.7724899 C20.4344772,7.8231958 20.9415362,12.7489117 18.6380396,15.3421562 C17.7253335,16.3707616 16.5083919,16.8778206 14.9075342,16.892308 L14.8713157,16.892308 L14.8713157,16.892308 L14.8350972,16.892308 C13.2414833,16.8778206 12.017298,16.3707616 11.1118355,15.3421562 C8.81558268,12.7633991 9.30815426,7.8159521 9.31539796,7.7724899 Z" id="Shape"></path>
                <path d="M29.7571188,27.7868325 L29.7571188,27.7651014 C29.7571188,27.7071518 29.7498751,27.6492022 29.7498751,27.5840089 C29.7064129,26.1497563 29.6122449,22.7959233 26.4684791,21.7238558 C26.446748,21.7166121 26.4177732,21.7093684 26.3960421,21.7021247 C23.1291335,20.8690992 20.4127461,18.9857372 20.3837713,18.9640061 C19.9419056,18.652527 19.3334348,18.7611825 19.0219557,19.2030482 C18.7104766,19.6449139 18.8191321,20.2533847 19.2609978,20.5648638 C19.3841407,20.6517882 22.2671332,22.658293 25.8744957,23.5854866 C27.5622778,24.1867137 27.750614,25.9903949 27.8013199,27.6419585 C27.8013199,27.7071518 27.8013199,27.7651014 27.8085636,27.823051 C27.8158073,28.474984 27.7723451,29.4818583 27.6564459,30.0613542 C26.4829665,30.7277746 21.8832171,33.0312712 14.8858031,33.0312712 C7.9173639,33.0312712 3.28863972,30.7205309 2.10791665,30.0541105 C1.99201745,29.4746146 1.94131155,28.4677403 1.95579895,27.8158073 C1.95579895,27.7578577 1.96304265,27.6999081 1.96304265,27.6347148 C2.01374855,25.9831512 2.20208474,24.17947 3.8898668,23.5782429 C7.49722931,22.6510493 10.3802218,20.6373008 10.5033647,20.5576201 C10.9452304,20.246141 11.0538859,19.6376702 10.7424068,19.1958045 C10.4309277,18.7539388 9.82245695,18.6452833 9.38059126,18.9567624 C9.35161646,18.9784935 6.64971643,20.8618555 3.36832041,21.694881 C3.33934562,21.7021247 3.31761452,21.7093684 3.29588342,21.7166121 C0.152117696,22.7959233 0.0579495985,26.1497563 0.0144873996,27.5767652 C0.0144873996,27.6419585 0.0144873996,27.6999081 0.00724369982,27.7578577 L0.00724369982,27.7795888 C-3.30985239e-15,28.1562612 -0.00724369982,30.090329 0.37667239,31.0609848 C0.449109389,31.249321 0.579495985,31.4086824 0.753344781,31.5173379 C0.970655775,31.6622119 6.17887594,34.9798264 14.8930468,34.9798264 C23.6072177,34.9798264 28.8154379,31.6549682 29.0327489,31.5173379 C29.199354,31.4086824 29.3369843,31.249321 29.4094213,31.0609848 C29.7716062,30.0975727 29.7643625,28.1635049 29.7571188,27.7868325 Z" id="Shape"></path>
            </g>
        </g>
    </g>
</svg>