<?xml version="1.0" encoding="UTF-8"?>
<svg width="56px" height="55px" viewBox="0 0 56 55" version="1.1" xmlns="http://www.w3.org/2000/svg" xmlns:xlink="http://www.w3.org/1999/xlink">
    <!-- Generator: Sketch 47.1 (45422) - http://www.bohemiancoding.com/sketch -->
    <title>explore</title>
    <desc>Created with Sketch.</desc>
    <defs></defs>
    <g id="v1.14-VPN-App" stroke="none" stroke-width="1" fill="none" fill-rule="evenodd">
        <g id="Security-Alerts" transform="translate(-27.000000, -364.000000)">
            <g id="explore" transform="translate(27.500000, 364.000000)">
                <circle id="Oval" fill="#08ADC5" fill-rule="nonzero" cx="27.3838684" cy="27.3838684" r="27.3838684"></circle>
                <path d="M54.1712025,32.5088235 L31.5702842,13.7290247 L22.8468107,32.5088235 L19.5457187,40.9072819 L33.1494329,54.2014009 C44.3415286,50.9341513 51.7771907,44.4670012 54.1712025,32.5088235 Z" id="Shape" fill="#008EA3" fill-rule="nonzero"></path>
                <g id="RC" transform="translate(9.537468, 13.504835)">
                    <polygon id="Path" fill="#BA1717" points="1.71461169 6.69099329 6.53628678 4.39650943 12.3326933 2.22080329 17.3644514 0.485732853 19.338424 0.0714921936 21.1637224 0.0714921936 23.0205694 0.693341506 25.3198275 2.22080329 30.8094399 6.98543889 33.1406882 9.26558601 34.0281045 10.2233333 34.9784923 11.7353003 35.3123417 13.9630998 34.9784923 15.806008 34.1370136 17.5412535 32.7569839 19.2628483 31.1121894 20.9095421 28.5824713 22.8751882 26.2417861 24.3821697 23.2295443 25.881851 19.7362031 27.1955263 16.5330885 28.0588461 14.0053883 28.5125252 12.7856063 28.4339445 11.396852 28.1707227 10.1224078 27.4443851 9.19368315 26.6400008 8.12257546 25.1101098 6.46656357 22.1771016 1.11351788 13.0511715 0.311507672 11.4134397 0.0878137136 9.97411837 0.422137956 8.16824517 1.11351788 6.98543889"></polygon>
                    <path d="M13.1301039,11.6564579 C15.8210898,11.4291649 18.0756426,10.839345 19.8937623,9.88699827 C21.711882,8.93465157 22.9062828,7.99731572 23.4769646,7.07499071" id="Path-2" stroke="#819193" stroke-width="0.5"></path>
                    <path d="M13.1301039,13.0023444 C15.6657039,12.6524389 17.9202567,12.0626191 19.8937623,11.2328847 C21.867268,10.4031504 23.4745537,9.2590009 24.7156194,7.80043632" id="Path-2" stroke="#819193" stroke-width="0.5"></path>
                    <path d="M13.1301039,14.3482308 C16.2455058,13.9080606 18.7899595,13.2731083 20.7634652,12.4433739 C22.7369709,11.6136396 24.4887571,10.3646672 26.018824,8.69645673" id="Path-2" stroke="#819193" stroke-width="0.5"></path>
                    <path d="M13.1301039,15.9184317 C17.296391,15.3445691 20.3274823,14.5555499 22.2233778,13.5513739 C24.1192733,12.5471979 25.825097,11.1815953 27.340849,9.45456605" id="Path-2" stroke="#819193" stroke-width="0.5"></path>
                    <path d="M13.3544183,17.4886325 C17.0013885,17.2399492 20.1047728,16.5040702 22.6645713,15.2809955 C25.2243698,14.0579207 27.2609785,12.400963 28.7743973,10.3101221" id="Path-2" stroke="#819193" stroke-width="0.5"></path>
                    <g id="Roqos-Logo-SVG" transform="translate(15.131954, 7.637254) rotate(-23.000000) translate(-15.131954, -7.637254) translate(7.344434, 5.690374)" fill-rule="nonzero" fill="#49BBFF">
                        <path d="M0.547577771,0.854449484 C0.401130721,0.985650152 0.277124383,1.02508088 0.277124383,1.21335325 C0.263354689,1.53819324 0.256469841,1.80098417 0.256469841,2.00172602 C0.256469841,2.21552479 0.258483939,2.51278744 0.262512134,2.89351397 L0.822554177,2.96310448 L0.886502834,1.33709276 C0.887749026,1.26613769 1.02501853,1.24563407 1.29831136,1.2755819 C1.46253842,1.28992988 1.58269976,1.29710387 1.65879537,1.29710387 L2.39553839,1.36622757 L2.43935299,0.971959882 C2.26105157,0.950865792 2.13054221,0.932871188 2.04782489,0.917976072 C1.94050785,0.898651219 1.78108998,0.88058132 1.56957129,0.863766375 C1.36418324,0.861897087 0.695894108,0.721379529 0.547577771,0.854449484 Z" id="Shape" transform="translate(1.347911, 1.880172) rotate(-14.000000) translate(-1.347911, -1.880172) "></path>
                        <path d="M3.11308231,0.695937902 C2.96476597,0.827138569 2.89057859,0.986845882 2.89057859,1.17511826 C2.96687876,1.48941021 3.02786967,1.72450377 3.07355132,1.88039895 C3.09288652,1.94638306 3.11782021,2.0459855 3.1483524,2.17920628 C3.1483524,2.36368166 3.21726096,2.35748067 3.38063484,2.46798278 C3.59566973,2.58194972 3.69825211,2.60845633 3.90364015,2.60845633 L5.00394159,2.65097644 C5.21119892,2.65097644 5.75227347,2.70993289 5.89872052,2.57867381 C6.04703686,2.44560385 6.06079775,2.22782771 6.01762562,2.03451061 L5.79917632,1.11256927 C5.79917632,0.926224602 5.60613529,0.77522102 5.43612853,0.684826825 C5.26612178,0.594432631 5.07928144,0.499136901 4.87009641,0.499136901 L3.64360967,0.499136901 C3.43822163,0.497267613 3.26139865,0.562867947 3.11308231,0.695937902 Z M4.7803191,0.969150284 C4.89820109,0.969150284 5.00863456,1.0001256 5.10323751,1.05918104 C5.16324038,1.09671504 5.32801926,1.20624244 5.32801926,1.30893646 L5.47630979,2.02319848 C5.50988989,2.19920009 5.35658529,2.28022582 5.01639601,2.2662757 C4.73282389,2.25155342 4.55174384,2.24419229 4.47315585,2.24419229 L3.8712834,2.20539375 C3.75701415,2.16394192 3.76315397,2.16258081 3.70655077,2.05444323 C3.6323634,1.98598055 3.58249628,1.60555779 3.580627,1.50286377 L3.53463606,1.21666188 C3.53650535,1.11589556 3.49540711,1.07784265 3.56959449,1.00937997 C3.64752044,0.939047999 3.65984351,0.946698913 3.77158975,0.942379056 L4.7803191,0.969150284 Z" id="Shape" transform="translate(4.464815, 1.581638) rotate(-5.000000) translate(-4.464815, -1.581638) "></path>
                        <path d="M8.79247861,0.608639081 L7.22995514,0.568998843 C7.02263939,0.567129555 6.70048954,0.560409985 6.5521732,0.69347994 C6.40385687,0.824680608 6.31777655,1.14993875 6.4481998,1.35387481 L6.72531903,2.12385527 C6.72531903,2.30833065 7.03972639,2.46863803 7.25844177,2.52341995 C7.47715716,2.57820187 7.48953051,2.57621592 7.69877396,2.57621592 L9.03291283,2.59406136 L9.23286864,3.43434003 L9.82529807,3.3613851 L8.79247861,0.608639081 Z M7.7233155,2.17452903 C7.50681132,2.17597562 7.26192067,2.11923882 7.26192067,2.0222695 L6.99279838,1.35510745 C6.99472609,1.25247184 6.97686555,1.05892872 7.05105293,0.990466043 C7.12897888,0.922003362 7.2813351,0.948469277 7.39542009,0.948469277 L8.38503518,0.959485786 L8.85206798,2.20292038 L8.37470284,2.21111096 C8.27200882,2.21111096 8.0332886,2.17562418 7.7233155,2.17452903 Z" id="Shape"></path>
                        <path d="M9.86881502,0.468270725 C9.71593927,0.593624181 9.7485378,0.563562705 9.7485378,0.751835079 C9.75110428,1.0089934 9.7598086,1.20325409 9.77465075,1.33461715 C9.78530871,1.42894727 9.80048107,1.5680369 9.82016782,1.75188603 C9.82016782,1.93636141 9.93648262,2.11070244 10.0829297,2.24383081 C10.2331153,2.37690077 10.5363166,2.5694353 10.7417047,2.5694353 L11.7989921,2.90765996 C12.0080897,2.94693651 12.0684909,2.94720384 12.2149379,2.81594476 C12.3632542,2.6828748 12.2405505,1.94461372 12.2405505,1.75821063 L12.144315,1.35136546 C12.0150978,1.16139775 11.8181744,0.971567012 11.6388701,0.856734561 C11.4595658,0.74190211 11.095952,0.600103785 10.9000998,0.557608089 L10.2632562,0.394990419 C10.1710374,0.394151112 10.1233426,0.372750907 10.0489301,0.380881455 C9.97451765,0.389012003 9.95371882,0.398652187 9.86881502,0.468270725 Z M11.027856,0.999179639 C11.134128,1.03592421 11.3507399,1.1030756 11.4408354,1.14221896 C11.53151,1.19985708 11.6265528,1.24059974 11.6790831,1.33514814 L11.7667811,1.52964501 C11.7667811,1.63233903 11.7908265,1.86054738 11.8199502,1.98751902 C11.7925905,2.09225738 11.8913279,2.37133069 11.797993,2.40599304 L10.7247381,2.02985573 C10.5996158,1.99999024 10.5293166,1.96677163 10.4393199,1.90870054 C10.3772472,1.82918868 10.3244183,1.77317909 10.3225491,1.67048507 L10.3561188,0.848477302 C10.3579881,0.747710984 10.5254003,0.879552262 10.6395437,0.879552262 L11.027856,0.999179639 Z" id="Shape" transform="translate(11.016923, 1.654822) rotate(-16.000000) translate(-11.016923, -1.654822) "></path>
                        <path d="M12.7915112,0.880137167 C12.6607416,0.871911943 12.5784115,0.940025811 12.5177099,1.08302984 L12.6030982,1.32401053 C12.6030982,1.46666058 12.7786135,1.77733178 12.8964954,1.8800258 C13.0181744,1.98271983 13.1598206,2.0628407 13.3271803,2.0628407 L13.7235684,2.14510744 C13.8028573,2.16562825 14.1167887,2.19887445 14.2724603,2.21475553 C14.3391456,2.23569607 14.4852915,2.23572702 14.5476652,2.28669906 L14.6244033,2.41115566 C14.6224516,2.46872326 14.7359864,2.60426781 14.6922918,2.64229614 C14.6504081,2.68032447 14.4602964,2.63385123 14.3880952,2.63385123 L13.1833037,2.43423029 L13.3115736,2.79943965 L14.8623874,3.07020267 C15.0284056,3.09815831 15.1307075,3.10559421 15.187004,2.97296791 C15.2433005,2.84034161 15.1804039,2.72766766 15.1298811,2.57870907 L15.0046684,2.34341659 C14.9523303,2.19813386 14.7474037,2.04970739 14.5994897,1.96669294 C14.4515757,1.88367849 14.1395211,1.80482696 13.9683644,1.80482696 L13.5132504,1.72168965 C13.4447877,1.72168965 13.1810629,1.58689535 13.1373683,1.55079472 C13.0936152,1.51083869 13.1053279,1.35270632 13.1053279,1.29563461 L13.4417708,1.3597641 C13.5141354,1.3793983 13.5383829,1.37241575 13.6600875,1.39917006 C13.8355629,1.43774479 14.0494308,1.49781856 14.0975071,1.50058593 C14.2022718,1.53365885 14.3477329,1.58212585 14.4252828,1.551204 C14.4769826,1.53058944 14.4778347,1.44749476 14.427839,1.30191997 L14.325455,1.20498134 L13.7322582,1.05856947 C13.5413111,1.02403715 12.9222809,0.888362391 12.7915112,0.880137167 Z" id="Shape"></path>
                    </g>
                </g>
            </g>
        </g>
    </g>
</svg>