<?xml version="1.0" encoding="UTF-8"?>
<svg width="26px" height="26px" viewBox="0 0 26 26" version="1.1" xmlns="http://www.w3.org/2000/svg" xmlns:xlink="http://www.w3.org/1999/xlink">
    <!-- Generator: Sketch 47.1 (45422) - http://www.bohemiancoding.com/sketch -->
    <title>0142-star</title>
    <desc>Created with Sketch.</desc>
    <defs></defs>
    <g id="RMA-Activation" stroke="none" stroke-width="1" fill="none" fill-rule="evenodd">
        <g id="Expanded-Menu---NY" transform="translate(-25.000000, -349.000000)" fill-rule="nonzero" fill="#008EA3">
            <g id="Group-5" transform="translate(25.000000, 349.666667)">
                <g id="0142-star">
                    <path d="M20.6469267,24.6863624 C20.5301647,24.6863624 20.4134028,24.6573196 20.3066084,24.5977819 L12.8153338,20.4315952 L5.32405923,24.5977819 C5.08483966,24.7313787 4.79293484,24.7125009 4.57080239,24.5513134 C4.34866993,24.390126 4.23617978,24.1142196 4.28174541,23.8397654 L5.6458665,15.4957749 L0.209317119,9.95150831 C0.0213588897,9.75982597 -0.0469895572,9.47520673 0.0341742235,9.216726 C0.115338004,8.95824526 0.331774753,8.76656292 0.595201058,8.72154661 L8.7813515,7.33039748 L12.1788389,0.400790354 C12.2998726,0.155378869 12.5462118,1.77635684e-15 12.8153338,1.77635684e-15 C13.0844558,1.77635684e-15 13.3322189,0.155378869 13.4518287,0.400790354 L16.8493161,7.33039748 L25.0354665,8.72154661 C25.2988928,8.76656292 25.5153296,8.95679312 25.5964934,9.216726 C25.6776571,9.47665887 25.6107326,9.75982597 25.4213505,9.95150831 L19.9848011,15.4957749 L21.3489222,23.8397654 C21.3930639,24.1142196 21.2805737,24.390126 21.0598652,24.5513134 C20.9374076,24.6398939 20.7921671,24.6863624 20.6469267,24.6863624 L20.6469267,24.6863624 Z M12.8153338,18.8778065 C12.9320957,18.8778065 13.0502816,18.9068493 13.1556521,18.966387 L19.7042877,22.6083515 L18.5210052,15.3665345 C18.4825592,15.1356444 18.5566033,14.8989458 18.7203548,14.7334019 L23.4378216,9.92246553 L16.2583868,8.7026688 C16.0334065,8.66491319 15.8411765,8.51824716 15.7386538,8.31059128 L12.8153338,2.3481087 L9.89201376,8.31059128 C9.78949109,8.51824716 9.59726109,8.66346105 9.37228078,8.7026688 L2.192846,9.92246553 L6.91031277,14.7334019 C7.07264033,14.8989458 7.14668448,15.1341923 7.1096624,15.3665345 L5.92637992,22.6083515 L12.4750155,18.966387 C12.5818099,18.9068493 12.6985719,18.8778065 12.8153338,18.8778065 Z" id="Shape"></path>
                </g>
            </g>
        </g>
    </g>
</svg>