<?xml version="1.0" encoding="UTF-8"?>
<svg width="92px" height="92px" viewBox="0 0 92 92" version="1.1" xmlns="http://www.w3.org/2000/svg" xmlns:xlink="http://www.w3.org/1999/xlink">
    <!-- Generator: Sketch 47.1 (45422) - http://www.bohemiancoding.com/sketch -->
    <title>Group</title>
    <desc>Created with Sketch.</desc>
    <defs></defs>
    <g id="RMA-Activation" stroke="none" stroke-width="1" fill="none" fill-rule="evenodd">
        <g id="Import-RC-Selection" transform="translate(-142.000000, -144.000000)" fill="#008EA3">
            <g id="Group" transform="translate(142.000000, 144.000000)">
                <path d="M46,92 C20.5949015,92 0,71.4050985 0,46 C0,20.5949015 20.5949015,0 46,0 C71.4050985,0 92,20.5949015 92,46 C92,71.4050985 71.4050985,92 46,92 Z M46.4144144,87.027027 C68.844141,87.027027 87.027027,68.844141 87.027027,46.4144144 C87.027027,23.9846878 68.844141,5.8018018 46.4144144,5.8018018 C23.9846878,5.8018018 5.8018018,23.9846878 5.8018018,46.4144144 C5.8018018,68.844141 23.9846878,87.027027 46.4144144,87.027027 Z" id="Combined-Shape"></path>
                <g id="download-arrow" transform="translate(30.318182, 20.909091)" fill-rule="nonzero">
                    <path d="M27.5196463,27.9351203 C28.4138082,26.9993127 29.8215091,26.9993127 30.715671,27.9351203 C31.5796248,28.8709278 31.5796248,30.3441924 30.715671,31.28 L17.3233807,45.2981443 C16.9085218,45.7323253 16.3325526,46 15.6941532,46 C15.0557538,46 14.4797846,45.7323253 14.0629118,45.2981443 L0.670621457,31.28 C-0.223540486,30.3441924 -0.223540486,28.8709278 0.670621457,27.9351203 C1.5647834,26.9993127 2.97248429,26.9993127 3.86664624,27.9351203 L13.4245124,37.9718671 L13.4245124,2.34162658 C13.4224985,1.03697595 14.4455487,0 15.6921393,0 C16.9387299,0 17.929558,1.03697595 17.929558,2.34162658 L17.929558,37.9697595 L27.5196463,27.9351203 Z" id="Shape"></path>
                </g>
            </g>
        </g>
    </g>
</svg>