<?xml version="1.0" encoding="UTF-8"?>
<svg width="24px" height="29px" viewBox="0 0 24 29" version="1.1" xmlns="http://www.w3.org/2000/svg" xmlns:xlink="http://www.w3.org/1999/xlink">
    <!-- Generator: Sketch 47.1 (45422) - http://www.bohemiancoding.com/sketch -->
    <title>Shape</title>
    <desc>Created with Sketch.</desc>
    <defs></defs>
    <g id="Menu-&amp;-New-RC-Activation" stroke="none" stroke-width="1" fill="none" fill-rule="evenodd">
        <g id="Collapsed-Menu---LA" transform="translate(-24.000000, -316.000000)" fill="#008EA3">
            <g id="Group-5" transform="translate(24.000000, 316.000000)">
                <path d="M23.6820514,22.7170157 C21.8514553,21.3331482 20.8017429,19.2178768 20.8017429,16.9157269 L20.8017429,12.0826621 C20.8017429,8.03416477 18.0910525,4.61074385 14.4010572,3.55713571 L14.4010572,2.41653241 C14.4010572,1.08421754 13.3241418,0 12.0008001,0 C10.6774583,0 9.60054297,1.08421754 9.60054297,2.41653241 L9.60054297,3.55713571 C5.91054769,4.61235487 3.19985732,8.03416477 3.19985732,12.0826621 L3.19985732,16.9157269 C3.19985732,19.2178768 2.15014487,21.3315371 0.319548772,22.7170157 C0.044319289,22.9248375 -0.0676927099,23.2873174 0.0411189462,23.6159658 C0.149930602,23.9446142 0.455563342,24.1669352 0.799600196,24.1669352 L8.08038012,24.1669352 C8.02757447,24.4311427 7.99877138,24.7001833 7.99877138,24.972446 C7.99877138,27.1924338 9.79416371,29 11.9991999,29 C14.2042361,29 15.9996284,27.1924338 15.9996284,24.972446 C15.9996284,24.7017943 15.9724255,24.4311427 15.9196199,24.1669352 L23.2003998,24.1669352 C23.5444367,24.1669352 23.8500694,23.9446142 23.9588811,23.6159658 C24.0676927,23.2873174 23.9556807,22.9248375 23.6804512,22.7170157 L23.6820514,22.7170157 Z M11.2007144,2.41653241 C11.2007144,1.97189045 11.5591528,1.61102161 12.0008001,1.61102161 C12.4424474,1.61102161 12.8008858,1.97189045 12.8008858,2.41653241 L12.8008858,3.25909672 C12.5368575,3.23493139 12.2712291,3.22204322 12.0008001,3.22204322 C11.7303711,3.22204322 11.4647427,3.23493139 11.2007144,3.25909672 L11.2007144,2.41653241 L11.2007144,2.41653241 Z M14.4010572,24.970835 C14.4010572,26.3031498 13.3241418,27.3873674 12.0008001,27.3873674 C10.6774583,27.3873674 9.60054297,26.3031498 9.60054297,24.970835 C9.60054297,24.6953503 9.64854811,24.4230876 9.73815771,24.1653241 L14.2634425,24.1653241 C14.3530521,24.4230876 14.4010572,24.6953503 14.4010572,24.970835 L14.4010572,24.970835 Z M2.78701309,22.5543025 C3.1950568,22.0564969 3.55029485,21.5135826 3.84152605,20.9416699 C4.47839427,19.6882951 4.80002873,18.3334259 4.80002873,16.9157269 L4.80002873,12.0826621 C4.80002873,8.08571746 8.03077481,4.83306483 12.0008001,4.83306483 C15.9708254,4.83306483 19.2015714,8.08571746 19.2015714,12.0826621 L19.2015714,16.9157269 C19.2015714,18.3334259 19.5248061,19.6882951 20.1600741,20.9416699 C20.4513053,21.5151936 20.8065434,22.0564969 21.2145871,22.5543025 L2.78541292,22.5543025 L2.78701309,22.5543025 Z" id="Shape"></path>
            </g>
        </g>
    </g>
</svg>