<?xml version="1.0" encoding="UTF-8"?>
<svg width="27px" height="16px" viewBox="0 0 27 16" version="1.1" xmlns="http://www.w3.org/2000/svg" xmlns:xlink="http://www.w3.org/1999/xlink">
    <!-- Generator: Sketch 42 (36781) - http://www.bohemiancoding.com/sketch -->
    <title>hidepwd</title>
    <desc>Created with Sketch.</desc>
    <defs></defs>
    <g id="Page-1" stroke="none" stroke-width="1" fill="none" fill-rule="evenodd">
        <g id="hidepwd" fill-rule="nonzero" fill="#FFFFFF">
            <g id="Page-1">
                <g id="Setup---Login">
                    <g id="eye-(1)">
                        <path d="M13.5037133,0.0470136519 C8.34365675,0.0470136519 3.66424786,2.84453459 0.211319232,7.38845315 C-0.0704397441,7.76072599 -0.0704397441,8.28081306 0.211319232,8.6530859 C3.66424786,13.2024791 8.34365675,16 13.5037133,16 C18.6637698,16 23.3431787,13.2024791 26.7961074,8.6585605 C27.0778663,8.28628766 27.0778663,7.76620059 26.7961074,7.39392775 C23.3431787,2.84453459 18.6637698,0.0470136519 13.5037133,0.0470136519 Z M13.8738672,13.6404471 C10.448562,13.8539565 7.6199229,11.0564356 7.83538565,7.65670858 C8.0121756,4.85371304 10.3049202,2.58175376 13.1335593,2.40656654 C16.5588645,2.19305711 19.3875037,4.99057806 19.1720409,8.39030507 C18.9897263,11.187826 16.6969817,13.4597853 13.8738672,13.6404471 Z M13.702602,11.0454864 C11.8573569,11.160453 10.3325436,9.65493783 10.4540867,7.8264212 C10.5480064,6.31543142 11.785536,5.09459547 13.3103493,4.99605266 C15.1555944,4.88108604 16.6804076,6.38660123 16.5588645,8.21511785 C16.4594202,9.73158223 15.2218906,10.9524182 13.702602,11.0454864 Z" id="Shape"></path>
                    </g>
                </g>
            </g>
        </g>
    </g>
</svg>