<?xml version="1.0" encoding="UTF-8" standalone="no"?>
<svg width="61px" height="60px" viewBox="0 0 61 60" version="1.1" xmlns="http://www.w3.org/2000/svg" xmlns:xlink="http://www.w3.org/1999/xlink">
    <!-- Generator: Sketch 3.8.2 (29753) - http://www.bohemiancoding.com/sketch -->
    <title>Filter Icon</title>
    <desc>Created with Sketch.</desc>
    <defs></defs>
    <g id="Guide-Screens" stroke="none" stroke-width="1" fill="none" fill-rule="evenodd">
        <g id="Filters---Guide" transform="translate(-157.000000, -116.000000)" fill="#008EA3">
            <g id="Filter-Icon" transform="translate(157.000000, 116.000000)">
                <g id="_x32_7">
                    <path d="M60.552077,2.05960487 C60.0683577,0.807328411 58.9414629,0 57.6786559,0 L3.11148049,0 C1.84867347,0 0.721778736,0.807328411 0.238059438,2.05960487 C-0.244589685,3.31073455 0.0197436481,4.73846732 0.912269964,5.69602304 L22.5051998,28.8723117 L22.5051998,57.8707684 C22.5051998,58.651721 23.0937963,59.2801528 23.8204454,59.2801528 C24.5481647,59.2801528 25.135691,58.6505742 25.135691,57.8707684 L25.135691,28.2874573 C25.135691,27.9124624 24.9965682,27.5535224 24.7504279,27.2897645 L2.77223488,3.6994907 C2.5753226,3.48733764 2.62241031,3.25798298 2.66735768,3.1410121 C2.7144454,3.0206009 2.83109453,2.82450267 3.11148049,2.82450267 L57.6797261,2.82450267 C57.9579717,2.82450267 58.075691,3.02289445 58.1227787,3.1410121 C58.1677261,3.25912975 58.2148138,3.48848441 58.0168314,3.6994907 L36.0418489,27.2897645 C35.7957086,27.5535224 35.6565858,27.9124624 35.6565858,28.2874573 L35.6565858,49.4018475 C35.6565858,50.1828001 36.2451822,50.8112319 36.9718314,50.8112319 C37.7006208,50.8112319 38.287077,50.1805066 38.287077,49.4018475 L38.287077,28.8711649 L59.8800068,5.69487626 C60.7693226,4.73846732 61.0347261,3.31073455 60.552077,2.05960487 L60.552077,2.05960487 Z" id="Shape"></path>
                </g>
            </g>
        </g>
    </g>
</svg>