<?xml version="1.0" encoding="UTF-8"?>
<svg width="64px" height="53px" viewBox="0 0 64 53" version="1.1" xmlns="http://www.w3.org/2000/svg" xmlns:xlink="http://www.w3.org/1999/xlink">
    <!-- Generator: Sketch 47.1 (45422) - http://www.bohemiancoding.com/sketch -->
    <title>RC</title>
    <desc>Created with Sketch.</desc>
    <defs></defs>
    <g id="Page-1" stroke="none" stroke-width="1" fill="none" fill-rule="evenodd">
        <g id="VPN-Out---Another-Roqos-Core" transform="translate(-23.000000, -108.000000)">
            <g id="RC" transform="translate(23.545000, 108.189448)">
                <polygon id="Path" fill="#CECDCD" points="3.07011031 12.2692955 11.7035953 8.06189321 22.0823928 4.072294 31.0920435 0.890689865 34.6265543 0.131095461 37.8948555 0.131095461 41.2196462 1.27138251 45.3365994 4.072294 55.1660644 12.8092213 59.3402979 16.9903343 60.9292676 18.7465585 62.6309911 21.5190571 63.2287677 25.6041801 62.6309911 28.9835268 61.1242755 32.1654519 58.6532534 35.3223457 55.7081547 38.3418933 51.1785497 41.9463047 46.987419 44.7096615 41.5938277 47.4596319 35.3388006 49.8685224 29.6034406 51.4515946 25.0774488 52.2835075 22.8933594 52.1394137 20.4067154 51.6567432 18.1247501 50.3248555 16.4618156 48.8498536 14.543936 46.0444876 11.578752 40.6662212 1.99381745 23.9319744 0.557772305 20.9288604 0.157235477 18.2895723 0.755862156 14.978137 1.99381745 12.8092213"></polygon>
                <path d="M23.5102021,21.3744837 C28.3285663,20.9576957 32.3654721,19.8761411 35.6209194,18.1298199 C38.8763667,16.3834988 41.0150096,14.6647031 42.036848,12.9734328" id="Path-2" stroke="#819193" stroke-width="1.4014"></path>
                <path d="M23.5102021,23.8424399 C28.0503388,23.2008172 32.0872446,22.1192626 35.6209194,20.5977761 C39.1545942,19.0762897 42.0325311,16.9782592 44.2547303,14.3036847" id="Path-2" stroke="#819193" stroke-width="1.4014"></path>
                <path d="M23.5102021,26.3103961 C29.0885073,25.5032546 33.6444973,24.3389406 37.1781721,22.8174541 C40.7118469,21.2959676 43.8485204,19.0057229 46.5881926,15.9467202" id="Path-2" stroke="#819193" stroke-width="1.4014"></path>
                <path d="M23.5102021,29.1896784 C30.9701775,28.1373849 36.3975198,26.6905577 39.7922291,24.8491971 C43.1869384,23.0078364 46.2413134,20.5037266 48.955354,17.3368676" id="Path-2" stroke="#819193" stroke-width="1.4014"></path>
                <path d="M23.9118498,32.0689607 C30.4419586,31.6129493 35.9987457,30.2635656 40.5822113,28.0208096 C45.1656769,25.7780536 48.8123412,22.7396849 51.5222043,18.9057035" id="Path-2" stroke="#819193" stroke-width="1.4014"></path>
                <g id="Roqos-Logo-SVG" transform="translate(26.976280, 13.940626) rotate(-23.000000) translate(-26.976280, -13.940626) translate(13.116280, 10.475626)" fill-rule="nonzero" fill="#49BBFF">
                    <path d="M0.98046932,1.56680672 C0.718247501,1.80738979 0.49620706,1.87969404 0.49620706,2.22492969 C0.471551634,2.8205898 0.459223921,3.30247035 0.459223921,3.67057132 C0.459223921,4.0626148 0.462830278,4.60770626 0.470042992,5.30584569 L1.4728303,5.43345404 L1.58733403,2.45183121 C1.58956541,2.32172068 1.83535431,2.28412313 2.32470075,2.33903856 C2.6187587,2.36534849 2.83391445,2.37850345 2.97016799,2.37850345 L4.28934852,2.50525582 L4.36780106,1.7822859 C4.04854217,1.7436056 3.81485769,1.71060884 3.66674761,1.68329562 C3.4745903,1.64785958 3.18914348,1.61472475 2.81040716,1.58389113 C2.44264812,1.58046341 1.24603821,1.32279592 0.98046932,1.56680672 Z" id="Shape" transform="translate(2.413512, 3.447678) rotate(-14.000000) translate(-2.413512, -3.447678) "></path>
                    <path d="M5.57415194,1.27614353 C5.30858305,1.51672661 5.17574631,1.80958241 5.17574631,2.15481805 C5.31236612,2.7311362 5.42157383,3.16222801 5.50336945,3.44809349 C5.53799022,3.56908875 5.58263542,3.75173007 5.63730505,3.99601743 C5.63730505,4.33429051 5.76068978,4.32291974 6.05322005,4.52554782 C6.43825233,4.73452935 6.62193194,4.7831346 6.98969098,4.7831346 L8.95984364,4.86110386 C9.33094975,4.86110386 10.2997747,4.96921249 10.5619965,4.7285223 C10.8275654,4.4845115 10.8522051,4.08517471 10.7749029,3.73068853 L10.3837569,2.04012179 C10.3837569,1.69842098 10.0381059,1.42152523 9.73369908,1.25576911 C9.42929227,1.09001299 9.09474396,0.915268911 8.72018619,0.915268911 L6.52409153,0.915268911 C6.15633249,0.911841191 5.83972083,1.03213273 5.57415194,1.27614353 Z M8.55943478,1.77713393 C8.77050923,1.77713393 8.96824667,1.83393347 9.13763866,1.94222361 C9.24507724,2.01104983 9.54012324,2.21189057 9.54012324,2.40020092 L9.80564593,3.70994544 C9.86577301,4.03268014 9.59127236,4.18125729 8.98214398,4.15567689 C8.4743919,4.12868062 8.15015771,4.11518248 8.00944141,4.11518248 L6.93175436,4.04403749 C6.72714873,3.96802713 6.73814243,3.96553125 6.63679117,3.76723904 C6.50395443,3.64169881 6.41466451,2.94411639 6.41131744,2.75580604 L6.32896805,2.23099673 C6.33231512,2.04622121 6.25872637,1.97644347 6.39156311,1.85090323 C6.53109398,1.72193528 6.55315914,1.73596478 6.75324718,1.72804345 L8.55943478,1.77713393 Z" id="Shape" transform="translate(7.994506, 2.900255) rotate(-5.000000) translate(-7.994506, -2.900255) "></path>
                    <path d="M15.7434359,1.1160634 L12.9456482,1.04337497 C12.5744375,1.03994725 11.9976098,1.02762556 11.7320409,1.27163636 C11.466472,1.51221943 11.3123403,2.10864632 11.5458706,2.4826045 L12.0420684,3.8945201 C12.0420684,4.23279319 12.6050328,4.52674934 12.9966552,4.62720313 C13.3882776,4.72765691 13.4104328,4.72401526 13.7850951,4.72401526 L16.1739471,4.7567385 L16.5319794,6.29756016 L17.5927582,6.16378247 L15.7434359,1.1160634 Z M13.8290382,3.98744075 C13.4413751,3.99009336 13.0028843,3.88605492 13.0028843,3.70824196 L12.5210055,2.4848648 C12.5244571,2.29666157 12.4924768,1.94176094 12.6253136,1.81622071 C12.7648445,1.69068047 13.037647,1.73921111 13.2419227,1.73921111 L15.0138851,1.75941211 L15.8501341,4.03950206 L14.9953845,4.05452114 C14.8115049,4.05452114 14.3840627,3.98944892 13.8290382,3.98744075 Z" id="Shape"></path>
                    <path d="M17.6706778,0.858669505 C17.396945,1.08853053 17.4553145,1.03340671 17.4553145,1.37864236 C17.45991,1.85019438 17.4754955,2.20641082 17.5020713,2.44729168 C17.521155,2.62026512 17.5483219,2.87531421 17.5835722,3.21243895 C17.5835722,3.55071203 17.7918405,3.87040173 18.0540623,4.11451964 C18.3229783,4.35853044 18.8658776,4.71158161 19.2336366,4.71158161 L21.1267702,5.33178525 C21.5011714,5.40380678 21.6093232,5.40429698 21.871545,5.16360679 C22.1371139,4.91959599 21.9174058,3.56584431 21.9174058,3.22403638 L21.7450906,2.47800311 C21.5137199,2.12965872 21.1611173,1.7815655 20.8400627,1.57099687 C20.519008,1.36042824 19.8679367,1.1004122 19.5172521,1.02248771 L18.3769473,0.724295177 C18.2118243,0.722756139 18.1264239,0.683514515 17.9931842,0.698423526 C17.8599444,0.713332538 17.8227029,0.731009773 17.6706778,0.858669505 Z M19.746007,1.83219886 C19.9362931,1.8995775 20.3241491,2.02271321 20.4854701,2.0944905 C20.6478282,2.20018171 20.8180078,2.27489166 20.9120662,2.44826536 L21.0690947,2.80491489 C21.0690947,2.99322524 21.1121492,3.41169161 21.1642969,3.64451989 C21.1153079,3.83657896 21.2921027,4.34831657 21.1249814,4.41187702 L19.203257,3.72215285 C18.9792183,3.66738841 18.8533436,3.60647534 18.6921994,3.49999021 C18.5810547,3.35418906 18.4864616,3.25148409 18.4831145,3.06317374 L18.5432231,1.55585551 C18.5465701,1.37107999 18.8463312,1.61283776 19.0507116,1.61283776 L19.746007,1.83219886 Z" id="Shape" transform="translate(19.726430, 3.034452) rotate(-16.000000) translate(-19.726430, -3.034452) "></path>
                    <path d="M22.9039325,1.6139103 C22.6697819,1.59882768 22.5223652,1.7237283 22.4136755,1.98595524 L22.5665682,2.42784228 C22.5665682,2.68942014 22.8808383,3.2590989 23.0919128,3.44740925 C23.3097859,3.6357196 23.5634116,3.78263749 23.8630787,3.78263749 L24.5728341,3.93349029 C24.7148055,3.97111935 25.2769176,4.03208301 25.5556566,4.06120421 C25.6750604,4.09960295 25.9367429,4.0996597 26.0484267,4.19312727 L26.1858305,4.42134374 C26.182336,4.52690564 26.3856266,4.7754541 26.3073889,4.84518677 C26.2323937,4.91491945 25.8919879,4.82970132 25.7627074,4.82970132 L23.6054594,4.46365576 L23.835134,5.13334132 L26.6119548,5.62984033 C26.9092198,5.68110267 27.0923972,5.6947379 27.1931994,5.45154064 C27.2940015,5.20834338 27.1813815,5.0017328 27.0909176,4.72858696 L26.866717,4.2971304 C26.7730027,4.030725 26.4060698,3.75855491 26.1412213,3.60633105 C25.8763729,3.4541072 25.3176214,3.3095169 25.0111555,3.3095169 L24.1962477,3.15706774 C24.0736614,3.15706774 23.601447,2.90989501 23.5232093,2.84369718 C23.444867,2.77042967 23.4658392,2.48046184 23.4658392,2.37580927 L24.0682595,2.49340372 C24.1978325,2.52940701 24.241249,2.51660309 24.4591681,2.56566255 C24.7733668,2.63639716 25.1563095,2.74655462 25.2423928,2.75162915 C25.42998,2.81227507 25.6904365,2.90114917 25.8292939,2.84444768 C25.9218655,2.80664668 25.9233912,2.65427571 25.833871,2.38733476 L25.6505465,2.20957809 L24.5883938,1.94110218 C24.2464921,1.87778015 23.1380831,1.62899292 22.9039325,1.6139103 Z" id="Shape"></path>
                </g>
            </g>
        </g>
    </g>
</svg>