<?xml version="1.0" encoding="UTF-8" standalone="no"?>
<svg width="55px" height="66px" viewBox="0 0 55 66" version="1.1" xmlns="http://www.w3.org/2000/svg" xmlns:xlink="http://www.w3.org/1999/xlink">
    <!-- Generator: Sketch 3.8.2 (29753) - http://www.bohemiancoding.com/sketch -->
    <title>Shape</title>
    <desc>Created with Sketch.</desc>
    <defs></defs>
    <g id="Guide-Screens" stroke="none" stroke-width="1" fill="none" fill-rule="evenodd">
        <g id="No-Notifications" transform="translate(-160.000000, -135.000000)" fill="#008EA3">
            <path d="M214.271368,186.709206 C210.076252,183.559202 207.670661,178.744353 207.670661,173.504125 L207.670661,162.502946 C207.670661,153.287626 201.458662,145.495124 193.002423,143.096867 L193.002423,140.500589 C193.002423,137.467931 190.534492,135 187.501834,135 C184.469175,135 182.001244,137.467931 182.001244,140.500589 L182.001244,143.096867 C173.545005,145.498791 167.333006,153.287626 167.333006,162.502946 L167.333006,173.504125 C167.333006,178.744353 164.927415,183.555535 160.732299,186.709206 C160.101565,187.182257 159.844871,188.007345 160.094231,188.755425 C160.343591,189.503505 161.043999,190.009559 161.832417,190.009559 L178.517538,190.009559 C178.396525,190.610957 178.330518,191.223356 178.330518,191.843089 C178.330518,196.896297 182.444958,201.010738 187.498166,201.010738 C192.551374,201.010738 196.665815,196.896297 196.665815,191.843089 C196.665815,191.227023 196.603475,190.610957 196.482462,190.009559 L213.167583,190.009559 C213.956001,190.009559 214.656409,189.503505 214.905769,188.755425 C215.155129,188.007345 214.898435,187.182257 214.267701,186.709206 L214.271368,186.709206 Z M185.668304,140.500589 C185.668304,139.488481 186.489725,138.667059 187.501834,138.667059 C188.513942,138.667059 189.335363,139.488481 189.335363,140.500589 L189.335363,142.418461 C188.730298,142.363455 188.121567,142.334119 187.501834,142.334119 C186.8821,142.334119 186.273369,142.363455 185.668304,142.418461 L185.668304,140.500589 L185.668304,140.500589 Z M193.002423,191.839422 C193.002423,194.87208 190.534492,197.340011 187.501834,197.340011 C184.469175,197.340011 182.001244,194.87208 182.001244,191.839422 C182.001244,191.212355 182.111256,190.592622 182.316611,190.005892 L192.687056,190.005892 C192.892411,190.592622 193.002423,191.212355 193.002423,191.839422 L193.002423,191.839422 Z M166.386905,186.338833 C167.322005,185.205711 168.136092,183.969912 168.803497,182.668106 C170.262987,179.815134 171.000066,176.731137 171.000066,173.504125 L171.000066,162.502946 C171.000066,153.404972 178.403859,146.001178 187.501834,146.001178 C196.599808,146.001178 204.003601,153.404972 204.003601,162.502946 L204.003601,173.504125 C204.003601,176.731137 204.744347,179.815134 206.20017,182.668106 C206.867575,183.973579 207.681662,185.205711 208.616762,186.338833 L166.383238,186.338833 L166.386905,186.338833 Z" id="Shape"></path>
        </g>
    </g>
</svg>