<?xml version="1.0" encoding="UTF-8"?>
<svg width="61px" height="61px" viewBox="0 0 61 61" version="1.1" xmlns="http://www.w3.org/2000/svg" xmlns:xlink="http://www.w3.org/1999/xlink">
    <!-- Generator: Sketch 47.1 (45422) - http://www.bohemiancoding.com/sketch -->
    <title>diagram</title>
    <desc>Created with Sketch.</desc>
    <defs></defs>
    <g id="v1.15-Roqos-Home-App" stroke="none" stroke-width="1" fill="none" fill-rule="evenodd">
        <g id="What's-New-v1.15" transform="translate(-24.000000, -325.000000)" fill-rule="nonzero">
            <g id="diagram" transform="translate(24.559755, 325.750000)">
                <circle id="Oval" fill="#08ADC5" cx="29.7396822" cy="29.7396822" r="29.7396822"></circle>
                <path d="M59.4793645,29.7396822 C59.4793645,29.4563421 59.4746015,29.1739312 59.4665857,28.8923336 L47.4996164,16.9337286 C47.5464331,16.9805454 43.7325512,24.0223445 41.4910389,28.2732603 L40.0203186,26.8023078 C40.0203186,26.8023078 12.1833952,42.5485401 11.983117,42.5485401 L28.8234444,59.4639138 C29.1280438,59.4730912 29.4332241,59.4793645 29.7400307,59.4793645 C46.1643511,59.4793645 59.4793645,46.1643511 59.4793645,29.7396822 Z" id="Shape" fill="#008EA3"></path>
                <path d="M46.5036855,42.9573446 L12.9755628,42.9573446 C12.1967548,42.9573446 11.5654836,42.3259572 11.5654836,41.5470331 L11.5654836,17.932099 C11.5654836,17.1532911 12.196871,16.5220199 12.9755628,16.5220199 L46.5036855,16.5220199 C47.2824935,16.5220199 47.913997,17.1534073 47.913997,17.932099 L47.913997,41.5470331 C47.9138808,42.325841 47.2824935,42.9573446 46.5036855,42.9573446 Z" id="Shape" fill="#D0D1D3"></path>
                <path d="M46.5036855,16.5220199 L29.6727679,16.5220199 L29.6727679,42.9573446 L46.5035694,42.9573446 C47.2823773,42.9573446 47.9138808,42.3259572 47.9138808,41.5470331 L47.9138808,17.9323314 C47.9138808,17.1535234 47.2824935,16.5220199 46.5036855,16.5220199 Z" id="Shape" fill="#A6A8AA"></path>
                <circle id="Oval" fill="#C92F00" cx="13.5180796" cy="18.1741986" r="1"></circle>
                <circle id="Oval" fill="#EAA22F" cx="16.2716722" cy="18.1741986" r="1"></circle>
                <circle id="Oval" fill="#386895" cx="19.0253809" cy="18.1741986" r="1"></circle>
                <path d="M45.6609837,18.8751722 L21.4286028,18.8751722 C21.0415222,18.8751722 20.7276291,18.5613953 20.7276291,18.1741986 L20.7276291,18.1741986 C20.7276291,17.7871181 21.041406,17.473225 21.4286028,17.473225 L45.6609837,17.473225 C46.0480643,17.473225 46.3619574,17.7870019 46.3619574,18.1741986 L46.3619574,18.1741986 C46.3618412,18.5613953 46.0480643,18.8751722 45.6609837,18.8751722 Z" id="Shape" fill="#FFFFFF"></path>
                <path d="M45.6609837,17.4733412 L29.6730003,17.4733412 L29.6730003,18.8751722 L45.6609837,18.8751722 C46.0480643,18.8751722 46.3619574,18.5613953 46.3619574,18.1741986 C46.3619574,17.7870019 46.0480643,17.4733412 45.6609837,17.4733412 Z" id="Shape" fill="#D0D1D3"></path>
                <rect id="Rectangle-path" fill="#FFFFFF" x="13.1175233" y="20.4272119" width="33.2443179" height="21.0280464"></rect>
                <rect id="Rectangle-path" fill="#D0D1D3" x="29.6735811" y="20.4272119" width="16.68826" height="21.0280464"></rect>
                <polygon id="Shape" fill="#02B2B2" points="28.3776977 35.286133 21.3901503 31.9858414 16.7195099 33.6114171 16.3245298 32.4767785 21.4588071 30.6894933 28.0847154 33.8188979 34.9025375 26.2815148 41.9115765 29.4807379 41.4125075 30.5740197 35.203768 27.7398048"></polygon>
                <polygon id="Shape" fill="#386895" points="34.9025375 26.2815148 29.6730003 32.0632111 29.6730003 33.8542137 35.203768 27.7398048 41.4125075 30.5740197 41.9115765 29.4807379"></polygon>
                <g id="Group" transform="translate(14.986012, 29.739682)" fill="#273B7A">
                    <circle id="Oval" cx="6.43852503" cy="1.59815941" r="1.50835951"></circle>
                    <circle id="Oval" cx="1.53600812" cy="3.30435751" r="1.50835951"></circle>
                    <circle id="Oval" cx="13.2456595" cy="4.8123685" r="1.50835951"></circle>
                </g>
                <g id="Group" transform="translate(33.457143, 25.441369)" fill="#121149">
                    <circle id="Oval" cx="1.59560365" cy="1.56865207" r="1.50835951"></circle>
                    <circle id="Oval" cx="8.20443483" cy="4.58664896" r="1.50835951"></circle>
                </g>
            </g>
        </g>
    </g>
</svg>