<?xml version="1.0" encoding="UTF-8"?>
<svg width="58px" height="57px" viewBox="0 0 58 57" version="1.1" xmlns="http://www.w3.org/2000/svg" xmlns:xlink="http://www.w3.org/1999/xlink">
    <!-- Generator: Sketch 43.1 (39012) - http://www.bohemiancoding.com/sketch -->
    <title>VPN-In Icon</title>
    <desc>Created with Sketch.</desc>
    <defs></defs>
    <g id="Page-1" stroke="none" stroke-width="1" fill="none" fill-rule="evenodd">
        <g id="VPN-In---Disabled" transform="translate(-157.000000, -92.000000)" fill-rule="nonzero">
            <g id="VPN-In-Icon" transform="translate(157.500000, 92.000000)">
                <g id="logo_other_vpns" transform="translate(0.344717, 0.216795)">
                    <g id="Ellipse_1" fill="#9F9F9F">
                        <g id="Ellipse_1-2">
                            <circle id="Oval" cx="28.181421" cy="28.181421" r="28.181421"></circle>
                        </g>
                    </g>
                    <g id="VPN" transform="translate(13.788689, 27.577378)" fill="#FFFFFF">
                        <polygon id="Shape" points="6.15164521 14.6665243 3.39036374 14.6665243 0.172580092 0.133610394 2.95612996 0.133610394 4.80440708 10.8892471 4.84616033 10.8892471 6.73619069 0.133610394 9.49747216 0.133610394"></polygon>
                        <path d="M14.9754983,8.83220374 L13.5837234,8.81271889 L13.5837234,14.6581736 L11.0089397,14.6581736 L11.0089397,0.133610394 L15.0590048,0.133610394 C17.5363642,0.133610394 18.7138058,1.94848491 18.7138058,4.28388325 C18.7138058,7.29568421 16.9267668,8.83220374 14.9754983,8.83220374 Z M14.1042472,6.60536384 C15.7743771,6.60536384 16.2642819,6.3965976 16.2642819,4.2810997 C16.2642819,3.11757586 15.9859269,2.2045715 14.9560135,2.2045715 L13.5837234,2.2045715 L13.5837234,6.61093094 L14.1042472,6.60536384 Z" id="Shape"></path>
                        <polygon id="Shape" points="28.0136459 0.133610394 28.0136459 14.6665243 25.4193774 14.6665243 22.8668622 6.34092661 22.8251089 6.34092661 22.8251089 14.6665243 20.2280569 14.6665243 20.2280569 0.133610394 22.9698535 0.133610394 25.3776242 8.18920372 25.4193774 8.18920372 25.4193774 0.133610394"></polygon>
                    </g>
                </g>
                <polygon id="Shape" fill="#FFFFFF" transform="translate(28.611530, 17.925296) rotate(-90.000000) translate(-28.611530, -17.925296) " points="34.3552945 13.0311327 33.505416 12.1812541 24.0698298 21.6174564 24.0698298 14.683332 22.8677654 14.683332 22.8677654 23.6693377 31.853771 23.6693377 31.853771 22.4673349 24.9196467 22.4673349"></polygon>
            </g>
        </g>
    </g>
</svg>