<?xml version="1.0" encoding="UTF-8"?>
<svg width="100px" height="100px" viewBox="0 0 100 100" version="1.1" xmlns="http://www.w3.org/2000/svg" xmlns:xlink="http://www.w3.org/1999/xlink">
    <!-- Generator: Sketch 44 (41411) - http://www.bohemiancoding.com/sketch -->
    <title>Email icon</title>
    <desc>Created with Sketch.</desc>
    <defs></defs>
    <g id="Page-1" stroke="none" stroke-width="1" fill="none" fill-rule="evenodd">
        <g id="Connect-to-VPN---Email-Configuration" transform="translate(-138.000000, -97.000000)">
            <g id="Email-icon" transform="translate(138.000000, 97.000000)">
                <g id="Layer_2_copy" fill-rule="nonzero">
                    <circle id="Oval" fill="#008EA3" cx="50" cy="50" r="49.7252747"></circle>
                    <path d="M50,92.621978 C26.4989011,92.621978 7.37912088,73.5010989 7.37912088,49.9989011 C7.37912088,26.4978022 26.4989011,7.37802198 50,7.37802198 C73.5021978,7.37802198 92.621978,26.4978022 92.621978,49.9989011 C92.6208791,73.5010989 73.5021978,92.621978 50,92.621978 L50,92.621978 Z" id="Shape" fill="#008EA3"></path>
                    <path d="M50,4.53626374 C75.1087912,4.53626374 95.4626374,24.8901099 95.4626374,49.9989011 C95.4626374,75.1065934 75.1087912,95.4626374 50,95.4626374 C24.8901099,95.4626374 4.53736264,75.1076923 4.53736264,49.9989011 C4.53626374,24.8912088 24.8901099,4.53626374 50,4.53626374 L50,4.53626374 Z M50,10.2197802 C28.0648352,10.2197802 10.2197802,28.0648352 10.2197802,50 C10.2197802,71.9351648 28.0648352,89.7802198 50,89.7802198 C71.9351648,89.7802198 89.7802198,71.9362637 89.7802198,50 C89.7802198,28.0648352 71.9351648,10.2197802 50,10.2197802 L50,10.2197802 Z" id="Shape" fill="#FFFFFF"></path>
                </g>
                <g id="Layer_1_copy" transform="translate(6.593407, 8.791209)" stroke="#008EA3" fill-rule="nonzero" stroke-width="3" fill="#FFFFFF">
                    <path d="M85.4395604,42.5824176 C85.4395604,39.1582418 82.7395604,34.4648352 81.921978,31.2934066 L27.3571429,0.886813187 L0.898901099,48.367033 L55.8461538,78.9857143 C68.956044,79.1208791 85.4395604,60.1736264 85.4395604,42.5824176 Z" id="Shape"></path>
                    <polygon id="Shape" stroke-linecap="round" stroke-linejoin="round" points="58.3098901 80.2186813 1.26263736 48.3384615 55.6857143 34.8318681 70.0549451 75"></polygon>
                    <path d="M46.5505495,55.9791209 L84.6868132,47.7197802 C84.8967033,46.0648352 86.6758242,44.7021978 86.6758242,42.9934066 C86.6758242,39.5813187 86.6626374,37.089011 85.8516484,33.9274725 L29.4054945,2.58901099 L46.5505495,55.9791209 Z" id="Shape"></path>
                </g>
                <g id="Layer_5" transform="translate(7.692308, 4.395604)">
                    <g id="Group">
                        <path d="M24.3747253,81.1076923 C29.7659341,83.8417582 35.8604396,85.3846154 42.3076923,85.3846154 C64.2428571,85.3846154 82.0879121,67.5406593 82.0879121,45.6043956 C82.0879121,34.2142857 77.2758242,23.9263736 69.578022,16.667033 C63.2857143,10.7351648 55.0659341,6.83076923 45.9703297,5.9967033 L45.9703297,64.6516484 L7.4032967,64.6516484 C11.2659341,71.7010989 17.1923077,77.4648352 24.3747253,81.1076923 Z" id="Shape"></path>
                        <path d="M74.2736264,13.2769231 C66.8736264,5.95934066 56.9725275,1.17802198 45.9703297,0.3 L45.9703297,5.9956044 C55.0659341,6.82967033 63.2868132,10.7340659 69.578022,16.6659341 C77.2758242,23.9252747 82.0879121,34.2131868 82.0879121,45.6043956 C82.0879121,67.5395604 64.2428571,85.3846154 42.3076923,85.3846154 C35.8604396,85.3846154 29.7659341,83.8428571 24.3747253,81.1076923 C17.1923077,77.4659341 11.2659341,71.7010989 7.4032967,64.6516484 L1.02307692,64.6516484 C5.40989011,74.1428571 12.9659341,81.8692308 22.3417582,86.4593407 C28.3681319,89.410989 35.143956,91.067033 42.3076923,91.067033 C67.4164835,91.067033 87.7703297,70.7120879 87.7703297,45.6032967 C87.7703297,32.9582418 82.6076923,21.5175824 74.2736264,13.2769231 Z" id="Shape" fill="#FFFFFF" fill-rule="nonzero"></path>
                    </g>
                </g>
            </g>
        </g>
    </g>
</svg>