<?xml version="1.0" encoding="UTF-8" standalone="no"?>
<svg width="85px" height="64px" viewBox="0 0 85 64" version="1.1" xmlns="http://www.w3.org/2000/svg" xmlns:xlink="http://www.w3.org/1999/xlink">
    <!-- Generator: Sketch 3.8.2 (29753) - http://www.bohemiancoding.com/sketch -->
    <title>0431-laptop-phone</title>
    <desc>Created with Sketch.</desc>
    <defs></defs>
    <g id="Guide-Screens" stroke="none" stroke-width="1" fill="none" fill-rule="evenodd">
        <g id="Add-Device-to-Profile" transform="translate(-141.000000, -135.000000)" fill="#008EA3">
            <g id="0431-laptop-phone" transform="translate(141.000000, 135.000000)">
                <path d="M48.3729824,46.9333333 L14.722212,46.9333333 C11.2435636,46.9333333 8.41269259,44.0618667 8.41269259,40.5333333 L8.41269259,6.4 C8.41269259,2.87146667 11.2435636,0 14.722212,0 L69.4047139,0 C72.8833623,0 75.7142333,2.87146667 75.7142333,6.4 L75.7142333,10.6666667 C75.7142333,11.8442667 74.7720117,12.8 73.6110602,12.8 C72.4501086,12.8 71.507887,11.8442667 71.507887,10.6666667 L71.507887,6.4 C71.507887,5.2224 70.5656654,4.26666667 69.4047139,4.26666667 L14.722212,4.26666667 C13.5612605,4.26666667 12.6190389,5.2224 12.6190389,6.4 L12.6190389,40.5333333 C12.6190389,41.7109333 13.5612605,42.6666667 14.722212,42.6666667 L48.3729824,42.6666667 C49.533934,42.6666667 50.4761555,43.6224 50.4761555,44.8 C50.4761555,45.9776 49.533934,46.9333333 48.3729824,46.9333333 L48.3729824,46.9333333 Z" id="Shape"></path>
                <path d="M48.3729824,64 L6.30951944,64 C2.83087106,64 0,61.1285333 0,57.6 L0,53.3333333 C0,52.1557333 0.94222157,51.2 2.10317315,51.2 L48.3729824,51.2 C49.533934,51.2 50.4761555,52.1557333 50.4761555,53.3333333 C50.4761555,54.5109333 49.533934,55.4666667 48.3729824,55.4666667 L4.20634629,55.4666667 L4.20634629,57.6 C4.20634629,58.7776 5.14856787,59.7333333 6.30951944,59.7333333 L48.3729824,59.7333333 C49.533934,59.7333333 50.4761555,60.6890667 50.4761555,61.8666667 C50.4761555,63.0442667 49.533934,64 48.3729824,64 L48.3729824,64 Z" id="Shape"></path>
                <path d="M77.8174065,64 L60.9920213,64 C57.5133729,64 54.6825018,61.1285333 54.6825018,57.6 L54.6825018,23.4666667 C54.6825018,19.9381333 57.5133729,17.0666667 60.9920213,17.0666667 L77.8174065,17.0666667 C81.2960548,17.0666667 84.1269259,19.9381333 84.1269259,23.4666667 L84.1269259,57.6 C84.1269259,61.1285333 81.2960548,64 77.8174065,64 L77.8174065,64 Z M60.9920213,21.3333333 C59.8310697,21.3333333 58.8888481,22.2890667 58.8888481,23.4666667 L58.8888481,57.6 C58.8888481,58.7776 59.8310697,59.7333333 60.9920213,59.7333333 L77.8174065,59.7333333 C78.978358,59.7333333 79.9205796,58.7776 79.9205796,57.6 L79.9205796,23.4666667 C79.9205796,22.2890667 78.978358,21.3333333 77.8174065,21.3333333 L60.9920213,21.3333333 L60.9920213,21.3333333 Z" id="Shape"></path>
                <path d="M69.4047139,55.4666667 C68.8494762,55.4666667 68.3110638,55.2405333 67.9198736,54.8394667 C67.5286834,54.4384 67.3015407,53.8922667 67.3015407,53.3333333 C67.3015407,52.7744 67.5244771,52.2197333 67.9198736,51.8272 C68.3110638,51.4304 68.8536825,51.2 69.4047139,51.2 C69.9557452,51.2 70.5025702,51.4261333 70.8895541,51.8272 C71.2807443,52.224 71.507887,52.7744 71.507887,53.3333333 C71.507887,53.8922667 71.2849507,54.4469333 70.8895541,54.8394667 C70.4983639,55.2362667 69.9557452,55.4666667 69.4047139,55.4666667 L69.4047139,55.4666667 Z" id="Shape"></path>
            </g>
        </g>
    </g>
</svg>