<?xml version="1.0" encoding="UTF-8" standalone="no"?>
<svg width="69px" height="69px" viewBox="0 0 69 69" version="1.1" xmlns="http://www.w3.org/2000/svg" xmlns:xlink="http://www.w3.org/1999/xlink">
    <!-- Generator: Sketch 3.8.2 (29753) - http://www.bohemiancoding.com/sketch -->
    <title>Fill 21</title>
    <desc>Created with Sketch.</desc>
    <defs></defs>
    <g id="Guide-Screens" stroke="none" stroke-width="1" fill="none" fill-rule="evenodd">
        <g id="No-Port-Forwarding" transform="translate(-153.000000, -135.000000)" fill="#008EA3">
            <path d="M168.232507,183.130945 C168.232507,183.257852 168.224253,183.38218 168.213935,183.506508 C168.673072,183.608138 169.129113,183.716989 169.591861,183.806753 C172.744428,184.411369 175.956322,184.717288 179.13881,184.717288 C179.51489,184.717288 179.887874,184.700264 180.262406,184.693042 C176.09819,177.55785 173.700361,169.271721 173.700361,160.432049 C173.700361,158.340655 173.848936,156.284858 174.107909,154.263108 C168.909862,161.204327 165.641221,169.664825 165.078908,178.844465 C166.905653,179.412969 168.232507,181.116418 168.232507,183.130945 L168.232507,183.130945 Z M159.996419,180.665019 C157.026475,176.613782 154.681782,172.079678 153.084089,167.210765 C153.034048,167.968082 153,168.730043 153,169.499742 C153,172.461432 153.374532,175.335422 154.076134,178.079409 C155.934348,179.13955 157.859111,180.087229 159.850424,180.904905 C159.897369,180.823912 159.94483,180.742918 159.996419,180.665019 L159.996419,180.665019 Z M164.439728,195.155169 C163.722133,192.688728 163.19232,190.144388 162.875051,187.532983 C160.880128,187.141427 159.364461,185.428176 159.266959,183.342457 C157.857564,182.776533 156.480153,182.143027 155.132149,181.459481 C157.091476,186.760705 160.316267,191.446995 164.439728,195.155169 L164.439728,195.155169 Z M181.771366,187.123371 C180.897975,187.166705 180.020972,187.193531 179.13881,187.193531 C175.800525,187.193531 172.431286,186.87162 169.124986,186.238114 C168.781923,186.171565 168.444535,186.087992 168.104052,186.015252 C174.33851,191.707 182.149509,195.689625 190.793145,197.253269 C187.335175,194.317373 184.291975,190.910475 181.771366,187.123371 L181.771366,187.123371 Z M195.016688,200.472901 C193.251333,201.768802 191.380737,202.927477 189.425021,203.942737 C192.417664,203.778686 195.307646,203.229785 198.049054,202.350203 C197.015222,201.757968 196.000479,201.137876 195.016688,200.472901 L195.016688,200.472901 Z M207.947836,178.758828 C207.907081,178.730454 207.868906,178.700533 207.830214,178.670096 C200.976696,183.125786 193.063035,186.01422 184.6273,186.895866 C187.487877,190.924404 190.976284,194.47317 194.958909,197.394621 C200.915305,192.605154 205.478299,186.158668 207.947836,178.758828 L207.947836,178.758828 Z M214.673416,173.388991 C214.887507,173.912098 215.006677,174.483181 215.006677,175.083155 C215.006677,176.674141 214.177135,178.068059 212.929212,178.8651 C214.12142,182.436565 214.89215,186.196843 215.182077,190.09022 C219.46443,184.34224 222,177.217367 222,169.499742 C222,168.142967 221.912816,166.806828 221.760114,165.490808 C219.660982,168.361186 217.285336,171.007155 214.673416,173.388991 L214.673416,173.388991 Z M209.740533,170.667188 C209.912838,169.158743 210.010856,167.627599 210.010856,166.073756 C210.010856,154.973996 205.485522,144.912711 198.185247,137.633588 C191.290458,139.612519 185.05342,143.159737 179.898191,147.878012 C179.966288,148.068373 180.026647,148.262346 180.068949,148.46354 C192.59616,151.5769 203.124321,159.78771 209.326278,170.760563 C209.461955,170.722903 209.599696,170.691434 209.740533,170.667188 L209.740533,170.667188 Z M199.722066,200.454845 C200.18275,200.712271 200.648077,200.961443 201.118564,201.201845 C201.778379,200.919141 202.424782,200.610642 203.062414,200.287699 C201.958939,200.381074 200.845145,200.436273 199.722066,200.454845 L199.722066,200.454845 Z M213.132986,171.439466 C216.176701,168.645954 218.877354,165.472236 221.170459,161.990535 C218.829377,151.448961 211.670971,142.724847 202.118347,138.248522 C208.571024,145.724712 212.487615,155.447062 212.487615,166.073756 C212.487615,167.715299 212.384438,169.331564 212.203363,170.924614 C212.535592,171.058743 212.846154,171.234144 213.132986,171.439466 L213.132986,171.439466 Z M165.71654,187.157935 C165.594276,187.217262 165.470464,187.271946 165.34304,187.320439 C165.799598,191.017779 166.700847,194.575831 167.98643,197.948165 C172.546329,201.08216 177.896562,203.146212 183.678073,203.783329 C186.434442,202.767553 189.049973,201.45824 191.486494,199.892532 C181.580489,198.346427 172.671688,193.771568 165.71654,187.157935 L165.71654,187.157935 Z M210.518486,179.570829 C210.441619,179.570829 210.3663,179.563607 210.289949,179.560512 C207.892636,186.732847 203.6433,193.061196 198.105285,197.976023 C198.392117,197.981181 198.676885,197.99769 198.965264,197.99769 C202.157554,197.99769 205.272462,197.660817 208.282645,197.035566 C209.917997,195.798476 211.437275,194.418487 212.827583,192.917264 C212.761549,188.257284 211.966572,183.774252 210.553566,179.569798 C210.541701,179.569798 210.530351,179.570829 210.518486,179.570829 L210.518486,179.570829 Z M168.874266,147.091289 C169.846192,147.091289 170.808831,147.131012 171.765796,147.190855 C172.535495,145.824794 173.996994,144.90033 175.676713,144.90033 C175.875844,144.90033 176.070332,144.91787 176.262757,144.942632 C177.367265,141.689984 178.819994,138.599839 180.558007,135.698507 C172.57625,137.3287 165.604594,141.719389 160.666036,147.823328 C163.331093,147.344588 166.073532,147.091289 168.874266,147.091289 L168.874266,147.091289 Z M161.884554,179.049787 C162.113607,178.946094 162.352461,178.861489 162.599569,178.795972 C163.183034,168.925563 166.742634,159.847553 172.392595,152.441006 C171.699247,151.695038 171.258682,150.714342 171.200387,149.629954 C170.429657,149.589199 169.654799,149.567532 168.874266,149.567532 C165.300738,149.567532 161.82987,150.006034 158.502935,150.817003 C156.486344,153.940681 154.957264,157.405874 154.031252,161.114048 C155.342629,167.707561 158.067013,173.797572 161.884554,179.049787 L161.884554,179.049787 Z M195.397926,135.918789 C192.859777,135.324491 190.218967,135 187.499742,135 C186.244596,135 185.006475,135.070676 183.786925,135.201195 C181.642395,138.439914 179.893548,141.960307 178.618799,145.702013 C183.440251,141.38458 189.13561,138.033398 195.397926,135.918789 L195.397926,135.918789 Z M207.214249,172.052852 C206.481694,172.852472 206.030811,173.913646 206.030811,175.083155 C206.030811,175.651143 206.140694,176.192821 206.333635,176.693228 C199.482695,181.111259 191.53086,183.893421 183.064171,184.554785 C178.703404,177.543405 176.176604,169.278944 176.176604,160.432049 C176.176604,158.166802 176.348394,155.941279 176.667726,153.763733 C178.149861,153.428408 179.350323,152.36156 179.876008,150.961451 C191.589154,153.990206 201.416229,161.743942 207.214249,172.052852 L207.214249,172.052852 Z" id="Fill-21"></path>
        </g>
    </g>
</svg>