<?xml version="1.0" encoding="UTF-8"?>
<svg width="33px" height="33px" viewBox="0 0 33 33" version="1.1" xmlns="http://www.w3.org/2000/svg" xmlns:xlink="http://www.w3.org/1999/xlink">
    <!-- Generator: Sketch 40.3 (33839) - http://www.bohemiancoding.com/sketch -->
    <title>Layer_1</title>
    <desc>Created with Sketch.</desc>
    <defs></defs>
    <g id="Usage-Statistics" stroke="none" stroke-width="1" fill="none" fill-rule="evenodd">
        <g id="User-Profile" transform="translate(-23.000000, -394.000000)">
            <g id="Layer_1" transform="translate(24.000000, 395.000000)">
                <circle id="Oval" stroke="#008EA3" cx="15.5" cy="15.5" r="15.5"></circle>
                <path d="M14.1074219,21.5546875 C13.8725,21.5546875 13.6506562,21.4408594 13.5140625,21.2471094 L8.53323437,14.1960625 L4.762375,16.7099688 C4.42815625,16.9327813 3.97720312,16.8422031 3.754875,16.5084688 C3.53254687,16.1747344 3.62264062,15.7237813 3.956375,15.5009688 L8.31575,12.5947188 C8.64270312,12.37675 9.0849375,12.4586094 9.31210937,12.7802344 L14.0265312,19.4544375 L19.2209687,9.88560938 C19.3381875,9.6700625 19.5566406,9.52765625 19.8017344,9.50828125 C20.0468281,9.489875 20.2851406,9.59401563 20.4352969,9.78921875 L26.7321719,17.9630469 C26.9767812,18.2807969 26.9176875,18.7370781 26.5999375,18.9821719 C26.2821875,19.2267813 25.8263906,19.1681719 25.5808125,18.8499375 L19.9654531,11.5600938 L14.7463125,21.1749375 C14.6261875,21.3953281 14.4014375,21.5387031 14.1505312,21.5532344 C14.136,21.5542031 14.1214687,21.5546875 14.1074219,21.5546875 L14.1074219,21.5546875 Z" id="Shape" fill="#FFFFFF"></path>
                <circle id="Oval" fill="#C75C5C" cx="19.859375" cy="11.2011719" r="2.11914062"></circle>
                <g id="Group" opacity="0.2" transform="translate(3.390625, 10.171875)" fill="#231F20">
                    <g id="Shape">
                        <path d="M10.7167969,12.3515625 C10.481875,12.3515625 10.2600312,12.2377344 10.1234375,12.0439844 L5.14260937,4.9929375 L1.37175,7.50684375 C1.03753125,7.72917188 0.586578125,7.63859375 0.36425,7.30534375 C0.141921875,6.97160938 0.232015625,6.52017188 0.56575,6.29784375 L4.925125,3.39159375 C5.2525625,3.17217188 5.6943125,3.25548438 5.92148437,3.57710938 L10.6359062,10.2513125 L15.8303437,0.68296875 C15.9475625,0.4669375 16.1660156,0.325015625 16.4111094,0.305640625 C16.6557187,0.285296875 16.8945156,0.391859375 17.0446719,0.586578125 L23.3415469,8.76040625 C23.5861562,9.07815625 23.5270625,9.5344375 23.2093125,9.77953125 C22.8915625,10.024625 22.4357656,9.96553125 22.1901875,9.64729688 L16.5748281,2.35745313 L11.3552031,11.9718125 C11.2350781,12.1926875 11.0103281,12.3355781 10.7594219,12.3505938 C10.745375,12.3510781 10.7308437,12.3515625 10.7167969,12.3515625 L10.7167969,12.3515625 Z"></path>
                    </g>
                </g>
                <path d="M14.1074219,21.5546875 C13.8725,21.5546875 13.6506562,21.4408594 13.5140625,21.2471094 L8.53323437,14.1960625 L4.762375,16.7099688 C4.42815625,16.9327813 3.97720312,16.8422031 3.754875,16.5084688 C3.53254687,16.1747344 3.62264062,15.7237813 3.956375,15.5009688 L8.31575,12.5947188 C8.64270312,12.37675 9.0849375,12.4586094 9.31210937,12.7802344 L14.0265312,19.4544375 L19.2209687,9.88560938 C19.3381875,9.6700625 19.5566406,9.52765625 19.8017344,9.50828125 C20.0468281,9.489875 20.2851406,9.59401563 20.4352969,9.78921875 L26.7321719,17.9630469 C26.9767812,18.2807969 26.9176875,18.7370781 26.5999375,18.9821719 C26.2821875,19.2267813 25.8263906,19.1681719 25.5808125,18.8499375 L19.9654531,11.5600938 L14.7463125,21.1749375 C14.6261875,21.3953281 14.4014375,21.5387031 14.1505312,21.5532344 C14.136,21.5542031 14.1214687,21.5546875 14.1074219,21.5546875 L14.1074219,21.5546875 Z" id="Shape" fill="#008EA3"></path>
                <g id="Group" opacity="0.2" transform="translate(17.437500, 9.687500)" fill="#231F20">
                    <circle id="Oval" cx="2.421875" cy="2.48242188" r="2.11914063"></circle>
                </g>
                <circle id="Oval" stroke="#008EA3" fill="#008EA3" cx="19.859375" cy="11.2011719" r="2.11914062"></circle>
            </g>
        </g>
    </g>
</svg>