<?xml version="1.0" encoding="UTF-8"?>
<svg width="25px" height="27px" viewBox="0 0 25 27" version="1.1" xmlns="http://www.w3.org/2000/svg" xmlns:xlink="http://www.w3.org/1999/xlink">
    <!-- Generator: Sketch 47.1 (45422) - http://www.bohemiancoding.com/sketch -->
    <title>0287-user</title>
    <desc>Created with Sketch.</desc>
    <defs></defs>
    <g id="RMA-Activation" stroke="none" stroke-width="1" fill="none" fill-rule="evenodd">
        <g id="Expanded-Menu---NY" transform="translate(-25.000000, -296.000000)" fill-rule="nonzero" fill="#008EA3">
            <g id="Group-4" transform="translate(25.000000, 296.333333)">
                <g id="0287-user">
                    <path d="M12.2580645,14.3 C8.34451613,14.3 5.16129032,11.0929 5.16129032,7.15 C5.16129032,3.2071 8.34451613,0 12.2580645,0 C16.1716129,0 19.3548387,3.2071 19.3548387,7.15 C19.3548387,11.0929 16.1716129,14.3 12.2580645,14.3 Z M12.2580645,1.3 C9.05677419,1.3 6.4516129,3.9247 6.4516129,7.15 C6.4516129,10.3753 9.05677419,13 12.2580645,13 C15.4593548,13 18.0645161,10.3753 18.0645161,7.15 C18.0645161,3.9247 15.4593548,1.3 12.2580645,1.3 Z" id="Shape"></path>
                    <path d="M22.5806452,26 L1.93548387,26 C0.868387097,26 0,25.1251 0,24.05 C0,23.9616 0.0180645161,21.8595 1.58064516,19.76 C2.49032258,18.538 3.73548387,17.5669 5.28258065,16.8753 C7.1716129,16.029 9.51870968,15.6 12.2580645,15.6 C14.9974194,15.6 17.3445161,16.029 19.2335484,16.8753 C20.7806452,17.5682 22.0258065,18.538 22.9354839,19.76 C24.4980645,21.8595 24.516129,23.9616 24.516129,24.05 C24.516129,25.1251 23.6477419,26 22.5806452,26 Z M12.2580645,16.9 C7.75870968,16.9 4.43870968,18.1389 2.65677419,20.4828 C1.32129032,22.2391 1.2916129,24.0344 1.29032258,24.0526 C1.29032258,24.4088 1.57935484,24.7 1.93548387,24.7 L22.5806452,24.7 C22.9367742,24.7 23.2258065,24.4088 23.2258065,24.05 C23.2258065,24.0344 23.196129,22.2391 21.8593548,20.4828 C20.076129,18.1389 16.756129,16.9 12.2580645,16.9 Z" id="Shape"></path>
                </g>
            </g>
        </g>
    </g>
</svg>