<?xml version="1.0" encoding="utf-8"?>
<!-- Generator: Adobe Illustrator 19.2.1, SVG Export Plug-In . SVG Version: 6.00 Build 0)  -->
<svg version="1.1" id="Layer_1" xmlns="http://www.w3.org/2000/svg" xmlns:xlink="http://www.w3.org/1999/xlink" x="0px" y="0px"
	 viewBox="0 0 96.9 108.8" style="enable-background:new 0 0 96.9 108.8;" xml:space="preserve">
<style type="text/css">
	.st0{fill:#349334;}
	.st1{fill:#4CB749;}
	.st2{fill:#118011;}
	.st3{fill:url(#SVGID_1_);}
	.st4{fill:#FFFFFF;}
	.st5{fill:url(#SVGID_2_);}
	.st6{fill:url(#SVGID_3_);}
	.st7{fill:url(#SVGID_4_);}
</style>
<title>pia-robot</title>
<g id="Layer_2">
	<g id="Isolation_Mode">
		<path class="st0" d="M88.5,39.4h-4.4v-3.9C83.8,15.8,67.5,0.1,47.8,0.4c-19.2,0.3-34.7,15.8-35,35.1v4H8.4c-4.6,0-8.4,3.7-8.4,8.3
			l0,0v32.5c0,2.2,0.1,3.7,1,4.9s2.4,1.6,4.6,1.6h7.1l1.1,17.1c0,0,0,0.1,0,0.2c0,0.9,0.2,1.7,0.6,2.5c0.8,1.3,2.2,2.3,3.7,2.2h18
			l9.4-10.2h7l9,10.2h16.2c1.3,0.1,2.6-0.1,3.8-0.7c1.1-0.7,1.8-2.1,2.1-4.5c0.5-3.5,0.6-12.9,0.8-16.9h7.1c2.2,0,3.6-0.2,4.5-1.2
			s1-2.5,1-4.6V47.7C96.9,43.1,93.1,39.4,88.5,39.4z"/>
		<path class="st1" d="M95.8,80.9c0,2.1-0.2,3.3-0.7,3.9s-1.6,0.8-3.7,0.8h-8.1v0.5c-0.2,3.8-0.3,13.8-0.8,17.3
			c-0.3,2.3-0.9,3.2-1.6,3.7c-1,0.5-2.1,0.6-3.2,0.5H62l-9-10.2h-8l-9.4,10.3H18c-1.1,0.1-2.1-0.8-2.7-1.7c-0.3-0.6-0.5-1.3-0.5-1.9
			c0-0.1,0-0.2,0-0.2l0,0l-1.2-18.3h-8c-2.1,0-3.1-0.4-3.7-1.1s-0.8-2.1-0.8-4.2V47.7c0-4,3.3-7.2,7.3-7.2h5.5v-5.1
			c0.3-19,16-34.2,35.1-33.9c18.6,0.3,33.7,15.3,34,34v5.1h5.5c4,0,7.2,3.2,7.3,7.2V80.9z"/>
		<rect x="15" y="84.7" class="st2" width="67.1" height="2.2"/>
		<polygon class="st2" points="13.9,85.5 13.9,43.5 15,43.5 15,85.5 		"/>
		<polygon class="st2" points="82.1,85.5 82.1,43.5 83.2,43.5 83.2,85.5 		"/>
		
			<linearGradient id="SVGID_1_" gradientUnits="userSpaceOnUse" x1="47.9" y1="-371.95" x2="47.9" y2="-363.93" gradientTransform="matrix(1 0 0 -1 0 -315)">
			<stop  offset="0" style="stop-color:#4CB749"/>
			<stop  offset="1" style="stop-color:#79B481"/>
		</linearGradient>
		<ellipse class="st3" cx="47.9" cy="52.6" rx="24" ry="4.4"/>
		<path class="st4" d="M70.4,41.3v-6.4C70.1,22.8,60.1,13.2,48,13.4c-11.7,0.3-21.2,9.7-21.4,21.4v6.4L70.4,41.3L70.4,41.3z"/>
		
			<radialGradient id="SVGID_2_" cx="49.21" cy="-350.87" r="9.16" gradientTransform="matrix(1 0 0 -1 0 -315)" gradientUnits="userSpaceOnUse">
			<stop  offset="0" style="stop-color:#000000"/>
			<stop  offset="0.19" style="stop-color:#030303"/>
			<stop  offset="0.32" style="stop-color:#0C0C0C"/>
			<stop  offset="0.44" style="stop-color:#1C1C1C"/>
			<stop  offset="0.55" style="stop-color:#323232"/>
			<stop  offset="0.65" style="stop-color:#4E4E4E"/>
			<stop  offset="0.74" style="stop-color:#717171"/>
			<stop  offset="0.83" style="stop-color:#9A9A9A"/>
			<stop  offset="0.92" style="stop-color:#C9C9C9"/>
			<stop  offset="1" style="stop-color:#FEFEFE"/>
			<stop  offset="1" style="stop-color:#FFFFFF"/>
		</radialGradient>
		<rect x="39.2" y="34.6" class="st5" width="19.5" height="2.3"/>
		<circle cx="41.2" cy="24.9" r="4.1"/>
		<circle cx="55.6" cy="24.9" r="4.1"/>
		<rect x="40.6" y="65.7" class="st4" width="14.7" height="11"/>
		<path class="st4" d="M42.8,64.6c0.7-2.8,3.6-4.6,6.4-3.8c1.9,0.5,3.4,2,3.8,3.8h1.7c-0.7-3.8-4.3-6.3-8.1-5.6
			c-2.9,0.5-5.1,2.8-5.6,5.6H42.8z"/>
		<path class="st2" d="M84.3,86.7c-0.1,2-0.2,5.3-0.3,8.6h1.2c0.1-2.9,0.2-5.7,0.3-7.5l7,0.1h1.1v-1.3"/>
		
			<linearGradient id="SVGID_3_" gradientUnits="userSpaceOnUse" x1="81.022" y1="-397.8189" x2="89.912" y2="-407.1392" gradientTransform="matrix(1 0 0 -1 0 -315)">
			<stop  offset="0" style="stop-color:#23FF16"/>
			<stop  offset="1" style="stop-color:#189A33"/>
		</linearGradient>
		<path class="st6" d="M93.6,88.4v-0.6h-1.1h-7.1c-0.1,1.8-0.2,4.6-0.3,7.5h1.6C90.5,95.3,93.6,92.2,93.6,88.4z"/>
		<path class="st2" d="M12.7,86.8l-7.1-0.1c-0.9,0-1.9-0.1-2.8-0.3v1.4c0.5,0.1,1,0.1,1.5,0.1h7.1l0.5,7.4h1.4L12.7,86.8z"/>
		
			<linearGradient id="SVGID_4_" gradientUnits="userSpaceOnUse" x1="18.5015" y1="-394.1804" x2="5.1077" y2="-409.0372" gradientTransform="matrix(1 0 0 -1 0 -315)">
			<stop  offset="0" style="stop-color:#23FF16"/>
			<stop  offset="1" style="stop-color:#189A33"/>
		</linearGradient>
		<path class="st7" d="M4.4,87.9c-0.5,0-1.1,0-1.6-0.1v0.6c0,3.3,3.1,6.9,6.9,6.9l0,0h2.2l-0.5-7.4H4.4z"/>
	</g>
</g>
</svg>
