<?xml version="1.0" encoding="UTF-8"?>
<svg width="59px" height="59px" viewBox="0 0 59 59" version="1.1" xmlns="http://www.w3.org/2000/svg" xmlns:xlink="http://www.w3.org/1999/xlink">
    <!-- Generator: Sketch 49 (51002) - http://www.bohemiancoding.com/sketch -->
    <title>0151-envelope</title>
    <desc>Created with Sketch.</desc>
    <defs>
        <circle id="path-1" cx="29.5" cy="29.5" r="29.2567671"></circle>
    </defs>
    <g id="v1.16-Roqos-Home-App" stroke="none" stroke-width="1" fill="none" fill-rule="evenodd">
        <g id="What's-New-v1.16" transform="translate(-19.000000, -131.000000)">
            <g id="0151-envelope" transform="translate(19.000000, 130.750000)">
                <g id="Path-2"></g>
                <mask id="mask-2" fill="white">
                    <use xlink:href="#path-1"></use>
                </mask>
                <use id="Mask" fill="#89C7B6" xlink:href="#path-1"></use>
                <path d="M43.1944965,19 L15.5880997,19 C14.1611941,19 13,20.1611941 13,21.5880997 L13,37.1166979 C13,38.5436035 14.1611941,39.7047976 15.5880997,39.7047976 L43.1944965,39.7047976 C44.6214021,39.7047976 45.7825962,38.5436035 45.7825962,37.1166979 L45.7825962,21.5880997 C45.7825962,20.1611941 44.6214021,19 43.1944965,19 Z M43.1944965,20.7253998 C43.2462585,20.7253998 43.2945697,20.730576 43.3446063,20.739203 L30.348895,29.4024354 C29.848529,29.7354376 28.9357926,29.7354376 28.4354266,29.4024354 L15.4397153,20.739203 C15.4880265,20.730576 15.5380631,20.7253998 15.5898251,20.7253998 L43.1962219,20.7253998 L43.1944965,20.7253998 Z M43.1944965,37.9793978 L15.5880997,37.9793978 C15.1118894,37.9793978 14.7253998,37.5929082 14.7253998,37.1166979 L14.7253998,22.3369232 L27.4778297,30.837968 C28.0144291,31.1951258 28.7028636,31.3745674 29.3912981,31.3745674 C30.0797326,31.3745674 30.7681671,31.1951258 31.3047665,30.837968 L44.0571964,22.3369232 L44.0571964,37.1166979 C44.0571964,37.5929082 43.6707068,37.9793978 43.1944965,37.9793978 Z" id="Shape" fill="#FFFFFF" fill-rule="nonzero" mask="url(#mask-2)"></path>
            </g>
        </g>
    </g>
</svg>