<?xml version="1.0" encoding="UTF-8"?>
<svg width="28px" height="21px" viewBox="0 0 28 21" version="1.1" xmlns="http://www.w3.org/2000/svg" xmlns:xlink="http://www.w3.org/1999/xlink">
    <!-- Generator: Sketch 47.1 (45422) - http://www.bohemiancoding.com/sketch -->
    <title>0431-laptop-phone</title>
    <desc>Created with Sketch.</desc>
    <defs></defs>
    <g id="Menu-&amp;-New-RC-Activation" stroke="none" stroke-width="1" fill="none" fill-rule="evenodd">
        <g id="Collapsed-Menu---LA" transform="translate(-22.000000, -161.000000)" fill="#008EA3">
            <g id="Group-6" transform="translate(22.000000, 161.000000)">
                <g id="0431-laptop-phone">
                    <path d="M16.1,15.4 L4.9,15.4 C3.7422,15.4 2.8,14.4578 2.8,13.3 L2.8,2.1 C2.8,0.9422 3.7422,0 4.9,0 L23.1,0 C24.2578,0 25.2,0.9422 25.2,2.1 L25.2,3.5 C25.2,3.8864 24.8864,4.2 24.5,4.2 C24.1136,4.2 23.8,3.8864 23.8,3.5 L23.8,2.1 C23.8,1.7136 23.4864,1.4 23.1,1.4 L4.9,1.4 C4.5136,1.4 4.2,1.7136 4.2,2.1 L4.2,13.3 C4.2,13.6864 4.5136,14 4.9,14 L16.1,14 C16.4864,14 16.8,14.3136 16.8,14.7 C16.8,15.0864 16.4864,15.4 16.1,15.4 L16.1,15.4 Z" id="Shape"></path>
                    <path d="M16.1,21 L2.1,21 C0.9422,21 0,20.0578 0,18.9 L0,17.5 C0,17.1136 0.3136,16.8 0.7,16.8 L16.1,16.8 C16.4864,16.8 16.8,17.1136 16.8,17.5 C16.8,17.8864 16.4864,18.2 16.1,18.2 L1.4,18.2 L1.4,18.9 C1.4,19.2864 1.7136,19.6 2.1,19.6 L16.1,19.6 C16.4864,19.6 16.8,19.9136 16.8,20.3 C16.8,20.6864 16.4864,21 16.1,21 L16.1,21 Z" id="Shape"></path>
                    <path d="M25.9,21 L20.3,21 C19.1422,21 18.2,20.0578 18.2,18.9 L18.2,7.7 C18.2,6.5422 19.1422,5.6 20.3,5.6 L25.9,5.6 C27.0578,5.6 28,6.5422 28,7.7 L28,18.9 C28,20.0578 27.0578,21 25.9,21 L25.9,21 Z M20.3,7 C19.9136,7 19.6,7.3136 19.6,7.7 L19.6,18.9 C19.6,19.2864 19.9136,19.6 20.3,19.6 L25.9,19.6 C26.2864,19.6 26.6,19.2864 26.6,18.9 L26.6,7.7 C26.6,7.3136 26.2864,7 25.9,7 L20.3,7 L20.3,7 Z" id="Shape"></path>
                    <path d="M23.1,18.2 C22.9152,18.2 22.736,18.1258 22.6058,17.9942 C22.4756,17.8626 22.4,17.6834 22.4,17.5 C22.4,17.3166 22.4742,17.1346 22.6058,17.0058 C22.736,16.8756 22.9166,16.8 23.1,16.8 C23.2834,16.8 23.4654,16.8742 23.5942,17.0058 C23.7244,17.136 23.8,17.3166 23.8,17.5 C23.8,17.6834 23.7258,17.8654 23.5942,17.9942 C23.464,18.1244 23.2834,18.2 23.1,18.2 L23.1,18.2 Z" id="Shape"></path>
                </g>
            </g>
        </g>
    </g>
</svg>