<?xml version="1.0" encoding="UTF-8"?>
<svg width="59px" height="59px" viewBox="0 0 59 59" version="1.1" xmlns="http://www.w3.org/2000/svg" xmlns:xlink="http://www.w3.org/1999/xlink">
    <!-- Generator: Sketch 49 (51002) - http://www.bohemiancoding.com/sketch -->
    <title>Group 2</title>
    <desc>Created with Sketch.</desc>
    <defs></defs>
    <g id="v1.16-Roqos-Home-App" stroke="none" stroke-width="1" fill="none" fill-rule="evenodd">
        <g id="What's-New-v1.16" transform="translate(-19.000000, -308.000000)">
            <g id="Group-2" transform="translate(18.500000, 307.000000)">
                <circle id="Oval-2" fill="#AD84C7" cx="29.7567671" cy="30.2432329" r="29.2567671"></circle>
                <g id="0683-alarm" transform="translate(16.256767, 13.743233)" fill="#FFFFFF" fill-rule="nonzero">
                    <path d="M26.6237796,25.3663457 C24.5658334,23.8210871 23.3857523,21.4591261 23.3857523,18.8884923 L23.3857523,13.4917802 C23.3857523,8.97113438 20.3384089,5.14846332 16.1901362,3.97198009 L16.1901362,2.69835604 C16.1901362,1.21066241 14.9794738,0 13.4917802,0 C12.0040866,0 10.7934242,1.21066241 10.7934242,2.69835604 L10.7934242,3.97198009 C6.64515147,5.15026223 3.59780805,8.97113438 3.59780805,13.4917802 L3.59780805,18.8884923 C3.59780805,21.4591261 2.41772701,23.8192882 0.359780805,25.3663457 C0.0503693127,25.5984043 -0.0755539691,26.0031577 0.0467715047,26.3701341 C0.169096978,26.7371105 0.512687648,26.9853593 0.899452013,26.9853593 L9.08446533,26.9853593 C9.0251015,27.2803796 8.99272123,27.5807965 8.99272123,27.8848113 C8.99272123,30.3637011 11.0110915,32.3820714 13.4899813,32.3820714 C15.968871,32.3820714 17.9872414,30.3637011 17.9872414,27.8848113 C17.9872414,27.5825954 17.95666,27.2803796 17.8972962,26.9853593 L26.0823095,26.9853593 C26.4690738,26.9853593 26.8126645,26.7371105 26.93499,26.3701341 C27.0573155,26.0031577 26.9313922,25.5984043 26.6219807,25.3663457 L26.6237796,25.3663457 Z M12.5923282,2.69835604 C12.5923282,2.20185853 12.9952827,1.79890403 13.4917802,1.79890403 C13.9882777,1.79890403 14.3912322,2.20185853 14.3912322,2.69835604 L14.3912322,3.63918285 C14.094413,3.61219929 13.795795,3.59780805 13.4917802,3.59780805 C13.1877654,3.59780805 12.8891474,3.61219929 12.5923282,3.63918285 L12.5923282,2.69835604 Z M16.1901362,27.8830124 C16.1901362,29.370706 14.9794738,30.5813685 13.4917802,30.5813685 C12.0040866,30.5813685 10.7934242,29.370706 10.7934242,27.8830124 C10.7934242,27.5753998 10.8473913,27.271385 10.9481299,26.9835604 L16.0354305,26.9835604 C16.1361691,27.271385 16.1901362,27.5753998 16.1901362,27.8830124 Z M3.13369081,25.1846564 C3.59241134,24.628795 3.99176803,24.0225644 4.31916857,23.3839534 C5.03513237,21.9844061 5.39671208,20.4715278 5.39671208,18.8884923 L5.39671208,13.4917802 C5.39671208,9.02869931 9.02869931,5.39671208 13.4917802,5.39671208 C17.9548611,5.39671208 21.5868483,9.02869931 21.5868483,13.4917802 L21.5868483,18.8884923 C21.5868483,20.4715278 21.9502269,21.9844061 22.6643918,23.3839534 C22.9917924,24.0243633 23.3911491,24.628795 23.8498696,25.1846564 L3.13189191,25.1846564 L3.13369081,25.1846564 Z" id="Shape"></path>
                </g>
            </g>
        </g>
    </g>
</svg>