<?xml version="1.0" encoding="UTF-8"?>
<svg width="69px" height="69px" viewBox="0 0 69 69" version="1.1" xmlns="http://www.w3.org/2000/svg" xmlns:xlink="http://www.w3.org/1999/xlink">
    <!-- Generator: Sketch 47.1 (45422) - http://www.bohemiancoding.com/sketch -->
    <title>Group 9</title>
    <desc>Created with Sketch.</desc>
    <defs></defs>
    <g id="Page-1" stroke="none" stroke-width="1" fill="none" fill-rule="evenodd">
        <g id="Group-9" fill-rule="nonzero" fill="#8D8D8D">
            <path d="M46.2235121,22.0170338 C44.9486804,20.7808542 43.4835617,19.7397645 41.875499,18.9438524 C42.6519708,20.1237692 43.3353574,21.4891702 43.903474,23.011924 C44.7192839,22.7194034 45.4946121,22.3866298 46.2235121,22.0170338 Z" id="Shape"></path>
            <path d="M25.7534753,33.1202368 L33.1195507,33.1202368 L33.1195507,26.8787304 C30.9182132,26.7831295 28.7898344,26.4729982 26.8069154,25.9664047 C26.2131832,28.1350366 25.8413001,30.5634834 25.7534753,33.1202368 Z" id="Shape"></path>
            <path d="M26.6628278,42.0719612 C28.6896593,41.5404383 30.8697266,41.2124676 33.1195507,41.1127499 L33.1195507,35.4928783 L25.7539328,35.4928783 C25.8360398,37.8264104 26.1550908,40.0519911 26.6628278,42.0719612 Z" id="Shape"></path>
            <path d="M27.5394747,23.7094906 C29.2886517,24.1449552 31.1691085,24.4136899 33.1195507,24.5031157 L33.1195507,17.2218919 C32.7760277,17.2456778 32.4361641,17.2795269 32.0985875,17.3234393 C30.2753083,18.4290253 28.6784524,20.7108688 27.5394747,23.7094906 Z" id="Shape"></path>
            <path d="M22.1670678,46.3801787 C23.6962254,47.9171125 25.514473,49.1644989 27.5316986,50.0370291 C26.5546478,48.6430393 25.7159668,46.9595021 25.0522493,45.0513714 C24.0166487,45.4333177 23.0498899,45.877702 22.1670678,46.3801787 Z" id="Shape"></path>
            <path d="M27.5111146,18.5850058 C25.6770861,19.3811466 24.0102448,20.4890197 22.5741723,21.8416129 C23.4005029,22.284625 24.2943031,22.67389 25.2400205,23.0137537 C25.866687,21.3331898 26.6337816,19.8431416 27.5111146,18.5850058 Z" id="Shape"></path>
            <path d="M24.5166096,25.2676945 C23.2271404,24.8098163 22.0222941,24.2622836 20.9242556,23.6305856 C18.81303,26.2715044 17.4677556,29.5464084 17.2216632,33.1202368 L23.3771745,33.1202368 C23.4643131,30.2936052 23.8643276,27.6421657 24.5166096,25.2676945 Z" id="Shape"></path>
            <path d="M23.3778606,35.4928783 L17.2218919,35.4928783 C17.4544904,38.8757336 18.6691712,41.9935136 20.5887375,44.5559847 C21.7311458,43.8696248 23.0018607,43.2729195 24.3720646,42.7782189 C23.8073787,40.5514946 23.4597389,38.0969748 23.3778606,35.4928783 Z" id="Shape"></path>
            <path d="M32.1420425,51.295851 C32.4652103,51.336104 32.7908939,51.3688096 33.1195507,51.391452 L33.1195507,43.4885933 C31.0998093,43.5835082 29.1493671,43.8730555 27.341869,44.3391673 C28.4982287,47.6287087 30.1916003,50.1349171 32.1420425,51.295851 Z" id="Shape"></path>
            <path d="M44.773717,42.7688418 C45.9938869,43.2107102 47.1381249,43.7321699 48.1844749,44.3325347 C50.0095838,41.8126037 51.1652574,38.7796753 51.3912232,35.4935645 L45.7660914,35.4935645 C45.6844417,38.0933154 45.3379455,40.5450907 44.773717,42.7688418 Z" id="Shape"></path>
            <path d="M41.856516,49.6788686 C43.6450313,48.7967326 45.2560672,47.6115554 46.6269572,46.1910352 C45.8404222,45.7681497 44.9903057,45.3889479 44.0894155,45.058004 C43.4812746,46.8023781 42.7279026,48.3596671 41.856516,49.6788686 Z" id="Shape"></path>
            <path d="M34.3058714,0 C15.359732,0 0.000686131151,15.3604181 0.000686131151,34.3058714 C0.000686131151,53.2513248 15.359732,68.6131151 34.3058714,68.6131151 C53.2520109,68.6131151 68.612429,53.2522396 68.612429,34.3058714 C68.612429,15.3595032 53.2522396,0 34.3058714,0 Z M34.3065576,54.9961563 C22.8984836,54.9961563 13.6169588,45.7153176 13.6169588,34.3065576 C13.6169588,22.8977975 22.8984836,13.6169588 34.3065576,13.6169588 C45.7146315,13.6169588 54.9961563,22.8977975 54.9961563,34.3065576 C54.9961563,45.7153176 45.7146315,54.9961563 34.3065576,54.9961563 Z" id="Shape"></path>
            <path d="M37.2155249,17.4281887 C36.6496955,17.3309868 36.0749463,17.2621449 35.4924209,17.2216632 L35.4924209,24.5259867 C37.6272036,24.4630914 39.6897139,24.1801766 41.601504,23.7033155 C40.4986625,20.8016668 38.9665316,18.5701396 37.2155249,17.4281887 Z" id="Shape"></path>
            <path d="M44.6261988,25.2658648 C45.2793957,27.640336 45.6791814,30.2931478 45.7663201,33.1202368 L51.3907658,33.1202368 C51.1517635,29.6376638 49.8680121,26.4398352 47.8494142,23.8357388 C46.852237,24.3796121 45.7738675,24.858989 44.6261988,25.2658648 Z" id="Shape"></path>
            <path d="M35.4924209,51.3912232 C36.0619098,51.3525712 36.6243086,51.2851016 37.177559,51.1920165 C39.0532129,49.9885425 40.6784289,47.5321929 41.8002533,44.3425979 C39.8303708,43.8341747 37.6937584,43.532277 35.4924209,43.465951 L35.4924209,51.3912232 Z" id="Shape"></path>
            <path d="M42.3347495,25.9604582 C40.1885312,26.5098206 37.876498,26.8325309 35.4924209,26.8988569 L35.4924209,33.1202368 L43.3907053,33.1202368 C43.3021944,30.5618825 42.9296252,28.1309198 42.3347495,25.9604582 Z" id="Shape"></path>
            <path d="M43.3900192,35.4928783 L35.4924209,35.4928783 L35.4924209,41.0930808 C37.9469407,41.1589494 40.3072319,41.4869201 42.4847835,42.0552654 C42.9906908,40.0403269 43.3081409,37.8204639 43.3900192,35.4928783 Z" id="Shape"></path>
        </g>
    </g>
</svg>