<?xml version="1.0" encoding="UTF-8" standalone="no"?>
<svg width="51px" height="36px" viewBox="0 0 51 36" version="1.1" xmlns="http://www.w3.org/2000/svg" xmlns:xlink="http://www.w3.org/1999/xlink">
    <!-- Generator: Sketch 3.7 (28169) - http://www.bohemiancoding.com/sketch -->
    <title>Device Icon</title>
    <desc>Created with Sketch.</desc>
    <defs></defs>
    <g id="Device-Management" stroke="none" stroke-width="1" fill="none" fill-rule="evenodd">
        <g id="User-Profile" transform="translate(-18.000000, -326.000000)">
            <g id="Device-Icon" transform="translate(18.000000, 326.000000)">
                <path d="M41.8506772,27.0967742 L1.67402709,27.0967742 L1.67402709,2.11693548 L41.8506772,2.11693548 L41.8506772,27.0967742 L41.8506772,27.0967742 Z M42.6039894,0 L1.11928027,0 C0.524871878,0 0,0.601209677 0,1.2590121 L0,27.9600605 C0,28.6178629 0.524871878,29.2137097 1.11928027,29.2137097 L16.4666318,29.2137097 L17.3488441,29.2137097 L26.4080349,29.2137097 L27.331454,29.2137097 L42.6039894,29.2137097 C43.1985266,29.2137097 43.6534756,28.6178629 43.6534756,27.9600605 L43.6534756,1.2590121 C43.6534756,0.601209677 43.1985266,0 42.6039894,0 L42.6039894,0 Z" id="Page-1" fill="#008EA3"></path>
                <path d="M29.2394325,34.0389113 C29.2394325,34.0389113 28.4835449,33.3372177 28.0677423,32.8816532 C27.651811,32.4255242 27.5391361,31.866371 27.5391361,31.866371 L27.2101254,28 L18.0436681,28 L17.7132409,31.8680645 C17.7132409,31.8680645 17.5996646,32.4593952 17.1837333,32.9149597 C16.7678019,33.3712298 16.011528,34.0603629 16.011528,34.0603629 C16.011528,34.0603629 15.3312292,34.5864919 16.3521281,34.7521774 C16.9368787,34.8471573 19.5442403,34.9153226 21.6394783,34.9153226 L23.6175345,34.9153226 C25.7553958,34.9153226 28.3180738,34.839254 28.9026955,34.7442742 C29.9235945,34.5785887 29.2394325,34.0389113 29.2394325,34.0389113" id="Page-1" fill="#008EA3"></path>
                <path d="M49.9525731,15.8528052 C49.9525731,15.3127823 49.5543675,14.875 49.0631641,14.875 L38.6087073,14.875 C38.1175038,14.875 37.7192982,15.3127823 37.7192982,15.8528052 L37.7192982,33.7963883 C37.7192982,34.3364113 38.1175038,34.7741935 38.6087073,34.7741935 L49.0631641,34.7741935 C49.5543675,34.7741935 49.9525731,34.3364113 49.9525731,33.7963883 L49.9525731,15.8528052 L49.9525731,15.8528052 Z" id="Page-1" stroke="#008EA3" fill="#FFFFFF"></path>
            </g>
        </g>
    </g>
</svg>