<?xml version="1.0" encoding="UTF-8" standalone="no"?>
<svg width="25px" height="33px" viewBox="0 0 25 33" version="1.1" xmlns="http://www.w3.org/2000/svg" xmlns:xlink="http://www.w3.org/1999/xlink">
    <!-- Generator: Sketch 3.7 (28169) - http://www.bohemiancoding.com/sketch -->
    <title>Group</title>
    <desc>Created with Sketch.</desc>
    <defs></defs>
    <g id="Guest-Wi-Fi" stroke="none" stroke-width="1" fill="none" fill-rule="evenodd">
        <g id="Generate-Guest-Code" transform="translate(-54.000000, -191.000000)" fill="#FFFFFF">
            <g id="Group-5" transform="translate(54.000000, 191.000000)">
                <g id="share53">
                    <g id="Group">
                        <path d="M23.2651752,12.6093425 L18.1819025,12.6093425 C17.5214804,12.6093425 16.981135,13.1703148 16.981135,13.8559478 C16.981135,14.5415807 17.5214804,15.1025531 18.1819025,15.1025531 L22.0443478,15.1025531 L22.0443478,29.8540738 L2.43185886,29.8540738 L2.43185886,15.1025531 L6.69458353,15.1025531 C7.35500566,15.1025531 7.89535104,14.5415807 7.89535104,13.8559478 C7.89535104,13.1703148 7.35500566,12.6093425 6.69458353,12.6093425 L1.21110209,12.6093425 C0.550679962,12.6093425 0.0303238283,13.2326451 0.0303238283,13.918278 L0.0303238283,31.204514 C0.0303238283,31.890147 0.550679962,32.3472111 1.21110209,32.3472111 L23.2651752,32.3472111 C23.9255974,32.3472111 24.4459535,31.890147 24.4459535,31.204514 L24.4459535,13.918278 C24.4459535,13.2326451 23.9255974,12.6093425 23.2651752,12.6093425 L23.2651752,12.6093425 Z" id="Shape"></path>
                        <path d="M12.037999,21.9588824 C12.6984211,21.9588824 13.2387665,21.39791 13.2387665,20.712277 L13.2387665,3.82077495 L18.3620177,8.55787517 C18.5821819,8.76561828 18.8823738,8.8695265 19.1625058,8.8695265 C19.5027468,8.8695265 19.8229279,8.72411365 20.0630814,8.45396695 C20.5033393,7.93457251 20.4633608,7.14503136 19.9629939,6.68796719 L13.0585807,0.309527746 C12.6183228,-0.0852061619 11.97789,-0.106031804 11.5175722,0.267949792 C11.2974079,0.371858012 11.1172928,0.55884881 10.9972161,0.76659192 L5.01336774,6.72954514 C4.53306074,7.20743496 4.51307149,7.99690277 4.97331862,8.4955449 C5.43363637,8.99418703 6.19407538,9.01493934 6.67438238,8.53712285 L10.8370196,4.38174735 L10.8370196,20.712277 C10.8372315,21.39791 11.3775768,21.9588824 12.037999,21.9588824 L12.037999,21.9588824 Z" id="Shape"></path>
                    </g>
                </g>
            </g>
        </g>
    </g>
</svg>