<?xml version="1.0" encoding="UTF-8"?>
<svg width="69px" height="69px" viewBox="0 0 69 69" version="1.1" xmlns="http://www.w3.org/2000/svg" xmlns:xlink="http://www.w3.org/1999/xlink">
    <!-- Generator: Sketch 47.1 (45422) - http://www.bohemiancoding.com/sketch -->
    <title>shield-6</title>
    <desc>Created with Sketch.</desc>
    <defs></defs>
    <g id="Page-1" stroke="none" stroke-width="1" fill="none" fill-rule="evenodd">
        <g id="Cybersecurity---IPS-and-CB-Disabled" transform="translate(-153.000000, -100.000000)" fill-rule="nonzero" fill="#B90000">
            <g id="shield-6" transform="translate(153.099998, 100.000000)">
                <polygon id="Shape" points="29.2608706 27.3486892 26.2203692 30.3891907 31.3588121 35.5276336 26.2203692 40.6660765 29.2608706 43.7068073 34.3993135 38.5683644 39.5377564 43.7068073 42.5784872 40.6660765 37.4400443 35.5276336 42.5784872 30.3891907 39.5377564 27.3486892 34.3993135 32.4871321"></polygon>
                <path d="M34.3993135,0 C15.4015687,0 0.000688000031,15.4022567 0.000688000031,34.3993135 C0.000688000031,53.3963704 15.4015687,68.8000031 34.3993135,68.8000031 C53.3970584,68.8000031 68.7993151,53.3972877 68.7993151,34.3993135 C68.7993151,15.4013393 53.3972877,0 34.3993135,0 Z M34.4000015,53.408525 C16.6989074,53.408525 15.4380327,23.459425 15.4380327,23.459425 L34.3995429,15.3898727 L34.4000015,15.3898727 L53.3615117,23.459425 C53.3615117,23.4598837 52.100637,53.408525 34.4000015,53.408525 Z" id="Shape"></path>
            </g>
        </g>
    </g>
</svg>