<?xml version="1.0" encoding="UTF-8" standalone="no"?>
<svg width="35px" height="34px" viewBox="0 0 35 34" version="1.1" xmlns="http://www.w3.org/2000/svg" xmlns:xlink="http://www.w3.org/1999/xlink">
    <!-- Generator: Sketch 3.7 (28169) - http://www.bohemiancoding.com/sketch -->
    <title>Filter Icon</title>
    <desc>Created with Sketch.</desc>
    <defs></defs>
    <g id="Device-Management" stroke="none" stroke-width="1" fill="none" fill-rule="evenodd">
        <g id="User-Profile" transform="translate(-26.000000, -538.000000)" fill="#008EA3">
            <g id="Filter-Icon" transform="translate(26.000000, 538.000000)">
                <g id="_x32_7">
                    <path d="M34.742995,1.1817405 C34.4654511,0.46322122 33.8188722,0 33.0943108,0 L1.78527569,0 C1.06071429,0 0.41413534,0.46322122 0.136591481,1.1817405 C-0.140338344,1.89960179 0.0113283227,2.71879273 0.523433586,3.26820994 L12.9128196,16.5660805 L12.9128196,33.2045392 C12.9128196,33.6526268 13.2505388,34.0132024 13.6674687,34.0132024 C14.0850125,34.0132024 14.4221178,33.6519688 14.4221178,33.2045392 L14.4221178,16.2305083 C14.4221178,16.0153473 14.3422932,15.8093981 14.2010652,15.6580616 L1.59062657,2.1226586 C1.47764411,2.00093143 1.50466166,1.8693345 1.53045113,1.80222006 C1.55746867,1.73313167 1.6243985,1.62061628 1.78527569,1.62061628 L33.0949248,1.62061628 C33.2545739,1.62061628 33.3221178,1.73444763 33.3491353,1.80222006 C33.3749248,1.86999248 33.4019424,2.00158942 33.2883459,2.1226586 L20.6797494,15.6580616 C20.5385213,15.8093981 20.4586967,16.0153473 20.4586967,16.2305083 L20.4586967,28.3453223 C20.4586967,28.7934099 20.796416,29.1539855 21.2133459,29.1539855 C21.6315038,29.1539855 21.967995,28.7920939 21.967995,28.3453223 L21.967995,16.5654225 L34.357381,3.26755196 C34.8676441,2.71879273 35.0199248,1.89960179 34.742995,1.1817405 L34.742995,1.1817405 Z" id="Shape"></path>
                </g>
            </g>
        </g>
    </g>
</svg>