<?xml version="1.0" encoding="UTF-8" standalone="no"?>
<svg width="1124px" height="301px" viewBox="0 0 1124 301" version="1.1" xmlns="http://www.w3.org/2000/svg" xmlns:xlink="http://www.w3.org/1999/xlink">
    <!-- Generator: Sketch 3.7.1 (28215) - http://www.bohemiancoding.com/sketch -->
    <title>Layer 1</title>
    <desc>Created with Sketch.</desc>
    <defs></defs>
    <g id="Page-1" stroke="none" stroke-width="1" fill="none" fill-rule="evenodd">
        <g id="Layer-1" transform="translate(3.333360, -16.333360)">
            <path d="M16.5458474,74.6167792 C6.10000568,83.97512 0.87916817,95.3667958 0.87916817,108.795973 L0.87916817,241.854413 L33.6375277,241.854413 L33.6375277,115.712645 C33.7708611,108.120973 36.4833633,101.950134 41.7750342,97.2001306 C47.1958719,92.3167933 53.9792106,89.8751247 62.1208838,89.8751247 L136.379277,89.8751247 L136.379277,60.5792679 L54.3875443,60.5792679 C39.7375326,60.4459345 27.1250225,65.1251049 16.5458474,74.6167792 L16.5458474,74.6167792 Z" id="Shape" stroke="#009EB4" stroke-width="8.33334" fill="#229EB4"></path>
            <path d="M193.345989,74.6167792 C182.766814,83.97512 177.475143,95.3667958 177.475143,108.795973 L177.475143,193.837708 C177.475143,206.996052 182.69598,218.321061 193.141822,227.816902 C203.854331,237.308576 216.537674,242.05858 231.187686,242.05858 L318.671089,242.05858 C333.454434,242.05858 346.066944,237.379409 356.512786,228.016902 C367.091961,218.525228 372.383632,207.133552 372.383632,193.837708 L372.383632,108.795973 C372.383632,95.5042959 367.158628,84.1792868 356.716953,74.820946 C346.271111,65.3292717 333.591934,60.5792679 318.671089,60.5792679 L231.187686,60.5792679 C216.537674,60.4459345 203.925164,65.1251049 193.345989,74.6167792 L193.345989,74.6167792 Z M310.941916,90.2834584 C319.350256,90.2834584 326.200262,92.725127 331.487766,97.6084642 C336.91277,102.487635 339.625272,108.591806 339.625272,115.916812 L339.625272,186.921036 C339.625272,194.246042 336.91277,200.350213 331.487766,205.23355 C326.200262,210.116888 319.350256,212.55439 310.941916,212.55439 L238.921025,212.55439 C230.779352,212.55439 223.929347,210.116888 218.371009,205.23355 C213.079338,200.350213 210.366836,194.246042 210.233502,186.921036 L210.233502,115.916812 C210.366836,108.729306 213.079338,102.691802 218.371009,97.8084644 C223.929347,92.7917937 230.779352,90.2834584 238.921025,90.2834584 L310.941916,90.2834584 L310.941916,90.2834584 Z" id="Shape" stroke="#009EB4" stroke-width="8.33334" fill="#229EB4"></path>
            <path d="M603.296317,60.5792679 L472.479545,60.5792679 C457.692034,60.4459345 445.012857,65.1251049 434.433682,74.6167792 C423.854507,83.97512 418.562836,95.3709624 418.562836,108.795973 L418.562836,193.837708 C418.562836,206.996052 423.783673,218.321061 434.229515,227.816902 C444.80869,237.312743 457.554534,242.05858 472.479545,242.05858 L570.542124,242.05858 L570.542124,312.65447 L603.296317,312.65447 L603.296317,60.5792679 L603.296317,60.5792679 Z M458.642034,204.825217 C453.758697,199.537712 451.317029,193.433541 451.317029,186.516869 L451.317029,115.712645 C451.454529,108.391806 454.167031,102.287635 459.458702,97.4042974 C465.017039,92.5209601 471.867045,90.0792915 480.004551,90.0792915 L570.542124,90.0792915 L570.542124,212.558556 L476.954549,212.558556 C469.629543,212.558556 463.525372,209.979387 458.642034,204.825217 L458.642034,204.825217 Z" id="Shape" stroke="#009EB4" stroke-width="8.33334" fill="#229EB4"></path>
            <path d="M667.996369,74.6167792 C657.417193,83.97512 652.125522,95.3667958 652.125522,108.795973 L652.125522,193.837708 C652.125522,206.996052 657.34636,218.321061 667.792202,227.816902 C678.50471,237.308576 691.188054,242.05858 705.838065,242.05858 L793.321469,242.05858 C808.104814,242.05858 820.717324,237.379409 831.163166,228.016902 C841.742341,218.525228 847.034012,207.133552 847.034012,193.837708 L847.034012,108.795973 C847.034012,95.5042959 841.809008,84.1792868 831.367333,74.820946 C820.921491,65.3292717 808.238147,60.5792679 793.321469,60.5792679 L705.838065,60.5792679 C691.188054,60.4459345 678.575544,65.1251049 667.996369,74.6167792 L667.996369,74.6167792 Z M785.592296,90.2834584 C793.996469,90.2834584 800.850641,92.725127 806.138146,97.6084642 C811.56315,102.487635 814.275652,108.591806 814.275652,115.916812 L814.275652,186.921036 C814.275652,194.246042 811.56315,200.350213 806.138146,205.23355 C800.850641,210.116888 793.996469,212.55439 785.592296,212.55439 L713.571405,212.55439 C705.429732,212.55439 698.579726,210.116888 693.021389,205.23355 C687.729718,200.350213 685.017215,194.246042 684.883882,186.921036 L684.883882,115.916812 C685.017215,108.729306 687.729718,102.691802 693.021389,97.8084644 C698.579726,92.7917937 705.429732,90.2834584 713.571405,90.2834584 L785.592296,90.2834584 L785.592296,90.2834584 Z" id="Shape" stroke="#009EB4" stroke-width="8.33334" fill="#229EB4"></path>
            <path d="M905.625725,71.3626099 C897.079885,78.6876157 892.809048,87.5042895 892.809048,97.812631 L892.809048,125.683487 C892.809048,135.858495 897.013218,144.604335 905.421558,151.929341 C914.100732,159.254347 924.409074,162.91685 936.346583,162.91685 L1023.22165,162.91685 C1028.37166,162.91685 1032.37583,164.204351 1035.22583,166.779353 C1038.205,169.221022 1039.70083,172.612691 1039.70083,176.954361 L1039.70083,200.146046 C1039.83417,204.216883 1038.3425,207.608552 1035.22583,210.321054 C1032.23833,213.033557 1028.16749,214.387724 1023.01749,214.387724 L900.946555,214.387724 L900.946555,242.05858 L1028.71332,242.05858 C1040.78417,242.05858 1051.02584,238.462744 1059.43418,231.275238 C1067.98002,223.950232 1072.25086,215.200225 1072.25086,205.029383 L1072.25086,173.291858 C1072.25086,163.11685 1068.04252,154.37101 1059.63835,147.046004 C1051.22584,139.720998 1040.92167,136.058495 1028.71332,136.058495 L942.042421,136.058495 C937.159084,136.058495 933.154914,134.770994 930.038245,132.195992 C926.917409,129.34599 925.359074,125.887654 925.359074,121.816817 L925.359074,102.695968 C925.359074,98.4917983 926.850742,95.1001289 929.838245,92.5209602 C933.092414,89.808458 937.159084,88.4542902 942.042421,88.4542902 L1055.97585,88.4542902 L1055.97585,60.5792679 L936.346583,60.5792679 C924.409074,60.4459345 914.171565,64.037604 905.625725,71.3626099 L905.625725,71.3626099 Z" id="Shape" stroke="#009EB4" stroke-width="8.33334" fill="#229EB4"></path>
            <text id="®" fill="#009EB4" font-family="Helvetica" font-size="67" font-weight="normal">
                <tspan x="1072" y="65">®</tspan>
            </text>
        </g>
    </g>
</svg>