<?xml version="1.0" encoding="UTF-8"?>
<svg width="26px" height="27px" viewBox="0 0 26 27" version="1.1" xmlns="http://www.w3.org/2000/svg" xmlns:xlink="http://www.w3.org/1999/xlink">
    <!-- Generator: Sketch 47.1 (45422) - http://www.bohemiancoding.com/sketch -->
    <title>key</title>
    <desc>Created with Sketch.</desc>
    <defs></defs>
    <g id="RMA-Activation" stroke="none" stroke-width="1" fill="none" fill-rule="evenodd">
        <g id="Setup-Wi-Fi" transform="translate(-32.000000, -278.000000)" fill-rule="nonzero" fill="#008EA3">
            <g id="key" transform="translate(32.000000, 278.352384)">
                <path d="M16.9576971,0 C12.0835609,0 8.1181117,3.96544918 8.1181117,8.83958541 C8.1181117,9.92317518 8.3106375,10.9761672 8.69078529,11.9761367 L0.238652307,20.4288827 C0.117844793,20.5497412 0.0499576105,20.7135593 0.0499576105,20.8843755 L0.0499576105,25.5094899 C0.0499576105,25.8652719 0.338363202,26.1536775 0.694145162,26.1536775 L4.505635,26.1536775 C4.67629796,26.1536775 4.83996277,26.0859946 4.96077029,25.9653914 L6.24521212,24.6828907 C6.36627504,24.5620321 6.43426439,24.3980097 6.43426439,24.2269892 L6.43426439,22.6497998 L8.00946156,22.6497998 C8.36524352,22.6497998 8.65364911,22.3613942 8.65364911,22.0056123 L8.65364911,21.3742461 L9.28506631,21.3742461 C9.64079719,21.3742461 9.92925386,21.0858406 9.92925386,20.7300586 L9.92925386,19.3439137 L11.3153988,19.3439137 C11.486215,19.3439137 11.650033,19.2760265 11.7708916,19.155219 L13.8203285,17.1057821 C14.8204513,17.4862875 15.8735965,17.6790687 16.9575949,17.6790687 C21.8317312,17.6790687 25.7971804,13.7136195 25.7971804,8.83948325 C25.7972314,3.96544918 21.8318333,0 16.9576971,0 Z M16.9576971,16.3906936 C15.9032748,16.3906936 14.8834857,16.1777352 13.9265778,15.7576418 C13.6791395,15.6490427 13.4004905,15.7088079 13.2180277,15.8866223 C13.2160355,15.8885123 13.2140945,15.8900447 13.2121534,15.8920369 L11.0486517,18.0555386 L9.28516847,18.0555386 C8.92938651,18.0555386 8.64098092,18.3439442 8.64098092,18.6997261 L8.64098092,20.085871 L8.00956372,20.085871 C7.65383284,20.085871 7.36537617,20.3742766 7.36537617,20.7300586 L7.36537617,21.3614247 L5.79012792,21.3614247 C5.43439704,21.3614247 5.14594037,21.6498303 5.14594037,22.0056123 L5.14594037,23.9598334 L4.23909225,24.8652513 L1.33843488,24.8652513 L1.33843488,23.9549296 L9.21217315,16.0812424 C9.438617,15.8547986 9.438617,15.4877276 9.21217315,15.2613349 C8.9857293,15.0349421 8.61876051,15.0348399 8.39216342,15.2613349 L1.33843488,22.3151145 L1.33843488,21.1512758 L9.90458155,12.5845162 C9.90652264,12.5825751 9.908004,12.5807872 9.90979185,12.5788972 C10.0876573,12.3965877 10.1476269,12.1179387 10.0390278,11.870296 C9.619343,10.9134392 9.40664005,9.89370121 9.40664005,8.83963649 C9.40664005,4.67588931 12.7941032,1.28842618 16.9578504,1.28842618 C21.1215975,1.28842618 24.5089585,4.67583823 24.5089585,8.83963649 C24.5088563,13.0032815 21.1213421,16.3906936 16.9576971,16.3906936 Z" id="Shape"></path>
                <path d="M19.647848,3.73629802 C18.3173308,3.73629802 17.2349159,4.81871291 17.2349159,6.14923017 C17.2349159,7.47974743 18.3173308,8.56216232 19.647848,8.56216232 C20.9783653,8.56216232 22.0607802,7.47974743 22.0607802,6.14923017 C22.0607802,4.81871291 20.9784164,3.73629802 19.647848,3.73629802 Z M19.647848,7.27378722 C19.0277709,7.27378722 18.523291,6.7693073 18.523291,6.14923017 C18.523291,5.52915304 19.0277709,5.02467312 19.647848,5.02467312 C20.2679252,5.02467312 20.7724051,5.52915304 20.7724051,6.14923017 C20.7724051,6.7693073 20.2679252,7.27378722 19.647848,7.27378722 Z" id="Shape"></path>
            </g>
        </g>
    </g>
</svg>