<?xml version="1.0" encoding="UTF-8"?>
<svg width="128px" height="128px" viewBox="0 0 128 128" version="1.1" xmlns="http://www.w3.org/2000/svg" xmlns:xlink="http://www.w3.org/1999/xlink">
    <!-- Generator: Sketch 47.1 (45422) - http://www.bohemiancoding.com/sketch -->
    <title>seo</title>
    <desc>Created with Sketch.</desc>
    <defs></defs>
    <g id="Page-1" stroke="none" stroke-width="1" fill="none" fill-rule="evenodd">
        <g id="VPN-Guest-List---Disabled" transform="translate(-123.000000, -119.000000)" fill-rule="nonzero">
            <g id="seo" transform="translate(123.500000, 119.500000)">
                <circle id="Oval" fill="#00839A" cx="63.5" cy="63.5" r="63.5"></circle>
                <g id="Group" transform="translate(33.250000, 33.000000)" fill="#CDCDCD">
                    <path d="M31.85,0.2 L31.85,11.8 C31.35,11.7 30.75,11.7 30.25,11.7 C29.75,11.7 29.15,11.7 28.55,11.8 L28.55,0.2 C29.05,0.3 29.65,0.3 30.25,0.3 C30.85,0.4 31.35,0.3 31.85,0.2 Z" id="Shape"></path>
                    <path d="M18.25,16.1 C17.45,16.8 16.65,17.6 15.95,18.4 L7.75,10.2 C8.15,9.9 8.65,9.5 9.05,9.1 C9.45,8.7 9.85,8.3 10.15,7.8 L18.25,16.1 Z" id="Shape"></path>
                    <path d="M52.85,10.3 L44.65,18.5 C43.95,17.7 43.15,16.9 42.35,16.2 L50.55,8 C50.85,8.4 51.25,8.9 51.65,9.3 C51.95,9.6 52.35,9.9 52.85,10.3 Z" id="Shape"></path>
                    <path d="M11.55,30.5 C11.55,31.1 11.55,31.6 11.65,32.2 L0.05,32.2 C0.15,31.7 0.15,31.1 0.15,30.6 C0.15,30 0.15,29.5 0.05,28.9 L11.65,28.9 C11.55,29.4 11.55,29.9 11.55,30.5 Z" id="Shape"></path>
                    <path d="M52.85,50.7 C52.45,51 51.95,51.4 51.55,51.8 C51.15,52.2 50.75,52.6 50.45,53.1 L42.25,44.9 C43.15,44.2 43.85,43.4 44.55,42.6 L52.85,50.7 Z" id="Shape"></path>
                    <path d="M18.25,44.9 L10.05,53.1 C9.75,52.7 9.35,52.2 8.95,51.8 C8.55,51.4 8.15,51 7.65,50.7 L15.85,42.5 C16.55,43.4 17.35,44.2 18.25,44.9 Z" id="Shape"></path>
                    <path d="M60.35,30.5 C60.35,31.1 60.35,31.6 60.45,32.1 L48.85,32.1 C48.95,31.6 48.95,31 48.95,30.4 C48.95,29.8 48.95,29.3 48.85,28.8 L60.45,28.8 C60.35,29.4 60.35,29.9 60.35,30.5 Z" id="Shape"></path>
                    <path d="M31.95,60.8 C31.45,60.7 30.85,60.7 30.25,60.7 C29.65,60.7 29.15,60.7 28.55,60.8 L28.55,49.2 C29.05,49.3 29.65,49.3 30.25,49.3 C30.85,49.3 31.35,49.3 31.85,49.2 L31.95,60.8 Z" id="Shape"></path>
                </g>
                <circle id="Oval" fill="#FFFFFF" cx="63.5" cy="63.5" r="18.7"></circle>
                <circle id="Oval" fill="#84DBFF" cx="63.5" cy="63.5" r="11.5"></circle>
                <g id="Group" transform="translate(14.000000, 13.750000)" fill="#FFFFFF">
                    <circle id="Oval" cx="49.5" cy="9.85" r="9.7"></circle>
                    <circle id="Oval" cx="49.5" cy="89.65" r="9.7"></circle>
                    <circle id="Oval" cx="89.3" cy="49.75" r="9.7"></circle>
                    <circle id="Oval" cx="9.7" cy="49.75" r="9.7"></circle>
                    <circle id="Oval" cx="77.7" cy="21.55" r="9.7"></circle>
                    <circle id="Oval" cx="21.3" cy="77.95" r="9.7"></circle>
                    <circle id="Oval" cx="77.7" cy="77.95" r="9.7"></circle>
                    <circle id="Oval" cx="21.4" cy="21.65" r="9.7"></circle>
                </g>
            </g>
        </g>
    </g>
</svg>