<?xml version="1.0" encoding="UTF-8" standalone="no"?>
<svg width="84px" height="64px" viewBox="0 0 84 64" version="1.1" xmlns="http://www.w3.org/2000/svg" xmlns:xlink="http://www.w3.org/1999/xlink">
    <!-- Generator: Sketch 3.8.2 (29753) - http://www.bohemiancoding.com/sketch -->
    <title>0292-users2</title>
    <desc>Created with Sketch.</desc>
    <defs></defs>
    <g id="Guide-Screens" stroke="none" stroke-width="1" fill="none" fill-rule="evenodd">
        <g id="User-Profile---Guide" transform="translate(-146.000000, -115.000000)" fill="#008EA3">
            <g id="0292-users2" transform="translate(146.000000, 115.000000)">
                <path d="M77.7,63.4285714 L31.5,63.4285714 C28.0266,63.4285714 25.2,60.5827429 25.2,57.0857143 C25.2,56.8827429 25.2462,52.0537143 29.0808,47.2965714 C31.2858,44.5649143 34.293,42.3998857 38.0184,40.8606857 C42.5166,39.0001143 48.0984,38.0613714 54.6,38.0613714 C61.1016,38.0613714 66.6792,39.0043429 71.1816,40.8606857 C74.907,42.3998857 77.9142,44.5649143 80.1192,47.2965714 C83.958,52.0537143 84,56.8827429 84,57.0857143 C84,60.5827429 81.1734,63.4285714 77.7,63.4285714 L77.7,63.4285714 Z M29.4,57.0984 C29.4042,58.2612571 30.345,59.2 31.5,59.2 L77.7,59.2 C78.855,59.2 79.7958,58.2570286 79.8,57.0984 C79.7958,56.9504 79.6656,53.3138286 76.6962,49.7660571 C72.6054,44.8736 64.9656,42.2899429 54.6,42.2899429 C44.2344,42.2899429 36.5946,44.8778286 32.5038,49.7660571 C29.5344,53.3180571 29.4042,56.9504 29.4,57.0984 L29.4,57.0984 Z" id="Shape"></path>
                <path d="M54.6,33.8285714 C45.3348,33.8285714 37.8,26.2425143 37.8,16.9142857 C37.8,7.58605714 45.3348,0 54.6,0 C63.8652,0 71.4,7.58605714 71.4,16.9142857 C71.4,26.2425143 63.8652,33.8285714 54.6,33.8285714 L54.6,33.8285714 Z M54.6,4.22857143 C47.6532,4.22857143 42,9.92022857 42,16.9142857 C42,23.9083429 47.6532,29.6 54.6,29.6 C61.5468,29.6 67.2,23.9083429 67.2,16.9142857 C67.2,9.92022857 61.5468,4.22857143 54.6,4.22857143 L54.6,4.22857143 Z" id="Shape"></path>
                <path d="M18.9,63.4285714 L6.3,63.4285714 C2.8266,63.4285714 0,60.5827429 0,57.0857143 C0,56.9292571 0.0336,53.1658286 2.7846,49.4742857 C4.3722,47.3388571 6.5394,45.6516571 9.2232,44.4507429 C12.432,43.0130286 16.3968,42.2857143 21.0042,42.2857143 C21.756,42.2857143 22.4994,42.3068571 23.2176,42.3449143 C24.3768,42.4083429 25.263,43.4020571 25.2042,44.5691429 C25.1454,45.7362286 24.1542,46.6326857 22.995,46.5692571 C22.3524,46.5354286 21.6846,46.5185143 21.0084,46.5185143 C4.6536,46.5185143 4.221,56.5782857 4.2084,57.1026286 C4.2126,58.2612571 5.1534,59.2042286 6.3084,59.2042286 L18.9084,59.2042286 C20.0676,59.2042286 21.0084,60.1514286 21.0084,61.3185143 C21.0084,62.4856 20.0676,63.4328 18.9084,63.4328 L18.9,63.4285714 Z" id="Shape"></path>
                <path d="M21,38.0571429 C14.0532,38.0571429 8.4,32.3654857 8.4,25.3714286 C8.4,18.3773714 14.0532,12.6857143 21,12.6857143 C27.9468,12.6857143 33.6,18.3773714 33.6,25.3714286 C33.6,32.3654857 27.9468,38.0571429 21,38.0571429 L21,38.0571429 Z M21,16.9142857 C16.3674,16.9142857 12.6,20.7073143 12.6,25.3714286 C12.6,30.0355429 16.3674,33.8285714 21,33.8285714 C25.6326,33.8285714 29.4,30.0355429 29.4,25.3714286 C29.4,20.7073143 25.6326,16.9142857 21,16.9142857 L21,16.9142857 Z" id="Shape"></path>
            </g>
        </g>
    </g>
</svg>