<?xml version="1.0" encoding="UTF-8"?>
<svg width="28px" height="30px" viewBox="0 0 28 30" version="1.1" xmlns="http://www.w3.org/2000/svg" xmlns:xlink="http://www.w3.org/1999/xlink">
    <!-- Generator: Sketch 47.1 (45422) - http://www.bohemiancoding.com/sketch -->
    <title>0648-network-lock</title>
    <desc>Created with Sketch.</desc>
    <defs></defs>
    <g id="Page-1" stroke="none" stroke-width="1" fill="none" fill-rule="evenodd">
        <g id="Collapsed-Menu---NY" transform="translate(-24.000000, -215.000000)" fill-rule="nonzero" fill="#008EA3">
            <g id="0648-network-lock" transform="translate(24.500000, 215.333333)">
                <path d="M23.3325966,5.44110743 C20.7515953,2.86010618 17.3188924,1.4386852 13.6675094,1.4386852 C13.2704323,1.4386852 12.9481668,1.76095069 12.9481668,2.1580278 L12.9481668,14.386852 L0.7193426,14.386852 C0.322265485,14.386852 0,14.7091175 0,15.1061946 C0,18.7575776 1.42142098,22.1888418 4.00386091,24.7712818 C6.58630085,27.3537217 10.0175651,28.773704 13.6675094,28.773704 C17.3174538,28.773704 20.7501566,27.352283 23.3325966,24.7712818 C25.9135978,22.1902805 27.3350188,18.7575776 27.3350188,15.1076333 C27.3350188,11.4576889 25.9135978,8.02498605 23.3325966,5.44254611 L23.3325966,5.44110743 Z M9.21046265,23.9123867 C8.95581537,23.4534461 8.72274837,22.9628545 8.51413902,22.4478052 C9.91254103,22.772948 11.407335,22.9628545 12.9496055,23.0074537 L12.9496055,27.2558911 C11.5641516,26.9566446 10.2578255,25.7956256 9.21190134,23.9123867 L9.21046265,23.9123867 Z M14.386852,27.2573298 L14.386852,23.0088924 C15.9291225,22.9628545 17.4239165,22.772948 18.8223185,22.4478052 C18.6137091,22.9628545 18.3806421,23.4534461 18.1259948,23.9123867 C17.0800707,25.7956256 15.7723059,26.9566446 14.3882907,27.2558911 L14.386852,27.2573298 Z M14.386852,21.5687685 L14.386852,15.8255372 L20.1300833,15.8255372 C20.0754133,17.5908039 19.8178886,19.2855751 19.3805283,20.8192135 C17.8468899,21.2580125 16.1535574,21.5140985 14.386852,21.5687685 Z M21.5687685,14.386852 C21.5227306,12.8445815 21.3328242,11.3497875 21.00912,9.95138553 C21.5241693,10.1599949 22.0147609,10.3930619 22.4737015,10.6477092 C24.3569404,11.6936333 25.5179594,13.0013982 25.8172059,14.3854133 L21.5687685,14.3854133 L21.5687685,14.386852 Z M21.5687685,15.8255372 L25.8172059,15.8255372 C25.5179594,17.2109911 24.3569404,18.5173172 22.4737015,19.5632414 C22.0147609,19.8178886 21.5241693,20.0509556 21.00912,20.259565 C21.3342628,18.861163 21.5241693,17.3663691 21.5702072,15.8240985 L21.5687685,15.8255372 Z M25.0791604,10.7110113 C24.5353374,10.2362452 23.8979999,9.79313016 23.1729025,9.3902983 C22.3672388,8.94286721 21.47957,8.55873826 20.5300378,8.2436662 C20.2135271,7.29413397 19.8308368,6.4064652 19.3834057,5.60080149 C18.9805739,4.87570414 18.5374588,4.2383666 18.0626927,3.6945436 C21.2767154,4.93612892 23.8375751,7.49842727 25.0791604,10.7110113 Z M18.1245562,6.30000249 C18.3792034,6.75894307 18.6122704,7.24953473 18.8208798,7.76458403 C17.4224778,7.43944117 15.9276839,7.24953473 14.3854133,7.20493548 L14.3854133,2.95649809 C15.7708672,3.25574461 17.0771933,4.41676357 18.1231175,6.30000249 L18.1245562,6.30000249 Z M14.386852,8.64362069 C16.1521187,8.69829072 17.8468899,8.95581537 19.3805283,9.39317567 C19.8193273,10.9268141 20.0754133,12.6201466 20.1300833,14.386852 L14.386852,14.386852 L14.386852,8.64362069 Z M12.9481668,21.5687685 C11.1829001,21.5140985 9.4881289,21.2565738 7.95449047,20.8192135 C7.51569149,19.2855751 7.25960552,17.5922426 7.20493548,15.8255372 L12.9481668,15.8255372 L12.9481668,21.5687685 Z M6.32589883,20.2610037 C5.81084953,20.0523943 5.32025787,19.8193273 4.86131729,19.56468 C2.97807837,18.5187559 1.81705941,17.2109911 1.51781289,15.8269759 L5.76625028,15.8269759 C5.81228821,17.3692464 6.00219466,18.8640404 6.32589883,20.2624424 L6.32589883,20.2610037 Z M2.25585839,19.5013779 C2.7996814,19.976144 3.43701894,20.4192591 4.16211629,20.8220909 C4.96778,21.269522 5.85544877,21.653651 6.804981,21.968723 C7.12149174,22.9182552 7.50418201,23.805924 7.9516131,24.6115877 C8.35444496,25.3366851 8.79756,25.9740226 9.27232612,26.5178456 C6.05830338,25.2762603 3.49744372,22.7139619 2.25585839,19.5013779 Z M18.0626927,26.5178456 C18.5374588,25.9740226 18.9805739,25.3366851 19.3834057,24.6115877 C19.8308368,23.805924 20.2149658,22.9182552 20.5300378,21.968723 C21.47957,21.6522123 22.3672388,21.269522 23.1729025,20.8220909 C23.8979999,20.4192591 24.5353374,19.976144 25.0791604,19.5013779 C23.8375751,22.7154006 21.2752767,25.2762603 18.0626927,26.5178456 Z" id="Shape"></path>
                <path d="M10.0707964,4.43978253 L10.0707964,3.596713 C10.0707964,1.6142048 8.45659161,0 6.4740834,0 C4.4915752,0 2.8773704,1.6142048 2.8773704,3.596713 L2.8773704,4.43978253 C2.04005561,4.73615168 1.4386852,5.53606065 1.4386852,6.4740834 L1.4386852,10.790139 C1.4386852,11.9799317 2.40692034,12.9481668 3.596713,12.9481668 L9.3514538,12.9481668 C10.5412465,12.9481668 11.5094816,11.9799317 11.5094816,10.790139 L11.5094816,6.4740834 C11.5094816,5.53606065 10.9081112,4.73615168 10.0707964,4.43978253 Z M6.4740834,1.4386852 C7.66387606,1.4386852 8.6321112,2.40692034 8.6321112,3.596713 L8.6321112,4.3160556 L4.3160556,4.3160556 L4.3160556,3.596713 C4.3160556,2.40692034 5.28429074,1.4386852 6.4740834,1.4386852 Z M10.0707964,10.790139 C10.0707964,11.1872161 9.74853092,11.5094816 9.3514538,11.5094816 L3.596713,11.5094816 C3.19963589,11.5094816 2.8773704,11.1872161 2.8773704,10.790139 L2.8773704,6.4740834 C2.8773704,6.07700629 3.19963589,5.7547408 3.596713,5.7547408 L9.3514538,5.7547408 C9.74853092,5.7547408 10.0707964,6.07700629 10.0707964,6.4740834 L10.0707964,10.790139 Z" id="Shape"></path>
            </g>
        </g>
    </g>
</svg>