<?xml version="1.0" encoding="UTF-8"?>
<svg width="116px" height="116px" viewBox="0 0 116 116" version="1.1" xmlns="http://www.w3.org/2000/svg" xmlns:xlink="http://www.w3.org/1999/xlink">
    <!-- Generator: Sketch 43.1 (39012) - http://www.bohemiancoding.com/sketch -->
    <title>VPN-In Icon</title>
    <desc>Created with Sketch.</desc>
    <defs></defs>
    <g id="v1.9-Features" stroke="none" stroke-width="1" fill="none" fill-rule="evenodd">
        <g id="VPN-Guest" transform="translate(-129.000000, -140.000000)" fill-rule="nonzero">
            <g id="VPN-In-Icon" transform="translate(129.000000, 140.000000)">
                <g id="logo_other_vpns" transform="translate(0.704912, 0.443323)">
                    <g id="Ellipse_1" fill="#008EA3">
                        <g id="Ellipse_1-2">
                            <ellipse id="Oval" cx="57.6281306" cy="57.6281306" rx="57.6281306" ry="57.6281306"></ellipse>
                        </g>
                    </g>
                    <g id="VPN" transform="translate(28.196462, 56.392925)" fill="#FFFFFF">
                        <polygon id="Shape" points="12.5794868 29.9915457 6.93294794 29.9915457 0.35290868 0.273219623 6.04498416 0.273219623 9.82452228 22.2673993 9.90990341 22.2673993 13.7748227 0.273219623 19.4213615 0.273219623"></polygon>
                        <path d="M30.6233661,18.0609555 L27.7773284,18.021111 L27.7773284,29.9744695 L22.5121585,29.9744695 L22.5121585,0.273219623 L30.7941284,0.273219623 C35.8600755,0.273219623 38.2678235,3.98445284 38.2678235,8.76010417 C38.2678235,14.9189298 34.613511,18.0609555 30.6233661,18.0609555 Z M28.8417465,13.5072951 C32.2569918,13.5072951 33.258797,13.0803895 33.258797,8.75441209 C33.258797,6.37512454 32.6895895,4.50812378 30.5835216,4.50812378 L27.7773284,4.50812378 L27.7773284,13.5186793 L28.8417465,13.5072951 Z" id="Shape"></path>
                        <polygon id="Shape" points="57.2850476 0.273219623 57.2850476 29.9915457 51.9800333 29.9915457 46.7604001 12.9665479 46.675019 12.9665479 46.675019 29.9915457 41.3643125 29.9915457 41.3643125 0.273219623 46.9710069 0.273219623 51.8946522 16.7460861 51.9800333 16.7460861 51.9800333 0.273219623"></polygon>
                    </g>
                </g>
                <polygon id="Shape" fill="#FFFFFF" transform="translate(58.507660, 36.655401) rotate(-90.000000) translate(-58.507660, -36.655401) " points="70.2530721 26.6473367 68.5151572 24.9094218 49.2203461 44.2054926 49.2203461 30.0259159 46.7622471 30.0259159 46.7622471 48.4013806 65.1377118 48.4013806 65.1377118 45.9434075 50.958135 45.9434075"></polygon>
            </g>
        </g>
    </g>
</svg>