<?xml version="1.0" encoding="UTF-8"?>
<svg width="61px" height="61px" viewBox="0 0 61 61" version="1.1" xmlns="http://www.w3.org/2000/svg" xmlns:xlink="http://www.w3.org/1999/xlink">
    <!-- Generator: Sketch 47.1 (45422) - http://www.bohemiancoding.com/sketch -->
    <title>calendar-3</title>
    <desc>Created with Sketch.</desc>
    <defs></defs>
    <g id="v1.15-Roqos-Home-App" stroke="none" stroke-width="1" fill="none" fill-rule="evenodd">
        <g id="What's-New-v1.15" transform="translate(-24.000000, -226.000000)" fill-rule="nonzero">
            <g id="calendar-3" transform="translate(24.559755, 226.500000)">
                <circle id="Oval" fill="#32BEA6" cx="30" cy="30" r="30"></circle>
                <path d="M44.1817969,20.4544922 L12.5455078,20.4544922 L12.5455078,17.4888281 C12.5455078,15.8507812 13.873125,14.5226953 15.5111719,14.5226953 L41.2156641,14.5226953 C42.8537109,14.5226953 44.1817969,15.8503125 44.1817969,17.4888281 L44.1817969,20.4544922 Z" id="Shape" fill="#DF2C2C"></path>
                <path d="M15.5110547,14.5226953 C13.8730078,14.5226953 12.5453906,15.8508984 12.5453906,17.4888281 L12.5453906,20.4544922 L19.6101562,20.4544922 L25.5419531,14.5226953 L15.5110547,14.5226953 L15.5110547,14.5226953 Z" id="Shape" fill="#FA5655"></path>
                <path d="M44.1817969,41.2161328 C44.1817969,42.8541797 42.8541797,44.1817969 41.2156641,44.1817969 L15.5110547,44.1817969 C13.8730078,44.1817969 12.5453906,42.8541797 12.5453906,41.2161328 L12.5453906,20.4544922 L44.1817969,20.4544922 L44.1817969,41.2161328 Z" id="Shape" fill="#FFFFFF"></path>
                <rect id="Rectangle-path" fill="#40C9E7" x="22.9255078" y="24.4091016" width="4.94179687" height="4.44867187"></rect>
                <g id="Group" transform="translate(16.406250, 24.375000)" fill="#C9F2F8">
                    <rect id="Rectangle-path" x="6.51925781" y="5.47171875" width="4.94179688" height="4.44867187"></rect>
                    <rect id="Rectangle-path" x="12.4515234" y="5.47171875" width="4.94179687" height="4.44867187"></rect>
                    <rect id="Rectangle-path" x="0.09375" y="0.0341015625" width="5.43761719" height="4.44867187"></rect>
                    <rect id="Rectangle-path" x="12.4515234" y="0.0341015625" width="4.94179687" height="4.44867187"></rect>
                    <rect id="Rectangle-path" x="18.3834375" y="0.0341015625" width="4.94179687" height="4.44867187"></rect>
                    <rect id="Rectangle-path" x="0.09375" y="5.47171875" width="5.43761719" height="4.44867187"></rect>
                </g>
                <rect id="Rectangle-path" fill="#40C9E7" x="16.5" y="35.2855078" width="5.43761719" height="4.94179687"></rect>
                <rect id="Rectangle-path" fill="#C9F2F8" x="22.9255078" y="35.2855078" width="4.94179687" height="4.94179687"></rect>
                <g id="Group" transform="translate(16.406250, 12.539062)" fill="#3E3E3F">
                    <path d="M3.05941406,4.45511719 C3.05941406,5.270625 2.39226562,5.93824219 1.57628906,5.93824219 L1.57628906,5.93824219 C0.76078125,5.93824219 0.0931640625,5.27109375 0.0931640625,4.45511719 L0.0931640625,1.48898437 C0.0931640625,0.673476562 0.7603125,0.005859375 1.57628906,0.005859375 L1.57628906,0.005859375 C2.39179687,0.005859375 3.05941406,0.673007812 3.05941406,1.48898437 L3.05941406,4.45511719 Z" id="Shape"></path>
                    <path d="M23.8210547,4.45511719 C23.8210547,5.270625 23.1539063,5.93824219 22.3379297,5.93824219 L22.3379297,5.93824219 C21.5224219,5.93824219 20.8548047,5.27109375 20.8548047,4.45511719 L20.8548047,1.48898437 C20.8548047,0.673476562 21.5219531,0.005859375 22.3379297,0.005859375 L22.3379297,0.005859375 C23.1534375,0.005859375 23.8210547,0.673007812 23.8210547,1.48898437 L23.8210547,4.45511719 Z" id="Shape"></path>
                    <path d="M13.4404688,4.45511719 C13.4404688,5.270625 12.7733203,5.93824219 11.9573438,5.93824219 L11.9573438,5.93824219 C11.1418359,5.93824219 10.4742188,5.27109375 10.4742188,4.45511719 L10.4742188,1.48898437 C10.4742188,0.673476562 11.1418359,0.0064453125 11.9573438,0.0064453125 L11.9573438,0.0064453125 C12.7728516,0.0064453125 13.4404688,0.67359375 13.4404688,1.48957031 L13.4404688,4.45511719 Z" id="Shape"></path>
                    <circle id="Oval" cx="21.7755469" cy="25.6427344" r="9.27269531"></circle>
                </g>
                <path d="M38.1817969,28.9091016 C33.0604687,28.9091016 28.9091016,33.0605859 28.9091016,38.1817969 C28.9091016,40.7574609 29.9607422,43.0865625 31.6559766,44.7665625 L44.7670313,31.6555078 C43.0865625,29.9607422 40.7574609,28.9091016 38.1817969,28.9091016 Z" id="Shape" fill="#5B5C5F"></path>
                <circle id="Oval" fill="#F0F1F1" cx="38.1817969" cy="38.1817969" r="7.09089844"></circle>
                <path d="M38.1817969,31.0908984 C34.2653906,31.0908984 31.0908984,34.2653906 31.0908984,38.1817969 C31.0908984,40.1546484 31.8976172,41.9383594 33.1985156,43.2240234 L43.2234375,33.1991016 C41.9383594,31.8976172 40.1547656,31.0908984 38.1817969,31.0908984 Z" id="Shape" fill="#FFFFFF"></path>
                <path d="M41.4544922,41.4544922 L37.6362891,41.4544922 C37.0340625,41.4544922 36.5453906,40.9657031 36.5453906,40.3635937 L36.5453906,33.8180859 C36.5453906,33.2158594 37.0341797,32.7271875 37.6362891,32.7271875 C38.2385156,32.7271875 38.7271875,33.2158594 38.7271875,33.8180859 L38.7271875,39.2725781 L41.4544922,39.2725781 C42.0567188,39.2725781 42.5453906,39.7613672 42.5453906,40.3634766 C42.5455078,40.9658203 42.0567187,41.4544922 41.4544922,41.4544922 Z" id="Shape" fill="#DF2C2C"></path>
                <path d="M37.6364063,32.7273047 C37.0341797,32.7273047 36.5455078,33.2159766 36.5455078,33.8182031 L36.5455078,39.8765625 L38.7273047,37.6947656 L38.7273047,33.8182031 C38.7273047,33.2159766 38.2385156,32.7273047 37.6364063,32.7273047 Z" id="Shape" fill="#FA5655"></path>
            </g>
        </g>
    </g>
</svg>