<?xml version="1.0" encoding="UTF-8"?>
<svg width="612px" height="612px" viewBox="0 0 612 612" version="1.1" xmlns="http://www.w3.org/2000/svg" xmlns:xlink="http://www.w3.org/1999/xlink">
    <!-- Generator: Sketch 39.1 (31720) - http://www.bohemiancoding.com/sketch -->
    <title>info 2</title>
    <desc>Created with Sketch.</desc>
    <defs></defs>
    <g id="Page-1" stroke="none" stroke-width="1" fill="none" fill-rule="evenodd">
        <g id="info" fill="#636363">
            <g id="Group">
                <circle id="Oval" cx="312.954" cy="173.864" r="34.773"></circle>
                <polygon id="Shape" points="389.454 459 347.728 459 347.728 236.455 236.455 236.455 236.455 264.273 278.182 264.273 278.182 459 236.455 459 236.455 486.818 389.454 486.818"></polygon>
                <path d="M612,306 C612,137.004 474.995,0 306,0 C137.004,0 0,137.004 0,306 C0,474.995 137.004,612 306,612 C474.995,612 612,474.995 612,306 L612,306 Z M27.818,306 C27.818,152.36 152.36,27.818 306,27.818 C459.64,27.818 584.182,152.36 584.182,306 C584.182,459.64 459.64,584.182 306,584.182 C152.36,584.182 27.818,459.64 27.818,306 L27.818,306 Z" id="Shape"></path>
            </g>
        </g>
    </g>
</svg>