<?xml version="1.0" encoding="UTF-8"?>
<svg width="56px" height="55px" viewBox="0 0 56 55" version="1.1" xmlns="http://www.w3.org/2000/svg" xmlns:xlink="http://www.w3.org/1999/xlink">
    <!-- Generator: Sketch 47.1 (45422) - http://www.bohemiancoding.com/sketch -->
    <title>notification-3</title>
    <desc>Created with Sketch.</desc>
    <defs></defs>
    <g id="v1.14-VPN-App" stroke="none" stroke-width="1" fill="none" fill-rule="evenodd">
        <g id="Security-Alerts" transform="translate(-27.000000, -255.000000)" fill-rule="nonzero">
            <g id="notification-3" transform="translate(27.500000, 255.000000)">
                <circle id="Oval" fill="#C92F00" cx="27.3649296" cy="27.3649296" r="27.3649296"></circle>
                <path d="M53.1646066,36.5033196 L28.8433841,12.182097 L20.5467864,31.4190012 L13.7285362,36.4865372 L31.6388827,54.3968836 C41.6519883,52.8262863 49.8624293,45.8259953 53.1646066,36.5033196 Z" id="Shape" fill="#930000"></path>
                <circle id="Oval" fill="#EAA22F" cx="27.3649296" cy="39.5271443" r="3.04050023"></circle>
                <path d="M27.3649296,36.4865372 C27.344299,36.4865372 27.3242029,36.4893164 27.3035723,36.4896371 L27.3035723,42.5644377 C27.3242029,42.5647584 27.344299,42.5675376 27.3649296,42.5675376 C29.0442384,42.5675376 30.4054298,41.2063462 30.4054298,39.5270374 C30.4054298,37.8477286 29.0440246,36.4865372 27.3649296,36.4865372 Z" id="Shape" fill="#E09112"></path>
                <path d="M39.5663745,34.9519632 C37.4566026,32.8424051 36.2715728,29.9809528 36.2715728,26.9973203 L36.2715728,22.8155101 C36.2715728,20.0462006 34.7068547,17.5146239 32.2300079,16.276147 L29.3547662,14.8386331 C29.5049526,14.5390085 29.591537,14.2017571 29.591537,13.8437682 C29.591537,12.6139498 28.5946411,11.6171609 27.3649296,11.6171609 C26.1352181,11.6171609 25.1383223,12.6140567 25.1383223,13.8437682 C25.1383223,14.201864 25.2249066,14.5390085 25.375093,14.8386331 L22.4998513,16.276147 C20.0227907,17.5146239 18.4582864,20.0462006 18.4582864,22.8155101 L18.4582864,26.9973203 C18.4582864,29.9809528 17.2730429,32.8421913 15.1634847,34.9519632 L14.0049648,36.1102694 L40.7248945,36.1102694 L39.5663745,34.9519632 Z" id="Shape" fill="#FEE187"></path>
                <g id="Group" transform="translate(13.682465, 11.544580)" fill="#FFC61B">
                    <path d="M25.8839097,23.4073836 C23.7741378,21.2978254 22.589108,18.4363731 22.589108,15.4527406 L22.589108,11.2709304 C22.589108,8.50162089 21.0243899,5.97004421 18.5475431,4.73156736 L15.6723014,3.2940534 C15.8224878,2.9944288 15.9090722,2.65717742 15.9090722,2.29918856 C15.9090722,1.06937014 14.9121763,0.0725812 13.6824648,0.0725812 C13.6618342,0.0725812 13.6417381,0.0751466622 13.6211075,0.0756811335 L13.6211075,24.5659035 L27.0424296,24.5659035 L25.8839097,23.4073836 Z" id="Shape"></path>
                    <rect id="Rectangle-path" x="0.0460714245" y="21.9014573" width="27.2727868" height="3.04050023"></rect>
                </g>
                <rect id="Rectangle-path" fill="#EAA22F" x="27.3041068" y="33.446037" width="13.6972162" height="3.04050023"></rect>
            </g>
        </g>
    </g>
</svg>