<?xml version="1.0" encoding="UTF-8"?>
<svg width="28px" height="21px" viewBox="0 0 28 21" version="1.1" xmlns="http://www.w3.org/2000/svg" xmlns:xlink="http://www.w3.org/1999/xlink">
    <!-- Generator: Sketch 47.1 (45422) - http://www.bohemiancoding.com/sketch -->
    <title>0767-exit-right</title>
    <desc>Created with Sketch.</desc>
    <defs></defs>
    <g id="RMA-Activation" stroke="none" stroke-width="1" fill="none" fill-rule="evenodd">
        <g id="Expanded-Menu---NY" transform="translate(-27.000000, -402.000000)" fill="#008EA3">
            <g id="Group-6" transform="translate(27.000000, 402.000000)">
                <g id="0767-exit-right">
                    <path d="M0,18.7469636 L0,2.08299595 C0,0.93457085 0.9422,0 2.1,0 L16.1,0 C17.2578,0 18.2,0.93457085 18.2,2.08299595 L18.2,7.63765182 C18.2,8.02092308 17.8864,8.33198381 17.5,8.33198381 C17.1136,8.33198381 16.8,8.02092308 16.8,7.63765182 L16.8,2.08299595 C16.8,1.6997247 16.4864,1.38866397 16.1,1.38866397 L2.1,1.38866397 C1.7136,1.38866397 1.4,1.6997247 1.4,2.08299595 L1.4,18.7469636 C1.4,19.1302348 1.7136,19.4412955 2.1,19.4412955 L16.1,19.4412955 C16.4864,19.4412955 16.8,19.1302348 16.8,18.7469636 L16.8,13.1923077 C16.8,12.8090364 17.1136,12.4979757 17.5,12.4979757 C17.8864,12.4979757 18.2,12.8090364 18.2,13.1923077 L18.2,18.7469636 C18.2,19.8953887 17.2578,20.8299595 16.1,20.8299595 L2.1,20.8299595 C0.9422,20.8299595 0,19.8953887 0,18.7469636 L0,18.7469636 Z" id="Shape"></path>
                    <path d="M22.8956,15.07117 L27.0956,10.9051781 C27.3686,10.6343887 27.3686,10.1941822 27.0956,9.92339271 L22.8956,5.75740081 C22.6226,5.48661134 22.1788,5.48661134 21.9058,5.75740081 C21.6328,6.02819028 21.6328,6.46839676 21.9058,6.73918623 L24.9102,9.72064777 L9.1,9.72064777 C8.7136,9.72064777 8.4,10.0317085 8.4,10.4149798 C8.4,10.798251 8.7136,11.1093117 9.1,11.1093117 L24.9102,11.1093117 L21.9058,14.0907733 C21.7686,14.2268623 21.7014,14.4046113 21.7014,14.5809717 C21.7014,14.757332 21.77,14.9364696 21.9058,15.07117 C22.1788,15.3419595 22.6226,15.3419595 22.8956,15.07117 L22.8956,15.07117 Z" id="Shape"></path>
                </g>
            </g>
        </g>
    </g>
</svg>