<?xml version="1.0" encoding="UTF-8"?>
<svg width="56px" height="56px" viewBox="0 0 56 56" version="1.1" xmlns="http://www.w3.org/2000/svg" xmlns:xlink="http://www.w3.org/1999/xlink">
    <!-- Generator: Sketch 47.1 (45422) - http://www.bohemiancoding.com/sketch -->
    <title>explore</title>
    <desc>Created with Sketch.</desc>
    <defs></defs>
    <g id="v1.14-VPN-App" stroke="none" stroke-width="1" fill="none" fill-rule="evenodd">
        <g id="Security-Alerts" transform="translate(-27.000000, -150.000000)" fill-rule="nonzero">
            <g id="explore" transform="translate(27.500000, 150.500000)">
                <circle id="Oval" fill="#FFC61B" cx="27.3838684" cy="27.3838684" r="27.3838684"></circle>
                <path d="M54.456994,31.5194743 L38.8218749,15.8843551 L22.8468107,32.5088235 L15.9277843,38.8669085 L31.5702842,54.4497202 C43.3589326,52.6409943 52.6701966,43.3149686 54.456994,31.5194743 Z" id="Shape" fill="#EAA22F"></path>
                <circle id="Oval" fill="#FFFFFF" cx="27.3838684" cy="27.3838684" r="15.2132364"></circle>
                <path d="M27.3838684,12.1706319 C27.3632235,12.1706319 27.3431135,12.1721295 27.3224686,12.1721295 L27.3224686,42.5955003 C27.3431135,42.5955003 27.3632235,42.5969978 27.3838684,42.5969978 C35.7860094,42.5969978 42.5971048,35.7856885 42.5971048,27.3837614 C42.5971048,18.9818344 35.7860094,12.1706319 27.3838684,12.1706319 Z" id="Shape" fill="#D0D1D3"></path>
                <path d="M27.3838684,11.1563591 C18.4360824,11.1563591 11.1563591,18.4360824 11.1563591,27.3838684 C11.1563591,36.3316543 18.4360824,43.6113776 27.3838684,43.6113776 C36.3316543,43.6113776 43.6113776,36.3316543 43.6113776,27.3838684 C43.6113776,18.4360824 36.3316543,11.1563591 27.3838684,11.1563591 Z M37.5044541,26.3697025 C37.4386686,24.6293293 37.204836,22.93998 36.8136532,21.3542829 C37.0893103,21.4964436 37.359833,21.643418 37.619338,21.7992707 C39.7535682,23.0797875 41.0835043,24.6744699 41.4653809,26.3697025 L37.5044541,26.3697025 Z M35.4745179,26.3697025 L28.3980342,26.3697025 L28.3980342,19.2932189 C30.5383616,19.380398 32.5827386,19.7425924 34.4156393,20.3518835 C35.0251443,22.1849982 35.3873387,24.2292681 35.4745179,26.3697025 Z M28.3980342,17.2632827 L28.3980342,13.3023559 C30.0932668,13.6840185 31.6879493,15.0139546 32.968466,17.1482918 C33.1243188,17.4079037 33.2710792,17.6782125 33.41324,17.9539766 C31.8277568,17.5626868 30.1385144,17.3290681 28.3980342,17.2632827 Z M26.3697025,13.3022489 L26.3697025,17.2632827 C24.6293293,17.3290681 22.93998,17.5629007 21.3542829,17.9540835 C21.4964436,17.6784264 21.643418,17.4081177 21.7990568,17.1483988 C23.0796805,15.0139546 24.6744699,13.6840185 26.3697025,13.3022489 Z M26.3697025,19.2932189 L26.3697025,26.3697025 L19.2932189,26.3697025 C19.380398,24.2293751 19.7425924,22.1849982 20.3518835,20.3518835 C22.1849982,19.7425924 24.2292681,19.380398 26.3697025,19.2932189 Z M17.2632827,26.3697025 L13.3023559,26.3697025 C13.6840185,24.6744699 15.0139546,23.0797875 17.1485058,21.7992707 C17.4081177,21.643418 17.6784264,21.4966576 17.9541905,21.3542829 C17.5626868,22.93998 17.3290681,24.6292224 17.2632827,26.3697025 Z M17.2632827,28.3980342 C17.3290681,30.1384074 17.5629007,31.8277568 17.9540835,33.4134539 C17.6784264,33.2712931 17.4079037,33.1243188 17.1483988,32.968466 C15.0139546,31.6879493 13.6840185,30.0932668 13.3023559,28.3980342 L17.2632827,28.3980342 Z M19.2932189,28.3980342 L26.3697025,28.3980342 L26.3697025,35.4745179 C24.2293751,35.3873387 22.1849982,35.0251443 20.3520975,34.4158532 C19.7425924,32.5827386 19.380398,30.5384686 19.2932189,28.3980342 Z M26.3697025,37.5044541 L26.3697025,41.4653809 C24.6744699,41.0837182 23.0797875,39.7537821 21.7992707,37.6194449 C21.643418,37.359833 21.4966576,37.0895243 21.3544968,36.8137602 C22.93998,37.204943 24.6292224,37.4386686 26.3697025,37.5044541 Z M28.3980342,41.4654878 L28.3980342,37.504561 C30.1384074,37.4387756 31.8277568,37.204943 33.4134539,36.8137602 C33.2712931,37.0894173 33.1243188,37.359726 32.96868,37.6194449 C31.6880562,39.7537821 30.0932668,41.0837182 28.3980342,41.4654878 Z M28.3980342,35.4745179 L28.3980342,28.3980342 L35.4745179,28.3980342 C35.3873387,30.5383616 35.0251443,32.5827386 34.4158532,34.4158532 C32.5827386,35.0251443 30.5384686,35.3873387 28.3980342,35.4745179 Z M37.5044541,28.3980342 L41.4653809,28.3980342 C41.0837182,30.0932668 39.7537821,31.6879493 37.619338,32.968466 C37.359726,33.1243188 37.0894173,33.2710792 36.8136532,33.4134539 C37.204943,31.8277568 37.4386686,30.1385144 37.5044541,28.3980342 Z M40.0756496,21.0285646 C39.6408237,20.6900101 39.1724098,20.3652545 38.663134,20.0597533 C37.8425807,19.5673785 36.9483262,19.1373662 35.9991971,18.7685397 C35.6303706,17.8194105 35.2003583,16.9250491 34.7079835,16.1046027 C34.4023752,15.5954339 34.0777266,15.1269131 33.7391722,14.6920872 C36.4719967,16.0663081 38.7016426,18.295954 40.0756496,21.0285646 Z M21.0285646,14.6920872 C20.6900101,15.1269131 20.3652545,15.595327 20.0597533,16.1046027 C19.5673785,16.9250491 19.1373662,17.8194105 18.7685397,18.7685397 C17.8191966,19.1373662 16.9250491,19.5675924 16.1046027,20.0597533 C15.5954339,20.3653615 15.1269131,20.6900101 14.6920872,21.0285646 C16.0663081,18.295954 18.295954,16.0663081 21.0285646,14.6920872 Z M14.6920872,33.7391722 C15.1269131,34.0777266 15.595327,34.4024822 16.1046027,34.7079835 C16.9250491,35.2003583 17.8194105,35.6303706 18.7685397,35.9991971 C19.1373662,36.9483262 19.5673785,37.8426876 20.0597533,38.663134 C20.3653615,39.1723028 20.6900101,39.6408237 21.0285646,40.0756496 C18.295954,38.7016426 16.0663081,36.4717827 14.6920872,33.7391722 Z M33.7391722,40.0756496 C34.0777266,39.6408237 34.4024822,39.1724098 34.7079835,38.663134 C35.2003583,37.8426876 35.6303706,36.9483262 35.9991971,35.9991971 C36.9485402,35.6303706 37.8426876,35.2003583 38.663134,34.7079835 C39.1723028,34.4023752 39.6408237,34.0777266 40.0756496,33.7391722 C38.7016426,36.4717827 36.4719967,38.7016426 33.7391722,40.0756496 Z" id="Shape" fill="#FF7F4F"></path>
                <path d="M27.3838684,11.1563591 C27.3634374,11.1563591 27.3428995,11.1571079 27.3224686,11.1571079 L27.3224686,43.6106288 C27.3428995,43.6106288 27.3634374,43.6113776 27.3838684,43.6113776 C36.3316543,43.6113776 43.6113776,36.3316543 43.6113776,27.3838684 C43.6113776,18.4360824 36.3316543,11.1563591 27.3838684,11.1563591 Z M40.0756496,21.0285646 C39.6408237,20.6900101 39.1724098,20.3652545 38.663134,20.0597533 C37.8425807,19.5673785 36.9483262,19.1373662 35.9991971,18.7685397 C35.6303706,17.8194105 35.2003583,16.9250491 34.7079835,16.1046027 C34.4023752,15.5954339 34.0777266,15.1269131 33.7391722,14.6920872 C36.4719967,16.0663081 38.7016426,18.295954 40.0756496,21.0285646 Z M41.4654878,26.3697025 L37.504561,26.3697025 C37.4387756,24.6293293 37.204943,22.93998 36.8137602,21.3542829 C37.0894173,21.4964436 37.35994,21.643418 37.6194449,21.7992707 C39.7537821,23.0796805 41.0837182,24.6744699 41.4654878,26.3697025 Z M28.3980342,13.3022489 C30.0932668,13.6839116 31.6879493,15.0138476 32.968466,17.1481849 C33.1243188,17.4077968 33.2710792,17.6781055 33.41324,17.9538696 C31.8275428,17.5627937 30.1381935,17.3290681 28.3978203,17.2630687 L28.3978203,13.3022489 L28.3980342,13.3022489 L28.3980342,13.3022489 Z M28.3980342,19.2932189 C30.5383616,19.380398 32.5827386,19.7425924 34.4156393,20.3518835 C35.0249304,22.1849982 35.3871248,24.2291612 35.4743039,26.3697025 L28.3980342,26.3697025 L28.3980342,19.2932189 L28.3980342,19.2932189 Z M28.3980342,28.3980342 L35.4745179,28.3980342 C35.3873387,30.5383616 35.0251443,32.5827386 34.4158532,34.4158532 C32.5827386,35.0251443 30.5385756,35.3873387 28.3982482,35.4745179 L28.3982482,28.3980342 L28.3980342,28.3980342 Z M32.968466,37.6195519 C31.6879493,39.7537821 30.0932668,41.0837182 28.3980342,41.4654878 L28.3980342,37.504561 C30.1384074,37.4387756 31.8277568,37.204943 33.4134539,36.8137602 C33.2710792,37.0895243 33.1243188,37.35994 32.968466,37.6195519 Z M33.7391722,40.0756496 C34.0777266,39.6408237 34.4024822,39.1724098 34.7079835,38.663134 C35.2003583,37.8426876 35.6303706,36.9483262 35.9991971,35.9991971 C36.9485402,35.6303706 37.8426876,35.2003583 38.663134,34.7079835 C39.1723028,34.4023752 39.6408237,34.0777266 40.0756496,33.7391722 C38.7016426,36.4717827 36.4719967,38.7016426 33.7391722,40.0756496 Z M37.6195519,32.968466 C37.35994,33.1243188 37.0896313,33.2710792 36.8138671,33.4134539 C37.204943,31.8277568 37.4386686,30.1384074 37.504668,28.3980342 L41.4655948,28.3980342 C41.0837182,30.0932668 39.7537821,31.6880562 37.6195519,32.968466 Z" id="Shape" fill="#D35933"></path>
                <path d="M40.2076484,45.6398163 C39.596004,45.6398163 38.9846805,45.4065186 38.518192,44.9400301 L28.6791467,35.1008778 C27.7458489,34.1677939 27.7458489,32.6549421 28.6791467,31.7218582 C29.6124446,30.7884534 31.1252964,30.7884534 32.0581663,31.7218582 L41.8972116,41.5610105 C42.8305095,42.4940944 42.8305095,44.0069462 41.8972116,44.9400301 C41.4308301,45.4065186 40.8190788,45.6398163 40.2076484,45.6398163 Z" id="Shape" fill="#273B7A"></path>
                <path d="M28.6791467,31.7215373 C27.7458489,32.6546212 27.7458489,34.167473 28.6791467,35.1005569 L38.518299,44.9397092 C38.9847875,45.4064116 39.596111,45.6394954 40.2077553,45.6394954 C40.8191858,45.6394954 41.4309371,45.4061977 41.8972116,44.9397092 C41.9023461,44.9345747 41.9066249,44.9287984 41.9117593,44.92345 L28.6952989,31.7069896 C28.6899505,31.7122311 28.6842812,31.7164028 28.6791467,31.7215373 Z" id="Shape" fill="#121149"></path>
                <circle id="Oval" fill="#71E2EF" cx="27.08885" cy="30.1314545" r="6.95732103"></circle>
                <path d="M22.1849982,25.1967958 C22.1798637,25.2019303 22.1743014,25.2065299 22.1691669,25.2117714 C19.4521737,27.9287646 19.4521737,32.3339305 22.1691669,35.0509236 C24.8861601,37.7679168 29.291326,37.7679168 32.0083191,35.0509236 C32.0134536,35.0457892 32.0180533,35.0402268 32.0232947,35.0350923 L22.1849982,25.1967958 Z" id="Shape" fill="#38C6D9"></path>
                <path d="M27.08885,38.2094817 C25.0189076,38.2094817 22.9497141,37.4218746 21.373965,35.8461255 C18.2228947,32.6948413 18.2228947,27.5678537 21.373965,24.4167834 C24.5252492,21.2659271 29.6523438,21.2659271 32.803414,24.4167834 C34.3298508,25.9432202 35.1704072,27.9728355 35.1704072,30.1316684 C35.1704072,32.2902874 34.3298508,34.3197958 32.8032001,35.8463394 C31.2280928,37.4214467 29.1581505,38.2094817 27.08885,38.2094817 Z M27.08885,24.3013647 C25.5951455,24.3013647 24.1013341,24.8699009 22.9642618,26.0070802 C20.6900101,28.2813319 20.6900101,31.981791 22.9642618,34.2559357 C25.2382995,36.5304013 28.9390796,36.5304013 31.2131173,34.2559357 C32.3148901,33.1542699 32.9216139,31.6895538 32.9216139,30.1315614 C32.9216139,28.5735691 32.3148901,27.1086391 31.2131173,26.0069732 C30.0761519,24.8699009 28.5824475,24.3013647 27.08885,24.3013647 Z" id="Shape" fill="#386895"></path>
                <path d="M31.2283068,34.2402114 C31.2231723,34.2453459 31.2185727,34.2509082 31.2133312,34.2559357 C28.9392935,36.5301874 25.2385134,36.5301874 22.9644757,34.2559357 C20.690224,31.9816841 20.690224,28.2812249 22.9644757,26.0070802 C22.9696102,26.0019457 22.9751725,25.9971322 22.980307,25.9919977 L21.3900102,24.4017009 C21.3848758,24.4068354 21.3793134,24.411435 21.3741789,24.4166765 C18.2231087,27.5679607 18.2231087,32.6949483 21.3741789,35.8460185 C22.949928,37.4217676 25.0191216,38.2093747 27.0890639,38.2093747 C29.1584714,38.2093747 31.2284137,37.4214467 32.8037349,35.8460185 C32.8088694,35.8408841 32.813683,35.8353217 32.8188175,35.8301872 L31.2283068,34.2402114 Z" id="Shape" fill="#273B7A"></path>
                <g id="Group" transform="translate(31.555630, 34.657708)" fill="#386895">
                    <path d="M1.14841098,5.42307562 C0.878637089,5.42307562 0.608863198,5.32017218 0.402842376,5.11436529 C-0.00877139534,4.70264455 -0.00877139534,4.03526973 0.402842376,3.62344202 L3.68259546,0.343688942 C4.0943162,-0.0679248298 4.76169102,-0.0679248298 5.17351873,0.343688942 C5.5851325,0.755409682 5.5851325,1.4227845 5.17351873,1.83461221 L1.89376565,5.11436529 C1.68806573,5.31995824 1.4180779,5.42307562 1.14841098,5.42307562 Z" id="Shape"></path>
                    <path d="M5.37237268,9.64682338 C5.10259879,9.64682338 4.8328249,9.54391994 4.62701801,9.33811305 C4.21529727,8.92649928 4.21529727,8.25901749 4.62680407,7.84740372 L7.90655715,4.56765064 C8.31849183,4.15571596 8.98586665,4.15603687 9.39726649,4.5674367 C9.80898723,4.97905047 9.80898723,5.64653227 9.39748042,6.05814604 L6.11783431,9.33789912 C5.91192046,9.54391994 5.64214657,9.64682338 5.37237268,9.64682338 Z" id="Shape"></path>
                </g>
                <g id="Group" transform="translate(31.555630, 36.583137)" fill="#273B7A">
                    <path d="M2.05828279,0.0426803261 L0.402842376,1.69812074 C-0.00877139534,2.10984148 -0.00877139534,2.77721631 0.402842376,3.18904402 C0.608649262,3.3948509 0.878637089,3.49775434 1.14819704,3.49775434 C1.417757,3.49775434 1.68774483,3.3948509 1.89355171,3.18904402 L3.54888516,1.53371057 L2.05828279,0.0426803261 Z" id="Shape"></path>
                    <path d="M6.28224449,4.26653505 L4.62701801,5.92197547 C4.21540424,6.33358924 4.21540424,7.00107104 4.62723195,7.41268481 C4.83303883,7.61849169 5.10259879,7.72139514 5.37258661,7.72139514 C5.6423605,7.72139514 5.91213439,7.61849169 6.11794128,7.41247087 L7.77316776,5.75724439 L6.28224449,4.26653505 Z" id="Shape"></path>
                </g>
            </g>
        </g>
    </g>
</svg>