<?xml version="1.0" encoding="UTF-8"?>
<svg width="59px" height="59px" viewBox="0 0 59 59" version="1.1" xmlns="http://www.w3.org/2000/svg" xmlns:xlink="http://www.w3.org/1999/xlink">
    <!-- Generator: Sketch 47.1 (45422) - http://www.bohemiancoding.com/sketch -->
    <title>funnel-2</title>
    <desc>Created with Sketch.</desc>
    <defs></defs>
    <g id="v1.15-Roqos-Home-App" stroke="none" stroke-width="1" fill="none" fill-rule="evenodd">
        <g id="What's-New-v1.15" transform="translate(-24.000000, -127.000000)" fill-rule="nonzero">
            <g id="funnel-2" transform="translate(24.559755, 127.508475)">
                <circle id="Oval" fill="#FF764C" cx="29.0908741" cy="29.0908741" r="29.0908741"></circle>
                <g id="Group" transform="translate(26.590877, 14.659073)" fill="#FF450C">
                    <path d="M31.5908711,14.4318008 C31.5908711,13.9936195 31.5792802,13.5579382 31.5603029,13.124416 L18.4991823,0.0632953784 L5.01419851,7.0856733 L0.0513635746,24.1922436 L16.0419125,40.1827926 C25.287015,35.3109803 31.5908711,25.6083783 31.5908711,14.4318008 Z" id="Shape"></path>
                    <path d="M8.20499013,42.9619938 C10.412942,42.5227898 12.5312349,41.834836 14.5283916,40.9266553 L2.49999699,28.8982607 L0.788408143,35.5452982 L8.20499013,42.9619938 Z" id="Shape"></path>
                </g>
                <path d="M26.642127,48.4548281 C26.642127,47.1023297 29.0908741,43.557334 29.0908741,43.557334 C29.0908741,43.557334 31.5396212,47.1023297 31.5396212,48.4548281 C31.5396212,49.8073265 30.4433725,50.9035751 29.0908741,50.9035751 C27.7383757,50.9035751 26.642127,49.8073265 26.642127,48.4548281 Z" id="Shape" fill="#FFEBB4"></path>
                <path d="M29.0908741,43.557334 C29.0908741,43.557334 29.0673514,43.5914248 29.0256469,43.652902 L29.0256469,50.9001661 C29.0475787,50.9007342 29.0689423,50.9034615 29.0908741,50.9034615 C30.4433725,50.9034615 31.5396212,49.8069855 31.5396212,48.4547144 C31.5396212,47.1023297 29.0908741,43.557334 29.0908741,43.557334 Z" id="Shape" fill="#FFDC86"></path>
                <polygon id="Shape" fill="#FFFFFF" points="45.0900594 14.7223687 13.0916888 14.7223687 26.642127 28.2728069 26.642127 38.8513169 31.5396212 41.300064 31.5396212 28.2728069"></polygon>
                <polygon id="Shape" fill="#E6F3FF" points="29.0256469 14.7223687 29.0256469 40.0429064 31.5396212 41.300064 31.5396212 28.2728069 45.0900594 14.7223687"></polygon>
            </g>
        </g>
    </g>
</svg>