<?xml version="1.0" encoding="UTF-8"?>
<svg width="26px" height="28px" viewBox="0 0 26 28" version="1.1" xmlns="http://www.w3.org/2000/svg" xmlns:xlink="http://www.w3.org/1999/xlink">
    <!-- Generator: Sketch 47.1 (45422) - http://www.bohemiancoding.com/sketch -->
    <title>0104-shield</title>
    <desc>Created with Sketch.</desc>
    <defs></defs>
    <g id="Page-1" stroke="none" stroke-width="1" fill="none" fill-rule="evenodd">
        <g id="Collapsed-Menu---NY" transform="translate(-24.000000, -273.000000)" fill-rule="nonzero" fill="#008EA3">
            <g id="0104-shield" transform="translate(24.000000, 273.000000)">
                <path d="M13.0033848,27.7917566 C12.9308396,27.7917566 12.8569256,27.7794376 12.787118,27.7561684 C10.2699364,26.9171079 7.11079831,24.1275397 4.73870717,20.6481076 C2.57740774,17.4780193 4.4408921e-16,12.2246519 4.4408921e-16,5.20556162 C4.4408921e-16,4.82777908 0.306606126,4.52117295 0.684388673,4.52117295 C4.53612813,4.52117295 10.5915991,1.88490778 12.6242335,0.52981821 C12.8541881,0.376515147 13.1539503,0.376515147 13.3839049,0.52981821 C15.4165392,1.88490778 21.4720102,4.52117295 25.3237497,4.52117295 C25.7015322,4.52117295 26.0081384,4.82777908 26.0081384,5.20556162 C26.0081384,12.2246519 23.4307306,17.4766505 21.2694312,20.6481076 C18.89734,24.1261709 15.7382019,26.9171079 13.2210204,27.7561684 C13.1512127,27.7794376 13.0772988,27.7917566 13.0047536,27.7917566 L13.0033848,27.7917566 Z M1.37699001,5.86941864 C1.53166185,12.2082265 3.88459011,16.9674654 5.86931726,19.8788548 C8.29068439,23.4294632 11.1473227,25.6687829 13.0033848,26.3819159 C14.8594469,25.6687829 17.7160852,23.430832 20.1374523,19.8788548 C22.1221795,16.9674654 24.4751077,12.2082265 24.6297796,5.86941864 C22.40141,5.72980335 19.9184479,4.96328803 18.1554627,4.30901246 C16.2145364,3.59040436 14.2558161,2.67606109 13.0033848,1.91228333 C11.7509535,2.67606109 9.79223313,3.59040436 7.85130686,4.30901246 C6.08695286,4.96191926 3.60535953,5.72980335 1.37699001,5.86941864 Z" id="Shape"></path>
            </g>
        </g>
    </g>
</svg>