<?xml version="1.0" encoding="UTF-8" standalone="no"?>
<svg width="76px" height="72px" viewBox="0 0 76 72" version="1.1" xmlns="http://www.w3.org/2000/svg" xmlns:xlink="http://www.w3.org/1999/xlink">
    <!-- Generator: Sketch 3.8.2 (29753) - http://www.bohemiancoding.com/sketch -->
    <title>Group</title>
    <desc>Created with Sketch.</desc>
    <defs></defs>
    <g id="Guide-Screens" stroke="none" stroke-width="1" fill="none" fill-rule="evenodd">
        <g id="No-Port-Forwarding" transform="translate(-150.000000, -135.000000)" fill="#008EA3">
            <g id="Group" transform="translate(150.000000, 135.000000)">
                <path d="M7.12582777,50.6890432 C7.12582777,51.6944491 7.96765947,52.509348 9.00629447,52.509348 C10.0447084,52.509348 10.88654,51.6944491 10.88654,50.6890432 L10.88654,44.2944307 L35.5508598,44.2944307 L35.5508598,50.688401 C35.5508598,51.6935928 36.3929126,52.5084917 37.4313265,52.5084917 C38.4699615,52.5084917 39.3117932,51.6935928 39.3117932,50.688401 L39.3117932,44.2944307 L64.0267511,44.2944307 L64.0267511,50.6890432 C64.0267511,51.6944491 64.8688039,52.509348 65.9072178,52.509348 C66.9456317,52.509348 67.7876845,51.6944491 67.7876845,50.6890432 L67.7876845,42.4739119 C67.7876845,41.468506 66.9456317,40.6536071 65.9072178,40.6536071 L65.898815,40.6540352 L39.3117932,40.6540352 L39.3117932,34.2615633 C39.3117932,33.2563715 38.4699615,32.4412585 37.4313265,32.4412585 C36.3929126,32.4412585 35.5508598,33.2563715 35.5508598,34.2615633 L35.5508598,40.6540352 L9.01491844,40.6540352 L9.00629447,40.6536071 L8.99767051,40.6540352 L8.95654083,40.6540352 C7.91812695,40.6540352 7.07607413,41.4689341 7.07607413,42.4741259 C7.07607413,42.6154008 7.0944277,42.7521805 7.12582777,42.884251 L7.12582777,50.6890432" id="Fill-3"></path>
                <path d="M20.4186753,26.4006893 L54.1879123,26.4006893 C56.9161811,26.4006893 59.1276754,24.2599475 59.1276754,21.6189644 L59.1276754,5.32912046 C59.1276754,2.68813737 56.9161811,0.547395606 54.1879123,0.547395606 L20.4186753,0.547395606 C17.6904064,0.547395606 15.4789122,2.68813737 15.4789122,5.32912046 L15.4789122,21.6189644 C15.4789122,24.2599475 17.6904064,26.4006893 20.4186753,26.4006893" id="Fill-4"></path>
                <path d="M15.5503363,58.7697494 L2.23205913,58.7697494 C0.999274343,58.7697494 0,59.7372679 0,60.930398 L0,69.5655009 C0,70.758631 0.999274343,71.7259355 2.23205913,71.7259355 L15.5503363,71.7259355 C16.7831211,71.7259355 17.7823954,70.758631 17.7823954,69.5655009 L17.7823954,60.930398 C17.7823954,59.7372679 16.7831211,58.7697494 15.5503363,58.7697494" id="Fill-5"></path>
                <path d="M44.9604905,58.7697494 L31.6417711,58.7697494 C30.4092074,58.7697494 29.4099331,59.7372679 29.4099331,60.930398 L29.4099331,69.5655009 C29.4099331,70.758631 30.4092074,71.7259355 31.6417711,71.7259355 L44.9604905,71.7259355 C46.1930542,71.7259355 47.1923285,70.758631 47.1923285,69.5655009 L47.1923285,60.930398 C47.1923285,59.7372679 46.1930542,58.7697494 44.9604905,58.7697494" id="Fill-6"></path>
                <path d="M73.2645659,58.7697494 L59.9460676,58.7697494 C58.7132828,58.7697494 57.7142296,59.7372679 57.7142296,60.930398 L57.7142296,69.5655009 C57.7142296,70.758631 58.7132828,71.7259355 59.9460676,71.7259355 L73.2645659,71.7259355 C74.4971295,71.7259355 75.496625,70.758631 75.496625,69.5655009 L75.496625,60.930398 C75.496625,59.7372679 74.4971295,58.7697494 73.2645659,58.7697494" id="Fill-7"></path>
            </g>
        </g>
    </g>
</svg>