<?xml version="1.0" encoding="UTF-8"?>
<svg width="59px" height="59px" viewBox="0 0 59 59" version="1.1" xmlns="http://www.w3.org/2000/svg" xmlns:xlink="http://www.w3.org/1999/xlink">
    <!-- Generator: Sketch 49 (51002) - http://www.bohemiancoding.com/sketch -->
    <title>Group</title>
    <desc>Created with Sketch.</desc>
    <defs></defs>
    <g id="v1.16-Roqos-Home-App" stroke="none" stroke-width="1" fill="none" fill-rule="evenodd">
        <g id="What's-New-v1.16" transform="translate(-19.000000, -217.000000)">
            <g id="Group" transform="translate(19.000000, 216.000000)">
                <circle id="Oval-2" fill="#E97778" cx="29.5" cy="30.2432329" r="29.2567671"></circle>
                <g id="0893-funnel" transform="translate(16.500000, 15.743233)" fill="#FFFFFF" fill-rule="nonzero">
                    <path d="M23.8257996,2.188357 C23.1627626,1.73963498 22.2368549,1.34449172 21.0748658,1.01297321 C18.787723,0.359982215 15.7638724,0 12.5575191,0 C9.35116592,0 6.32564098,0.359982215 4.04017249,1.01297321 C2.87818339,1.34449172 1.95394998,1.73963498 1.28923863,2.188357 C0.222686673,2.90832143 4.4408921e-16,3.6718186 4.4408921e-16,4.18583971 L4.4408921e-16,5.02300766 C4.4408921e-16,5.73962342 0.537461819,6.92003021 1.06990063,7.7170141 L9.25907745,19.9999422 C9.67933575,20.6294924 10.0476896,21.8467346 10.0476896,22.6035345 L10.0476896,27.6265421 C10.0476896,27.9162022 10.1983799,28.1857703 10.4445073,28.3381349 C10.5784541,28.4218517 10.7308187,28.4637101 10.8848576,28.4637101 C11.0121071,28.4637101 11.141031,28.433572 11.2599088,28.3749703 L14.6085806,26.7006344 C14.8915434,26.5583158 15.0706973,26.2686557 15.0706973,25.9522062 L15.0706973,22.6035345 C15.0706973,21.8467346 15.4390512,20.6294924 15.8593095,19.9999422 L24.0484863,7.7170141 C24.5792508,6.92003021 25.118387,5.73794908 25.118387,5.02300766 L25.118387,4.18583971 C25.118387,3.6718186 24.8940259,2.90832143 23.8291483,2.188357 L23.8257996,2.188357 Z M4.50061486,2.62368433 C6.64209046,2.01255173 9.50353049,1.67433589 12.5575191,1.67433589 C15.6115078,1.67433589 18.4746222,2.0108774 20.6144234,2.62368433 C22.9216583,3.28337267 23.4407024,3.98994241 23.4407024,4.18583971 C23.4407024,4.38173701 22.9216583,5.08998109 20.6144234,5.74799509 C18.4729478,6.35912769 15.6115078,6.69734354 12.5575191,6.69734354 C9.50353049,6.69734354 6.64041612,6.36080203 4.50061486,5.74799509 C2.19338001,5.08830676 1.67433589,4.38173701 1.67433589,4.18583971 C1.67433589,3.98994241 2.19338001,3.28169834 4.50061486,2.62368433 Z M14.4645877,19.0723601 C13.8651755,19.9714784 13.3946871,21.5235878 13.3946871,22.6035345 L13.3946871,25.4348364 L11.7203512,26.2720044 L11.7203512,22.6035345 C11.7203512,21.5219135 11.2498628,19.9714784 10.6504506,19.0723601 L2.47969145,6.81622139 C2.93845948,7.01211869 3.45917794,7.1946213 4.04017249,7.35870622 C6.32731531,8.01169721 9.35116592,8.37167943 12.5575191,8.37167943 C15.7638724,8.37167943 18.7893973,8.01169721 21.0748658,7.35870622 C21.654186,7.19294696 22.1765788,7.01211869 22.6353468,6.81454705 L14.4645877,19.0706857 L14.4645877,19.0723601 Z" id="Shape"></path>
                </g>
            </g>
        </g>
    </g>
</svg>