<?xml version="1.0" encoding="UTF-8" standalone="no"?>
<svg width="38px" height="32px" viewBox="0 0 38 32" version="1.1" xmlns="http://www.w3.org/2000/svg" xmlns:xlink="http://www.w3.org/1999/xlink">
    <!-- Generator: Sketch 3.6.1 (26313) - http://www.bohemiancoding.com/sketch -->
    <title>Camera</title>
    <desc>Created with Sketch.</desc>
    <defs></defs>
    <g id="Multi-Admin" stroke="none" stroke-width="1" fill="none" fill-rule="evenodd">
        <g id="Edit-Photo-Menu" transform="translate(-80.000000, -234.000000)" fill="#FFFFFF">
            <path d="M80,262.444444 L80,244.666667 C80,243.777778 80.2839569,243.012346 80.8518708,242.37037 C81.4197847,241.728395 82.1234821,241.333333 82.962963,241.185185 L88.0740741,240.296296 L89.7037037,236.222222 C90,235.530864 90.4444444,234.987654 91.037037,234.592593 C91.6296296,234.197531 92.2962963,234 93.037037,234 L104.888889,234 C105.62963,234 106.296296,234.197531 106.888889,234.592593 C107.481481,234.987654 107.925926,235.530864 108.222222,236.222222 L109.851852,240.296296 L114.962963,241.185185 C115.802469,241.333333 116.506167,241.728395 117.074055,242.37037 C117.641944,243.012346 117.925901,243.777778 117.925926,244.666667 L117.925926,262.444444 C117.925926,263.432099 117.580247,264.271605 116.888889,264.962963 C116.197531,265.654321 115.358025,266 114.37037,266 L83.5555556,266 C82.5679012,266 81.7283951,265.654321 81.037037,264.962963 C80.345679,264.271605 80,263.432099 80,262.444444 L80,262.444444 Z M82.3703704,262.444444 C82.3703704,262.790123 82.4814878,263.07408 82.7037227,263.296315 C82.9259575,263.51855 83.2099145,263.629668 83.5555935,263.629668 L114.370408,263.629668 C114.716087,263.629668 115.000044,263.51855 115.222279,263.296315 C115.444514,263.07408 115.555631,262.790123 115.555631,262.444444 L115.555631,244.666667 C115.555631,243.975309 115.234644,243.580247 114.592668,243.481481 L108.148224,242.444444 L106.000076,237.111111 C105.802545,236.617284 105.432175,236.37037 104.888965,236.37037 L93.0371129,236.37037 C92.493903,236.37037 92.1235326,236.617284 91.9260018,237.111111 L89.7778536,242.444444 L83.3334092,243.481481 C82.6914339,243.580247 82.3704462,243.975309 82.3704462,244.666667 L82.3704462,262.444444 L82.3703704,262.444444 Z M89.4814815,251.777778 C89.4814815,249.160494 90.4074011,246.925932 92.2592403,245.074093 C94.1110795,243.222254 96.3456411,242.296334 98.962925,242.296334 C101.580209,242.296334 103.814771,243.222254 105.66661,245.074093 C107.518449,246.925932 108.444369,249.160494 108.444369,251.777778 C108.444369,254.395062 107.518449,256.629623 105.66661,258.481463 C103.814771,260.333302 101.580209,261.259221 98.962925,261.259221 C96.3456411,261.259221 94.1110795,260.333302 92.2592403,258.481463 C90.4074011,256.629623 89.4814815,254.395062 89.4814815,251.777778 L89.4814815,251.777778 Z M91.8518519,252.333352 C92,254.283982 92.8271542,255.901272 94.3333144,257.185223 C95.8394746,258.469174 97.5678696,259.037075 99.5184996,258.888927 C101.469129,258.740779 103.08642,257.913624 104.37037,256.407464 C105.654321,254.901304 106.222222,253.172909 106.074074,251.222279 C105.925926,249.271649 105.098772,247.654359 103.592612,246.370408 C102.086451,245.086458 100.358056,244.518556 98.4074264,244.666705 C96.4567964,244.814853 94.8395062,245.642007 93.5555556,247.148167 C92.2716049,248.654327 91.7037037,250.382722 91.8518519,252.333352 L91.8518519,252.333352 Z M94.2222222,251.777778 C94.2222222,250.493827 94.679006,249.382716 95.5925736,248.444444 C96.5061412,247.506173 97.6296043,247.037037 98.962963,247.037037 C99.3580247,247.037037 99.5555556,247.234568 99.5555556,247.62963 C99.5555556,248.024691 99.3580247,248.222222 98.962963,248.222222 C97.9753086,248.222222 97.1358025,248.567901 96.4444444,249.259259 C95.7530864,249.950617 95.4074074,250.790123 95.4074074,251.777778 C95.4074074,252.17284 95.2098765,252.37037 94.8148148,252.37037 C94.4197531,252.37037 94.2222222,252.17284 94.2222222,251.777778 L94.2222222,251.777778 Z" id="Camera"></path>
        </g>
    </g>
</svg>