<?xml version="1.0" encoding="UTF-8"?>
<svg width="25px" height="25px" viewBox="0 0 25 25" version="1.1" xmlns="http://www.w3.org/2000/svg" xmlns:xlink="http://www.w3.org/1999/xlink">
    <!-- Generator: Sketch 43 (38999) - http://www.bohemiancoding.com/sketch -->
    <title>VPN Icon</title>
    <desc>Created with Sketch.</desc>
    <defs></defs>
    <g id="Page-1" stroke="none" stroke-width="1" fill="none" fill-rule="evenodd">
        <g id="Devices" transform="translate(-64.000000, -255.000000)" fill-rule="nonzero">
            <g id="VPN-Icon" transform="translate(63.368794, 254.333333)">
                <circle id="Oval" fill="#575757" cx="13.1312057" cy="13.1666667" r="12.5"></circle>
                <polygon id="Shape" fill="#FFFFFF" points="7.91843972 18.3421986 6.15957447 18.3421986 4.10992908 9.08510638 5.88297872 9.08510638 7.06028369 15.9361702 7.08687943 15.9361702 8.29078014 9.08510638 10.0496454 9.08510638"></polygon>
                <path d="M13.5390071,14.6258865 L12.6524823,14.6134752 L12.6524823,18.3368794 L11.0124113,18.3368794 L11.0124113,9.08510638 L13.5921986,9.08510638 C15.1702128,9.08510638 15.9202128,10.2411348 15.9202128,11.7287234 C15.9202128,13.6471631 14.7819149,14.6258865 13.5390071,14.6258865 Z M12.9840426,13.2074468 C14.0478723,13.2074468 14.3599291,13.0744681 14.3599291,11.7269504 C14.3599291,10.9858156 14.1826241,10.4042553 13.5265957,10.4042553 L12.6524823,10.4042553 L12.6524823,13.2109929 L12.9840426,13.2074468 Z" id="Shape" fill="#FFFFFF"></path>
                <polygon id="Shape" fill="#FFFFFF" points="21.8439716 9.08510638 21.8439716 18.3421986 20.1914894 18.3421986 18.5656028 13.0390071 18.5390071 13.0390071 18.5390071 18.3421986 16.8847518 18.3421986 16.8847518 9.08510638 18.6312057 9.08510638 20.1648936 14.2163121 20.1914894 14.2163121 20.1914894 9.08510638"></polygon>
            </g>
        </g>
    </g>
</svg>