<?xml version="1.0" encoding="UTF-8"?>
<svg width="43px" height="42px" viewBox="0 0 43 42" version="1.1" xmlns="http://www.w3.org/2000/svg" xmlns:xlink="http://www.w3.org/1999/xlink">
    <!-- Generator: Sketch 47.1 (45422) - http://www.bohemiancoding.com/sketch -->
    <title>0647-network</title>
    <desc>Created with Sketch.</desc>
    <defs></defs>
    <g id="Page-1" stroke="none" stroke-width="1" fill="none" fill-rule="evenodd">
        <g id="VPN-Out---Another-Roqos-Core" transform="translate(-296.000000, -113.000000)" fill-rule="nonzero" fill="#008EA3">
            <g id="0647-network" transform="translate(296.730000, 113.219448)">
                <path d="M35.6227311,6.11064483 C31.6822218,2.17013555 26.4413884,0 20.866688,0 C15.2919875,0 10.0533506,2.17013555 6.11284133,6.11064483 C2.17233204,10.0511541 0.00219649347,15.2919875 0.00219649347,20.8644915 C0.00219649347,26.4391919 2.17233204,31.6778288 6.11284133,35.6183381 C10.0533506,39.5588474 15.294184,41.7289829 20.866688,41.7289829 C26.4391919,41.7289829 31.6800253,39.5588474 35.6227311,35.6183381 C39.5632404,31.6778288 41.7333759,26.4369954 41.7333759,20.8644915 C41.7333759,15.2919875 39.5632404,10.0511541 35.6227311,6.11064483 Z M32.9298301,19.7684412 C32.8595423,17.4138002 32.5696052,15.1316435 32.0731976,12.9966519 C32.8595423,13.3151434 33.6085466,13.6709754 34.309228,14.0597547 C37.1844379,15.6566054 38.9570082,17.653218 39.4138788,19.7662447 L32.9276336,19.7662447 L32.9298301,19.7684412 Z M30.7333366,19.7684412 L21.9649347,19.7684412 L21.9649347,11.0000393 C24.6600322,11.083506 27.2475015,11.4766784 29.5889635,12.1444124 C30.258894,14.4858744 30.6498699,17.0711472 30.7333366,19.7684412 Z M21.9649347,8.80354583 L21.9649347,2.31730061 C24.0801579,2.77417125 26.074574,4.54674148 27.6714247,7.42195143 C28.0602041,8.12263285 28.416036,8.87163712 28.7345276,9.65798178 C26.5995359,9.16157426 24.3173792,8.87163712 21.9627382,8.80354583 L21.9649347,8.80354583 Z M19.7684412,2.31510412 L19.7684412,8.80134933 C17.4138002,8.87163712 15.1316435,9.16157426 12.9966519,9.65578529 C13.3151434,8.86944063 13.6709754,8.12043636 14.0597547,7.41975494 C15.6566054,4.54454499 17.653218,2.77197476 19.7662447,2.31510412 L19.7684412,2.31510412 Z M19.7684412,11.0000393 L19.7684412,19.7684412 L11.0000393,19.7684412 C11.083506,17.0733437 11.4766784,14.4858744 12.1444124,12.1444124 C14.4858744,11.4744819 17.0711472,11.083506 19.7684412,11.0000393 Z M8.80354583,19.7684412 L2.31730061,19.7684412 C2.77417125,17.653218 4.54674148,15.6588019 7.42195143,14.0619512 C8.12263285,13.6731718 8.87163712,13.3173399 9.65798178,12.9988484 C9.16157426,15.13384 8.87163712,17.4159967 8.80354583,19.7706377 L8.80354583,19.7684412 Z M8.80354583,21.9649347 C8.87383362,24.3195757 9.16377075,26.6017324 9.65798178,28.7367241 C8.87163712,28.4182325 8.12263285,28.0624006 7.42195143,27.6736212 C4.54674148,26.0767705 2.77417125,24.0801579 2.31730061,21.9671312 L8.80354583,21.9671312 L8.80354583,21.9649347 Z M11.0000393,21.9649347 L19.7684412,21.9649347 L19.7684412,30.7333366 C17.0733437,30.6498699 14.4858744,30.2566975 12.1444124,29.5889635 C11.4744819,27.2475015 11.083506,24.6622287 11.0000393,21.9649347 Z M19.7684412,32.9298301 L19.7684412,39.4160753 C17.653218,38.9592047 15.6588019,37.1866344 14.0619512,34.3114245 C13.6731718,33.6107431 13.3173399,32.8617388 12.9988484,32.0753941 C15.13384,32.5718017 17.4159967,32.8617388 19.7706377,32.9320266 L19.7684412,32.9298301 Z M21.9649347,39.4182718 L21.9649347,32.9320266 C24.3195757,32.8617388 26.6017324,32.5718017 28.7367241,32.0753941 C28.4182325,32.8617388 28.0624006,33.6107431 27.6736212,34.3114245 C26.0767705,37.1866344 24.0801579,38.9592047 21.9671312,39.4160753 L21.9649347,39.4182718 Z M21.9649347,30.7333366 L21.9649347,21.9649347 L30.7333366,21.9649347 C30.6498699,24.6600322 30.2566975,27.2475015 29.5889635,29.5889635 C27.2475015,30.258894 24.6622287,30.6498699 21.9649347,30.7333366 Z M32.9298301,21.9649347 L39.4160753,21.9649347 C38.9592047,24.0801579 37.1866344,26.074574 34.3114245,27.6714247 C33.6107431,28.0602041 32.8617388,28.416036 32.0753941,28.7345276 C32.5718017,26.5995359 32.8617388,24.3173792 32.9298301,21.9627382 L32.9298301,21.9649347 Z M38.2892742,14.1564004 C37.4589996,13.4315576 36.485953,12.7550376 35.3789203,12.1400194 C34.148884,11.4569099 32.7936475,10.8704462 31.3439618,10.3894141 C30.8607332,8.93972842 30.276466,7.58449195 29.5933565,6.35445561 C28.9783383,5.2474229 28.3018184,4.27437629 27.5769755,3.44410176 C32.4839419,5.33967562 36.3937003,9.25163049 38.2892742,14.1564004 Z M14.1564004,3.44410176 C13.4315576,4.27437629 12.7550376,5.2474229 12.1400194,6.35445561 C11.4569099,7.58449195 10.8704462,8.93972842 10.3894141,10.3894141 C8.93972842,10.8726427 7.58449195,11.4569099 6.35445561,12.1400194 C5.2474229,12.7550376 4.27437629,13.4315576 3.44410176,14.1564004 C5.33967562,9.249434 9.25163049,5.33967562 14.1564004,3.44410176 Z M3.44410176,27.5769755 C4.27437629,28.3018184 5.2474229,28.9783383 6.35445561,29.5933565 C7.58449195,30.276466 8.93972842,30.8629297 10.3894141,31.3439618 C10.8726427,32.7936475 11.4569099,34.148884 12.1400194,35.3789203 C12.7550376,36.485953 13.4315576,37.4589996 14.1564004,38.2892742 C9.249434,36.3937003 5.33967562,32.4817454 3.44410176,27.5769755 Z M27.5769755,38.2892742 C28.3018184,37.4589996 28.9783383,36.485953 29.5933565,35.3789203 C30.276466,34.148884 30.8629297,32.7936475 31.3439618,31.3439618 C32.7936475,30.8607332 34.148884,30.276466 35.3789203,29.5933565 C36.485953,28.9783383 37.4589996,28.3018184 38.2892742,27.5769755 C36.3937003,32.4839419 32.4817454,36.3937003 27.5769755,38.2892742 Z" id="Shape"></path>
            </g>
        </g>
    </g>
</svg>