<?xml version="1.0" encoding="UTF-8"?>
<svg width="27px" height="20px" viewBox="0 0 27 20" version="1.1" xmlns="http://www.w3.org/2000/svg" xmlns:xlink="http://www.w3.org/1999/xlink">
    <!-- Generator: Sketch 47.1 (45422) - http://www.bohemiancoding.com/sketch -->
    <title>Shape</title>
    <desc>Created with Sketch.</desc>
    <defs></defs>
    <g id="RMA-Activation" stroke="none" stroke-width="1" fill="none" fill-rule="evenodd">
        <g id="Setup-Wi-Fi" transform="translate(-29.000000, -207.000000)" fill-rule="nonzero" fill="#008EA3">
            <g id="wifi-connection-signal-symbol" transform="translate(29.726011, 206.674256)">
                <path d="M13.1248268,15.1272612 C11.8059056,15.1272612 10.7355059,16.1976609 10.7355059,17.5165821 C10.7355059,18.8355034 11.8059483,19.9059031 13.1248268,19.9059031 C14.4437053,19.9059031 15.5141478,18.8355034 15.5141478,17.5165821 C15.5141478,16.1976609 14.4437053,15.1272612 13.1248268,15.1272612 Z M25.9267852,6.77338078 C22.73149,2.97116812 18.0651168,0.791292715 13.1248268,0.791292715 C8.18453691,0.791292715 3.51893318,2.97116812 0.322825747,6.77338078 C-0.101708708,7.27833309 -0.03638256,8.03176418 0.469382052,8.45625588 C0.69314976,8.64419682 0.964757755,8.73662819 1.236323,8.73662819 C1.57719039,8.73662819 1.91570638,8.59165373 2.1522144,8.31051188 C4.89197936,5.05070291 8.89170956,3.18065642 13.1247841,3.18065642 C17.3578586,3.18065642 21.3575888,5.05070291 24.097311,8.30974233 C24.3338618,8.59088418 24.672335,8.73585864 25.0132452,8.73585864 C25.2848532,8.73585864 25.5572307,8.64423957 25.7809984,8.45548634 C26.2859507,8.03172143 26.3513196,7.27752079 25.9267852,6.77338078 Z M13.1248268,5.56993462 C9.59580401,5.56993462 6.26348644,7.12694573 3.98091901,9.84204237 C3.55642731,10.3469947 3.6217107,11.1004258 4.12747531,11.5249175 C4.35124302,11.7128584 4.62362057,11.8052898 4.89522856,11.8052898 C5.23609595,11.8052898 5.57461195,11.6603153 5.81035042,11.3791735 C7.63657537,9.20571097 10.3030622,7.95925558 13.1248696,7.95925558 C15.946677,7.95925558 18.613121,9.20571097 20.4401583,11.3791735 C20.6767091,11.6611276 21.0151823,11.8052898 21.3552374,11.8052898 C21.6268454,11.8052898 21.8992229,11.7136707 22.1230334,11.5249175 C22.6287553,11.1004258 22.6940387,10.3462251 22.2695897,9.84204237 C19.9861672,7.12698849 16.6538496,5.56993462 13.1248268,5.56993462 Z M13.1248268,10.3485765 C11.0063016,10.3485765 9.00641509,11.2828088 7.63815722,12.9115163 C7.21362276,13.4164686 7.27894891,14.1698997 7.78471352,14.5943914 C8.00848123,14.7823323 8.28085877,14.8747209 8.55246677,14.8747209 C8.89333416,14.8747209 9.23185016,14.7297892 9.46758862,14.4486474 C10.3811286,13.3614886 11.7143293,12.7378547 13.1248268,12.7378547 C14.5353244,12.7378547 15.8685678,13.3614886 16.782065,14.4486474 C17.0186158,14.7306015 17.357089,14.8747209 17.6971869,14.8747209 C17.9687949,14.8747209 18.2411724,14.7831446 18.4649401,14.5943914 C18.9707048,14.1698569 19.0359881,13.4164258 18.6114964,12.9115163 C17.2431958,11.2828088 15.2433093,10.3485765 13.1248268,10.3485765 Z" id="Shape"></path>
            </g>
        </g>
    </g>
</svg>