<?xml version="1.0" encoding="UTF-8"?>
<svg width="28px" height="26px" viewBox="0 0 28 26" version="1.1" xmlns="http://www.w3.org/2000/svg" xmlns:xlink="http://www.w3.org/1999/xlink">
    <!-- Generator: Sketch 47.1 (45422) - http://www.bohemiancoding.com/sketch -->
    <title>0475-bubble-question</title>
    <desc>Created with Sketch.</desc>
    <defs></defs>
    <g id="Menu-&amp;-New-RC-Activation" stroke="none" stroke-width="1" fill="none" fill-rule="evenodd">
        <g id="Collapsed-Menu---LA" transform="translate(-22.000000, -375.000000)" fill="#008EA3">
            <g id="Group-4" transform="translate(22.000000, 374.000000)">
                <g id="0475-bubble-question">
                    <path d="M0.736842105,26.5263158 C0.405263158,26.5263158 0.114947368,26.3052632 0.0265263158,25.9854737 C-0.0618947368,25.6656842 0.0736842105,25.3267368 0.358105263,25.1572632 C2.85010526,23.6629474 3.88315789,21.4892632 4.25010526,20.4724211 C1.54147368,18.3989474 -1.77630263e-15,15.5296842 -1.77630263e-15,12.5263158 C-1.77630263e-15,11.0098947 0.380210526,9.54063158 1.13178947,8.15831579 C1.848,6.84084211 2.87073684,5.66042105 4.16905263,4.64947368 C6.80252632,2.60105263 10.2936842,1.47221053 14,1.47221053 C17.7063158,1.47221053 21.1974737,2.60105263 23.8309474,4.64947368 C25.1292632,5.65894737 26.152,6.83936842 26.8682105,8.15831579 C27.6197895,9.53915789 28,11.0084211 28,12.5263158 C28,14.0442105 27.6197895,15.512 26.8682105,16.8943158 C26.152,18.2117895 25.1292632,19.3922105 23.8309474,20.4031579 C21.1974737,22.4515789 17.7063158,23.5804211 14,23.5804211 C12.4776842,23.5804211 10.9833684,23.3903158 9.55536842,23.0130526 C8.92315789,23.4345263 7.74126316,24.1816842 6.32947368,24.8846316 C4.13663158,25.9751579 2.25621053,26.5277895 0.738315789,26.5277895 L0.736842105,26.5263158 Z M14,2.94736842 C7.09284211,2.94736842 1.47368421,7.24463158 1.47368421,12.5263158 C1.47368421,15.2010526 2.95473684,17.7755789 5.53515789,19.5882105 C5.78863158,19.7665263 5.90357895,20.0833684 5.824,20.3825263 C5.65157895,21.0250526 5.06505263,22.7890526 3.49557895,24.4911579 C5.41431579,23.8191579 7.48042105,22.6534737 9.00568421,21.6042105 C9.18694737,21.4789474 9.41389474,21.4421053 9.62610526,21.5025263 C11.0231579,21.9018947 12.4953684,22.1052632 14,22.1052632 C20.9071579,22.1052632 26.5263158,17.808 26.5263158,12.5263158 C26.5263158,7.24463158 20.9071579,2.94736842 14,2.94736842 L14,2.94736842 Z" id="Shape"></path>
                    <path d="M14,16.2105263 C13.5932632,16.2105263 13.2631579,15.8804211 13.2631579,15.4736842 L13.2631579,12.5263158 C13.2631579,12.1195789 13.5932632,11.7894737 14,11.7894737 C15.2187368,11.7894737 16.2105263,10.7976842 16.2105263,9.57894737 C16.2105263,8.36021053 15.2187368,7.36842105 14,7.36842105 C12.7812632,7.36842105 11.7894737,8.36021053 11.7894737,9.57894737 C11.7894737,9.98568421 11.4593684,10.3157895 11.0526316,10.3157895 C10.6458947,10.3157895 10.3157895,9.98568421 10.3157895,9.57894737 C10.3157895,7.54821053 11.9692632,5.89473684 14,5.89473684 C16.0307368,5.89473684 17.6842105,7.54821053 17.6842105,9.57894737 C17.6842105,11.3576842 16.4168421,12.8461053 14.7368421,13.1894737 L14.7368421,15.4736842 C14.7368421,15.8804211 14.4067368,16.2105263 14,16.2105263 L14,16.2105263 Z" id="Shape"></path>
                    <path d="M14,19.1578947 C13.8054737,19.1578947 13.6153684,19.0797895 13.4797895,18.9412632 C13.3442105,18.8027368 13.2631579,18.6141053 13.2631579,18.4210526 C13.2631579,18.2265263 13.3412632,18.0364211 13.4797895,17.9008421 C13.6183158,17.7652632 13.8069474,17.6842105 14,17.6842105 C14.1930526,17.6842105 14.3846316,17.7623158 14.5202105,17.9008421 C14.6572632,18.0378947 14.7368421,18.228 14.7368421,18.4210526 C14.7368421,18.6141053 14.6587368,18.8042105 14.5202105,18.9412632 C14.3831579,19.0783158 14.1930526,19.1578947 14,19.1578947 L14,19.1578947 Z" id="Shape"></path>
                </g>
            </g>
        </g>
    </g>
</svg>