<?xml version="1.0" encoding="UTF-8"?>
<svg width="58px" height="57px" viewBox="0 0 58 57" version="1.1" xmlns="http://www.w3.org/2000/svg" xmlns:xlink="http://www.w3.org/1999/xlink">
    <!-- Generator: Sketch 43.1 (39012) - http://www.bohemiancoding.com/sketch -->
    <title>VPN-In Icon</title>
    <desc>Created with Sketch.</desc>
    <defs></defs>
    <g id="Page-1" stroke="none" stroke-width="1" fill="none" fill-rule="evenodd">
        <g id="VPN-Out---Disabled" transform="translate(-158.000000, -92.000000)" fill-rule="nonzero">
            <g id="VPN-In-Icon" transform="translate(158.500000, 92.000000)">
                <g id="logo_other_vpns" transform="translate(0.347065, 0.218271)">
                    <g id="Ellipse_1" fill="#9F9F9F">
                        <g id="Ellipse_1-2">
                            <ellipse id="Oval" cx="28.3733651" cy="28.3733651" rx="28.3733651" ry="28.3733651"></ellipse>
                        </g>
                    </g>
                    <g id="VPN" transform="translate(13.882604, 27.765208)" fill="#FFFFFF">
                        <polygon id="Shape" points="6.19354416 14.7664182 3.41345556 14.7664182 0.173755537 0.134520416 2.97626421 0.134520416 4.83712996 10.9634139 4.87916759 10.9634139 6.78207098 0.134520416 9.56215957 0.134520416"></polygon>
                        <path d="M15.0774966,8.89236 L13.6762423,8.87274244 L13.6762423,14.7580106 L11.0839218,14.7580106 L11.0839218,0.134520416 L15.1615719,0.134520416 C17.6558046,0.134520416 18.8412658,1.96175607 18.8412658,4.31306084 C18.8412658,7.34537522 17.0420552,8.89236 15.0774966,8.89236 Z M14.2003114,6.65035307 C15.8818166,6.65035307 16.3750581,6.44016492 16.3750581,4.31025833 C16.3750581,3.13880971 16.0948073,2.21958686 15.0578791,2.21958686 L13.6762423,2.21958686 L13.6762423,6.65595809 L14.2003114,6.65035307 Z" id="Shape"></path>
                        <polygon id="Shape" points="28.2044472 0.134520416 28.2044472 14.7664182 25.5925092 14.7664182 23.0226087 6.38411475 22.9805711 6.38411475 22.9805711 14.7664182 20.3658305 14.7664182 20.3658305 0.134520416 23.1263015 0.134520416 25.5504715 8.2449805 25.5925092 8.2449805 25.5925092 0.134520416"></polygon>
                    </g>
                </g>
                <polygon id="Shape" fill="#FFFFFF" transform="translate(28.806404, 18.047385) rotate(-180.000000) translate(-28.806404, -18.047385) " points="34.5892889 13.1198879 33.7336218 12.2642208 24.2337697 21.7646931 24.2337697 14.7833404 23.0235181 14.7833404 23.0235181 23.8305499 32.0707275 23.8305499 32.0707275 22.6203602 25.0893748 22.6203602"></polygon>
            </g>
        </g>
    </g>
</svg>