<?xml version="1.0" encoding="UTF-8" standalone="no"?>
<svg width="26px" height="28px" viewBox="0 0 26 28" version="1.1" xmlns="http://www.w3.org/2000/svg" xmlns:xlink="http://www.w3.org/1999/xlink">
    <!-- Generator: Sketch 3.7 (28169) - http://www.bohemiancoding.com/sketch -->
    <title>new-user</title>
    <desc>Created with Sketch.</desc>
    <defs></defs>
    <g id="Multi-Admin" stroke="none" stroke-width="1" fill="none" fill-rule="evenodd">
        <g id="Users" transform="translate(-341.000000, -31.000000)" fill="#FFFFFF">
            <g id="new-user" transform="translate(341.000000, 31.000000)">
                <g id="Group">
                    <path d="M11.2316148,14.1920654 C15.3808778,14.1918366 16.8738074,10.2441111 17.2646259,7.0013268 C17.7460593,3.00656863 15.7580222,0 11.2316148,0 C6.70578519,0 4.71673704,3.00633987 5.19855556,7.0013268 C5.58975926,10.2441111 7.08225556,14.1923399 11.2316148,14.1920654 L11.2316148,14.1920654 Z" id="Shape"></path>
                    <path d="M20.3044111,15.8353268 C20.4379259,15.8353268 20.5705741,15.8391242 20.7023074,15.8460784 C20.5048519,15.5784314 20.2762926,15.3423529 20.0088296,15.1525752 C19.2115444,14.5871307 18.1789593,14.4016078 17.2661185,14.0607582 C16.8217593,13.8949085 16.423863,13.7301569 16.0503296,13.5425752 C14.7896185,14.8563333 13.1456,15.5435686 11.2311333,15.5437516 C9.31729259,15.5437516 7.67341852,14.8565163 6.41285185,13.5425752 C6.03931852,13.7302026 5.64132593,13.8949085 5.19706296,14.0607582 C4.28422222,14.4016536 3.25168519,14.5871307 2.45435185,15.1525752 C1.07548519,16.1305163 0.719140741,18.3304837 0.439159259,19.8311373 C0.208096296,21.0699085 0.0528666667,22.3340719 0.00755925926,23.5923333 C-0.0275407407,24.5669804 0.478881481,24.7036405 1.33697778,24.9978693 C2.4114037,25.3660784 3.52078519,25.6394444 4.63762963,25.8635359 C6.79452222,26.2963464 9.01781111,26.628915 11.2315185,26.6437843 C12.304163,26.6365098 13.3789741,26.5542941 14.4474296,26.4226667 C13.6563074,25.3334575 13.1923037,24.0140719 13.1923037,22.5934837 C13.1923519,18.8669673 16.3827926,15.8353268 20.3044111,15.8353268 L20.3044111,15.8353268 Z" id="Shape"></path>
                    <path d="M20.3044111,17.1869673 C17.1621667,17.1869673 14.6146963,19.6076405 14.6146963,22.5934837 C14.6146963,25.5793268 17.1621185,28 20.3044111,28 C23.4467037,28 25.9941741,25.5793268 25.9941741,22.5934837 C25.9941259,19.6075948 23.4466556,17.1869673 20.3044111,17.1869673 L20.3044111,17.1869673 Z M22.7936704,23.5210523 L21.2806148,23.5210523 L21.2806148,24.9587516 C21.2806148,25.4710784 20.8435741,25.8864118 20.3044593,25.8864118 C19.7652963,25.8864118 19.3282074,25.4710784 19.3282074,24.9587516 L19.3282074,23.5210523 L17.8152,23.5210523 C17.276037,23.5210523 16.8389481,23.1057647 16.8389481,22.5933922 C16.8389481,22.0810654 17.2759889,21.665732 17.8152,21.665732 L19.3282074,21.665732 L19.3282074,20.2280327 C19.3282074,19.7157059 19.7652963,19.3003725 20.3044593,19.3003725 C20.8436222,19.3003725 21.2806148,19.7157059 21.2806148,20.2280327 L21.2806148,21.665732 L22.7936704,21.665732 C23.3328333,21.665732 23.7699222,22.0810654 23.7699222,22.5933922 C23.7698741,23.1058105 23.3328815,23.5210523 22.7936704,23.5210523 L22.7936704,23.5210523 Z" id="Shape"></path>
                </g>
            </g>
        </g>
    </g>
</svg>