<?xml version="1.0" encoding="UTF-8"?>
<svg width="90px" height="90px" viewBox="0 0 90 90" version="1.1" xmlns="http://www.w3.org/2000/svg" xmlns:xlink="http://www.w3.org/1999/xlink">
    <!-- Generator: Sketch 43.2 (39069) - http://www.bohemiancoding.com/sketch -->
    <title>noun_63766_cc</title>
    <desc>Created with Sketch.</desc>
    <defs></defs>
    <g id="Page-1" stroke="none" stroke-width="1" fill="none" fill-rule="evenodd">
        <g id="noun_63766_cc" fill-rule="nonzero" fill="#575757">
            <rect id="Rectangle-path" x="19" y="13" width="4" height="15"></rect>
            <rect id="Rectangle-path" x="27" y="13" width="4" height="15"></rect>
            <rect id="Rectangle-path" x="35" y="13" width="4" height="15"></rect>
            <rect id="Rectangle-path" x="43" y="13" width="4" height="15"></rect>
            <rect id="Rectangle-path" x="51" y="13" width="4" height="15"></rect>
            <rect id="Rectangle-path" x="59" y="13" width="4" height="15"></rect>
            <rect id="Rectangle-path" x="67" y="13" width="4" height="15"></rect>
            <path d="M0,0 L0,90 L90,90 L90,0 L0,0 Z M80,61 L64,61 L64,71 L51,71 L51,80 L39,80 L39,71 L26,71 L26,61 L10,61 L10,10 L80,10 L80,61 Z" id="Shape"></path>
        </g>
    </g>
</svg>