<?xml version="1.0" encoding="UTF-8"?>
<svg width="59px" height="59px" viewBox="0 0 59 59" version="1.1" xmlns="http://www.w3.org/2000/svg" xmlns:xlink="http://www.w3.org/1999/xlink">
    <!-- Generator: Sketch 49 (51002) - http://www.bohemiancoding.com/sketch -->
    <title>Group 3</title>
    <desc>Created with Sketch.</desc>
    <defs></defs>
    <g id="v1.16-Roqos-Home-App" stroke="none" stroke-width="1" fill="none" fill-rule="evenodd">
        <g id="What's-New-v1.16" transform="translate(-19.000000, -408.000000)">
            <g id="Group-3" transform="translate(18.500000, 407.000000)">
                <circle id="Oval-2" fill="#7998C9" cx="29.7567671" cy="30.2432329" r="29.2567671"></circle>
                <g id="0889-layers-crossed" transform="translate(13.756767, 17.743233)" fill="#FFFFFF" fill-rule="nonzero">
                    <path d="M30.4710384,16.4230702 L15.7831961,22.6069265 L7.00458244,18.9105019 L9.35154371,16.8760479 L15.4770021,19.4550222 C15.5748579,19.4960585 15.679027,19.5165766 15.7831961,19.5165766 C15.8873652,19.5165766 15.9915343,19.4960585 16.0893901,19.4550222 L31.0834265,13.1417437 C31.4843196,12.9728635 31.673718,12.5104159 31.5048378,12.1079444 C31.3359576,11.7054729 30.87351,11.5176529 30.4710384,11.686533 L15.7831961,17.8703893 L10.6820671,15.7222963 L13.0290284,13.6878423 L15.4770021,14.718485 C15.5748579,14.7595213 15.679027,14.7800395 15.7831961,14.7800395 C15.8873652,14.7800395 15.9915343,14.7595213 16.0893901,14.718485 L31.0834265,8.40520657 C31.3754156,8.28209764 31.5663923,7.99484347 31.5663923,7.67760123 C31.5663923,7.36035899 31.3754156,7.07310482 31.0834265,6.94999589 L24.1640733,4.03641789 L26.5599624,1.96092759 C26.8898312,1.67525174 26.9245543,1.17650275 26.6388784,0.848212267 C26.3532026,0.519921787 25.8544536,0.483620436 25.5261631,0.769296286 L22.543139,3.35458381 L16.0909685,0.638295758 C15.8952568,0.556223138 15.6742921,0.556223138 15.4785804,0.638295758 L0.484544121,6.95157421 C0.192554993,7.07468314 0.00157831961,7.36193731 0.00157831961,7.67917955 C0.00157831961,7.99642179 0.192554993,8.28367596 0.484544121,8.40678489 L11.4080942,13.0060082 L9.0611329,15.0404622 L1.09693213,11.686533 C0.69446063,11.5176529 0.232012983,11.7054729 0.0631327845,12.1079444 C-0.105747414,12.5104159 0.0820726199,12.9728635 0.484544121,13.1417437 L7.73060946,16.1926355 L5.3836482,18.2270895 L1.09693213,16.4214919 C0.69446063,16.2526117 0.232012983,16.4404317 0.0631327845,16.8429032 C-0.105747414,17.2453747 0.0820726199,17.7078224 0.484544121,17.8767026 L4.05470309,19.3792628 L1.85294723,21.2874513 C1.52307843,21.5731271 1.4883554,22.0718761 1.77403125,22.4001666 C1.93028489,22.580095 2.14967131,22.6732159 2.37063606,22.6732159 C2.55372113,22.6732159 2.73838453,22.6100831 2.88674657,22.4806609 L5.67721565,20.0626752 L15.4801588,24.189981 C15.5780146,24.2310173 15.6821837,24.2515355 15.7863528,24.2515355 C15.8905219,24.2515355 15.994691,24.2310173 16.0925468,24.189981 L31.0865831,17.8767026 C31.4874763,17.7078224 31.6768746,17.2453747 31.5079944,16.8429032 C31.3391142,16.4404317 30.8766666,16.2526117 30.4741951,16.4214919 L30.4710384,16.4230702 Z M28.7443568,7.68075787 L15.7831961,13.1370088 L14.3579735,12.5372473 L22.8335498,5.19174784 L28.7427785,7.68075787 L28.7443568,7.68075787 Z M2.82203547,7.68075787 L15.7831961,2.22450697 L21.2126156,4.50991377 L12.7370393,11.8554132 L2.82361379,7.68075787 L2.82203547,7.68075787 Z" id="Shape"></path>
                </g>
            </g>
        </g>
    </g>
</svg>