<?xml version="1.0" encoding="UTF-8"?>
<svg width="100px" height="87px" viewBox="0 0 100 87" version="1.1" xmlns="http://www.w3.org/2000/svg" xmlns:xlink="http://www.w3.org/1999/xlink">
    <!-- Generator: Sketch 44 (41411) - http://www.bohemiancoding.com/sketch -->
    <title>kids-couple</title>
    <desc>Created with Sketch.</desc>
    <defs></defs>
    <g id="Page-1" stroke="none" stroke-width="1" fill="none" fill-rule="evenodd">
        <g id="Connect-to-VPN---Kids-Mode" transform="translate(-138.000000, -106.000000)" fill="#008EA3">
            <g id="kids-couple" transform="translate(138.000000, 106.000000)">
                <g id="Group">
                    <path d="M26.2322581,31.8943367 C33.4686022,31.8943367 39.327957,26.0093872 39.327957,18.7382963 C39.327957,14.2066801 40.9174194,10.0564579 37.427957,7.70247811 C35.335914,6.27122559 26.1505376,5.59455892 23.4374194,5.59455892 C20.2094624,5.59455892 16.0131183,8.23560943 13.7290323,10.1835892 C10.8892473,12.5908822 13.1283871,14.7111044 13.1283871,18.7341953 C13.1283871,26.0093872 18.9836559,31.8943367 26.2322581,31.8943367 Z M17.104086,17.4505791 C19.5107527,17.011771 21.1451613,17.807367 21.1451613,17.807367 L25.1658065,15.8429832 C25.1658065,15.8429832 23.1187097,18.8121145 24.9574194,17.807367 C29.0516129,16.4294276 33.632043,17.003569 35.9610753,17.4628822 C36.0427957,17.9755084 36.1163441,18.5004377 36.1163441,19.0458721 C36.1163441,24.4592054 31.8341935,28.8349832 26.5182796,28.8349832 C21.2309677,28.8349832 16.9447312,24.4592054 16.9447312,19.0458721 C16.9447312,18.5004377 17.0182796,17.9755084 17.104086,17.4505791 Z" id="Shape"></path>
                    <path d="M90.1621505,16.8928418 C90.1008602,16.1423569 90.0395699,15.3959731 89.876129,14.6741953 C89.3572043,10.0646599 85.2466667,0.697952862 73.4503226,0.976821549 C63.2843011,1.21878114 61.0655914,8.89997306 60.5303226,13.5751246 C60.1707527,14.7234074 59.9378495,15.9250034 59.8602151,17.1758114 C46.6378495,19.4928822 48.0924731,32.9605993 56.1664516,33.1902559 C55.3982796,26.1570236 58.7406452,21.9329832 60.0277419,20.5755488 C61.2167742,27.8384377 67.4643011,33.4199125 75.0316129,33.4199125 C82.2066667,33.4199125 88.1967742,28.4043771 89.8189247,21.6992256 C91.0569892,23.889165 93.1367742,28.37567 92.6301075,33.1943569 C105.349892,33.0836296 99.0901075,18.4881347 90.1621505,16.8928418 Z M75.0316129,29.0892458 C69.0864516,29.0892458 64.2486022,24.282862 64.1137634,18.3404983 C66.2834409,17.5490034 67.8933333,13.7760741 67.8933333,13.7760741 C67.8933333,13.7760741 69.1804301,14.2189832 69.1804301,18.4799327 C71.431828,19.2673266 75.3421505,11.8609024 75.3421505,11.8609024 L75.3421505,17.6966397 C77.8223656,18.3774074 85.6430108,17.4751852 85.6430108,17.4751852 L85.9331183,17.7212458 C85.9372043,17.8442761 85.9698925,17.9714074 85.9698925,18.0985387 C85.9780645,24.1598316 81.0748387,29.0892458 75.0316129,29.0892458 Z" id="Shape"></path>
                    <polygon id="Shape" points="78.2187097 33.8136094 71.7832258 33.8136094 66.4101075 33.8136094 50.6748387 52.8422963 35.4462366 34.051468 18.1337634 34.051468 0 54.0315892 3.8 57.9644579 16.7812903 46.8466195 16.7812903 68.4097306 19.384086 68.4097306 19.384086 84.801468 17.7292473 84.801468 17.7292473 86.7248418 25.267957 86.7248418 25.267957 84.801468 25.267957 68.4097306 28.0913978 68.4097306 28.0913978 84.801468 28.0913978 86.7248418 35.6137634 86.7248418 35.6137634 84.801468 33.9630108 84.801468 33.9630108 68.4097306 37.1215054 68.4097306 37.1215054 47.2526195 47.5 57.9480539 51.7412903 56.8981953 54.0907527 57.4887407 65.8462366 43.9841145 66.5163441 49.3359327 55.5984946 68.167771 68.1916129 68.167771 68.1916129 84.5636094 66.5367742 84.5636094 66.5367742 86.4705791 74.0673118 86.4705791 74.0673118 84.5636094 74.0754839 84.5636094 74.0754839 68.167771 76.8907527 68.167771 76.8907527 84.5636094 76.8907527 86.4705791 84.4253763 86.4705791 84.4253763 84.5636094 82.7705376 84.5636094 82.7705376 68.167771 92.532043 68.167771 82.9135484 49.3359327 83.4406452 42.7497104 92.6301075 55.1101549 98.7182796 53.5886801 84.1475269 33.8136094"></polygon>
                </g>
            </g>
        </g>
    </g>
</svg>