<?xml version="1.0" encoding="UTF-8" standalone="no"?>
<svg width="31px" height="32px" viewBox="0 0 31 32" version="1.1" xmlns="http://www.w3.org/2000/svg" xmlns:xlink="http://www.w3.org/1999/xlink">
    <!-- Generator: Sketch 3.8.2 (29753) - http://www.bohemiancoding.com/sketch -->
    <title>Group</title>
    <desc>Created with Sketch.</desc>
    <defs></defs>
    <g id="Schedules" stroke="none" stroke-width="1" fill="none" fill-rule="evenodd">
        <g id="User-Profile" transform="translate(-19.000000, -439.000000)" fill="#008EA3">
            <g id="Group" transform="translate(19.000000, 439.500000)">
                <path d="M30.6660904,12.395383 C30.5570957,11.8599734 30.0352074,11.515016 29.4991383,11.6233511 C29.4279043,11.6378617 29.360133,11.6601223 29.2963191,11.688484 C28.8801277,11.8723404 28.6326223,12.3261277 28.7271064,12.7903032 C29.7764894,17.9440532 27.7136702,23.2834734 23.4714521,26.3932021 C20.5795479,28.5130745 17.0110851,29.3759628 13.4233298,28.8235691 C9.83557447,28.2708457 6.69220745,26.3739096 4.57233511,23.4818404 C0.164728723,17.4685 1.47068617,8.99049468 7.48369681,4.58255851 C10.3756011,2.46285106 13.9442287,1.59996277 17.5318191,2.15219149 C21.0160213,2.68892021 24.0782606,4.49648404 26.1938457,7.24905319 L25.2842926,7.11829255 C24.7429468,7.04013298 24.2418351,7.41592553 24.1641702,7.9567766 C24.0863404,8.49762766 24.4618032,8.99906915 25.0026543,9.07689894 L28.2865106,9.54915426 C28.3082766,9.55228723 28.3297128,9.55212234 28.3514787,9.55377128 C28.3772021,9.55575 28.4030904,9.55937766 28.4286489,9.55937766 C28.9127766,9.55937766 29.3357287,9.20370213 29.4067979,8.71067021 L29.8790532,5.42681383 C29.956883,4.88596277 29.5814202,4.38452128 29.0405691,4.30669149 C28.4995532,4.22869681 27.9982766,4.60432447 27.9204468,5.14517553 L27.7867181,6.07501064 C25.3586596,2.89882979 21.8383457,0.813420213 17.8332447,0.196553191 C13.7232713,-0.436968085 9.63226064,0.55437234 6.31410638,2.98655319 C2.99578723,5.41922872 0.819521277,9.02231915 0.186494681,13.1322926 C-0.446531915,17.2424309 0.544148936,21.3332766 2.97665957,24.6515957 C5.40900532,27.96975 9.01209574,30.1458511 13.122234,30.7790426 C13.9325213,30.903867 14.7416543,30.9655372 15.5446862,30.9655372 C18.8150213,30.9655372 21.977516,29.9417128 24.6413723,27.9888777 C29.5040851,24.4242074 31.8689894,18.3033564 30.6660904,12.395383 L30.6660904,12.395383 Z" id="Shape"></path>
                <path d="M20.8756968,15.857984 L17.4986755,15.857984 C17.2510053,15.2975106 16.800516,14.8468564 16.2400426,14.5993511 L16.2400426,7.0086383 C16.2400426,6.46234574 15.7969734,6.0192766 15.2506809,6.0192766 C14.7043883,6.0192766 14.2613191,6.46234574 14.2613191,7.0086383 L14.2613191,14.5993511 C13.3979362,14.9809149 12.7931064,15.8442979 12.7931064,16.8473457 C12.7931064,18.2024415 13.8955851,19.3049202 15.2506809,19.3049202 C16.2537287,19.3049202 17.1171117,18.7000904 17.4986755,17.8367074 L20.8756968,17.8367074 C21.4219894,17.8367074 21.8650585,17.3936383 21.8650585,16.8473457 C21.8650585,16.3010532 21.4219894,15.857984 20.8756968,15.857984 L20.8756968,15.857984 Z M14.7716649,16.8473457 C14.7716649,16.5831862 14.9865213,16.3683298 15.250516,16.3683298 C15.5145106,16.3683298 15.7295319,16.5831862 15.7295319,16.8473457 C15.7295319,17.1115053 15.5146755,17.3261968 15.250516,17.3261968 C14.9863564,17.3261968 14.7716649,17.1113404 14.7716649,16.8473457 L14.7716649,16.8473457 Z" id="Shape"></path>
            </g>
        </g>
    </g>
</svg>