<?xml version="1.0" encoding="UTF-8"?>
<svg width="90px" height="67px" viewBox="0 0 90 67" version="1.1" xmlns="http://www.w3.org/2000/svg" xmlns:xlink="http://www.w3.org/1999/xlink">
    <!-- Generator: Sketch 39.1 (31720) - http://www.bohemiancoding.com/sketch -->
    <title>Slice 1</title>
    <desc>Created with Sketch.</desc>
    <defs></defs>
    <g id="Page-1" stroke="none" stroke-width="1" fill="none" fill-rule="evenodd">
        <g id="wifi-updated-icon" transform="translate(0.000000, 20.000000)">
            <g id="Activation"></g>
        </g>
        <g id="wifi-updated-icon" fill="#008EA3">
            <g id="Group">
                <g id="Activation">
                    <g id="Wi-Fi-Updated">
                        <g id="Group">
                            <g id="locked59-+-wifi74">
                                <g id="wifi74" transform="translate(0.000000, 0.687500)">
                                    <g id="Wi-Fi">
                                        <path d="M44.7533336,48.9506982 C40.2560459,48.9506982 36.6061726,52.6007631 36.6061726,57.0982868 C36.6061726,61.5958105 40.2561917,65.2458754 44.7533336,65.2458754 C49.2504755,65.2458754 52.9004946,61.5958105 52.9004946,57.0982868 C52.9004946,52.6007631 49.2504755,48.9506982 44.7533336,48.9506982 L44.7533336,48.9506982 L44.7533336,48.9506982 Z M88.4057428,20.4639516 C77.5103527,7.49839983 61.5988467,0.0650209263 44.7533336,0.0650209263 C27.9078204,0.0650209263 11.9989385,7.49839983 1.10077859,20.4639516 C-0.346808669,22.1858398 -0.124058082,24.7550412 1.60050962,26.2025586 C2.36351785,26.8434375 3.28965298,27.1586286 4.21564233,27.1586286 C5.37793973,27.1586286 6.53221928,26.6642655 7.3386697,25.7055713 C16.6807827,14.589617 30.3191539,8.2127553 44.7531878,8.2127553 C59.1872218,8.2127553 72.825593,14.589617 82.1675602,25.7029471 C82.9741564,26.6616413 84.1282901,27.1560045 85.2907333,27.1560045 C86.2168684,27.1560045 87.1456276,26.8435833 87.9086358,26.1999344 C89.6304337,24.7548954 89.8533301,22.1830699 88.4057428,20.4639516 L88.4057428,20.4639516 L88.4057428,20.4639516 Z M44.7533336,16.3601981 C32.7199912,16.3601981 21.3573788,21.6696087 13.5742283,30.9280929 C12.1267869,32.6499812 12.3493917,35.2191825 14.0739594,36.6666999 C14.8369676,37.3075788 15.7657268,37.6227699 16.6918619,37.6227699 C17.8541593,37.6227699 19.0084388,37.1284068 19.8122652,36.1697126 C26.0393687,28.7582017 35.1316162,24.5077867 44.7534794,24.5077867 C54.3753426,24.5077867 63.4674443,28.7582017 69.6973175,36.1697126 C70.5039137,37.1311768 71.6580475,37.6227699 72.8175751,37.6227699 C73.7437102,37.6227699 74.6724694,37.3103488 75.4356234,36.6666999 C77.1600453,35.2191825 77.3826501,32.647357 75.9353544,30.9280929 C68.1492884,21.6697545 56.786676,16.3601981 44.7533336,16.3601981 L44.7533336,16.3601981 L44.7533336,16.3601981 Z M44.7533336,32.6553753 C37.5295379,32.6553753 30.7102794,35.8411091 26.0447625,41.3950042 C24.5971753,43.1168924 24.8199259,45.6860937 26.5444936,47.1336112 C27.3075018,47.7744901 28.2362609,48.0895354 29.1623961,48.0895354 C30.3246935,48.0895354 31.478973,47.5953181 32.2827994,46.6366239 C35.3978089,42.9294106 39.9437869,40.8028181 44.7533336,40.8028181 C49.5628803,40.8028181 54.109004,42.9294106 57.2238678,46.6366239 C58.030464,47.598088 59.1845977,48.0895354 60.3442711,48.0895354 C61.2704063,48.0895354 62.1991654,47.77726 62.9621736,47.1336112 C64.6867413,45.685948 64.9093461,43.1167467 63.4619047,41.3950042 C58.796242,35.8411091 51.9769835,32.6553753 44.7533336,32.6553753 L44.7533336,32.6553753 L44.7533336,32.6553753 Z" id="Shape"></path>
                                    </g>
                                </g>
                            </g>
                        </g>
                    </g>
                </g>
            </g>
        </g>
    </g>
</svg>