<?xml version="1.0" encoding="UTF-8"?>
<svg width="21px" height="26px" viewBox="0 0 21 26" version="1.1" xmlns="http://www.w3.org/2000/svg" xmlns:xlink="http://www.w3.org/1999/xlink">
    <!-- Generator: Sketch 47.1 (45422) - http://www.bohemiancoding.com/sketch -->
    <title>padlock</title>
    <desc>Created with Sketch.</desc>
    <defs></defs>
    <g id="Menu-&amp;-New-RC-Activation" stroke="none" stroke-width="1" fill="none" fill-rule="evenodd">
        <g id="Collapsed-Menu---LA" transform="translate(-26.000000, -205.000000)" fill="#008EA3">
            <g id="Group-3" transform="translate(26.000000, 205.000000)">
                <g id="padlock">
                    <g id="Group">
                        <path d="M19.05575,25.6655862 L2.494625,25.6655862 C1.497125,25.6655862 0.686875,24.8353793 0.686875,23.8151034 L0.686875,9.65227586 C0.686875,8.6302069 1.498,7.8 2.494625,7.8 L19.056625,7.8 C20.05325,7.8 20.862625,8.63110345 20.862625,9.65227586 L20.862625,23.8151034 C20.862625,24.8353793 20.052375,25.6655862 19.05575,25.6655862 Z M2.9106366,9.10031008 C2.4219862,9.10031008 2.02475,9.50818193 2.02475,10.0080165 L2.02475,23.4592727 C2.02475,23.9591073 2.42281724,24.3652761 2.9106366,24.3652761 L18.6405255,24.3652761 C19.1283448,24.3652761 19.52475,23.9582558 19.52475,23.4592727 L19.52475,10.008868 C19.52475,9.50818193 19.1275138,9.10116158 18.6405255,9.10116158 L2.9106366,9.10116158 L2.9106366,9.10031008 Z" id="Shape"></path>
                        <path d="M17.1885,8.69565517 C16.947,8.69565517 16.751,8.49482759 16.751,8.24737931 L16.751,7.02 C16.751,3.64358621 14.070875,0.896551724 10.77475,0.896551724 C7.478625,0.896551724 4.7985,3.64358621 4.7985,7.02 L4.7985,8.24737931 C4.7985,8.49482759 4.6025,8.69565517 4.361,8.69565517 C4.1195,8.69565517 3.9235,8.49482759 3.9235,8.24737931 L3.9235,7.02 C3.9235,3.14958621 6.997375,0 10.77475,0 C14.552125,0 17.626,3.14958621 17.626,7.02 L17.626,8.24737931 C17.626,8.49572414 17.43,8.69565517 17.1885,8.69565517 Z" id="Shape"></path>
                        <path d="M10.773,21.3038621 C10.02925,21.3038621 9.424625,20.6843448 9.424625,19.9222759 L9.424625,17.6181379 C8.514625,17.1133793 7.9415,16.1424138 7.9415,15.0647586 C7.9415,13.4635172 9.212875,12.1617241 10.77475,12.1617241 C12.33925,12.1617241 13.6115,13.4644138 13.6115,15.0647586 C13.6115,16.1415172 13.0375,17.1133793 12.126625,17.6172414 L12.126625,19.9222759 C12.12575,20.6834483 11.5185,21.3038621 10.773,21.3038621 Z M10.773875,13.0573793 C9.694125,13.0573793 8.815625,13.9575172 8.815625,15.0638621 C8.815625,15.8797241 9.291625,16.6086207 10.028375,16.9197241 C10.192875,16.9896552 10.299625,17.1528276 10.299625,17.333931 L10.299625,19.9213793 C10.299625,20.1885517 10.51225,20.4064138 10.773,20.4064138 C11.03725,20.4064138 11.251625,20.1885517 11.251625,19.9213793 L11.251625,17.333931 C11.251625,17.151931 11.358375,16.9887586 11.522875,16.9197241 C12.2605,16.6077241 12.737375,15.8797241 12.737375,15.0647586 C12.7365,13.9575172 11.85625,13.0573793 10.773875,13.0573793 Z" id="Shape"></path>
                    </g>
                </g>
            </g>
        </g>
    </g>
</svg>