<?xml version="1.0" encoding="UTF-8"?>
<svg width="28px" height="27px" viewBox="0 0 28 27" version="1.1" xmlns="http://www.w3.org/2000/svg" xmlns:xlink="http://www.w3.org/1999/xlink">
    <!-- Generator: Sketch 47.1 (45422) - http://www.bohemiancoding.com/sketch -->
    <title>settings icon</title>
    <desc>Created with Sketch.</desc>
    <defs></defs>
    <g id="Menu-&amp;-New-RC-Activation" stroke="none" stroke-width="1" fill="none" fill-rule="evenodd">
        <g id="Collapsed-Menu---LA" transform="translate(-22.000000, -260.000000)" fill="#008EA3">
            <g id="Group-2" transform="translate(22.000000, 260.000000)">
                <g id="settings-icon">
                    <path d="M15.5312585,26.9912687 L12.5881171,26.9912687 C12.1453073,26.9912687 11.9908293,26.992209 10.4818341,23.3155075 L9.3164878,22.8496567 C6.14115122,24.2664179 5.76526829,24.2664179 5.63960976,24.2664179 L5.39662439,24.2664179 L5.18942439,24.0913881 L3.10308293,22.0838507 C2.78579512,21.7723433 2.6758439,21.664209 4.30844878,18.035597 L3.83326829,16.9299403 C0,15.579 0,15.4222388 0,14.9770746 L0,12.1392537 C0,11.6946269 0,11.5542537 3.82056585,10.1013582 L4.29574634,8.99328358 C2.56876098,5.4198806 2.68759024,5.30892537 3.02823415,4.99352239 L5.27192195,2.83016418 L5.5505561,2.82156716 C5.8892878,2.82156716 7.14600976,3.27250746 9.28903415,4.16229851 L10.4509659,3.69832836 C11.8498732,0.00725373134 12.021561,0.00779104478 12.4628683,0.00779104478 L15.4060098,0.00779104478 C15.8469073,0.00779104478 16.0019317,0.00832835821 17.5109268,3.68597015 L18.6781854,4.14846269 C21.8486049,2.73358209 22.2294049,2.73358209 22.3560195,2.73358209 L22.5975024,2.73358209 L22.8047024,2.90565672 L24.8910439,4.90983582 C25.2083317,5.22470149 25.3167805,5.33243284 23.6841756,8.96252239 L24.160722,10.0744925 C27.9989073,11.4196567 27.9989073,11.5758806 27.9989073,12.0219851 L27.9989073,14.8564478 C27.9989073,15.290597 27.9989073,15.4434627 24.1734244,16.8971642 L23.7012488,18.0061791 C25.4194927,21.5641343 25.3059902,21.6756269 24.9843317,21.9943881 L22.7235707,24.1711791 L22.4434341,24.1788358 C22.1062049,24.1788358 20.8523512,23.7273582 18.7123317,22.8366269 L17.5435707,23.301 C16.140839,26.9912687 15.9814439,26.9912687 15.5312585,26.9912687 L15.5312585,26.9912687 Z M12.8940683,25.8196567 L15.2154732,25.8196567 C15.4818146,25.2855672 16.0576585,23.8697463 16.5186341,22.6501791 L16.6115122,22.4074478 L18.7251707,21.5680299 L18.9524488,21.6627313 C20.2121756,22.1910448 21.7010927,22.7765821 22.2813073,22.9564478 L23.9125463,21.3873582 C23.7053463,20.8225075 23.0771902,19.440403 22.5106341,18.2745672 L22.3963122,18.0376119 L23.2708683,15.984403 L23.5089366,15.894 C24.7813659,15.4122985 26.2556683,14.8176269 26.8065171,14.5464179 L26.8065171,12.3420896 C26.2492488,12.0844478 24.7808195,11.5349104 23.5153561,11.0936418 L23.2675902,11.006597 L22.3872976,8.95137313 L22.4923317,8.71965672 C23.0338927,7.5178209 23.6362341,6.1001194 23.8292293,5.52895522 L22.1936195,3.95650746 C21.6657171,4.13771642 20.1874537,4.76073134 18.9405659,5.32034328 L18.7083707,5.4251194 L16.5947122,4.5871791 L16.5003317,4.356 C16.0007024,3.12958209 15.379922,1.70758209 15.099922,1.18114925 L12.7801561,1.18114925 C12.5123122,1.71376119 11.9383805,3.1301194 11.4784976,4.34928358 L11.387122,4.59067164 L9.27933659,5.43291045 L9.05205854,5.33726866 C7.78946341,4.80989552 6.29754146,4.22529851 5.71541463,4.04556716 L4.0870439,5.61559701 C4.29137561,6.17950746 4.9214439,7.56067164 5.4860878,8.72650746 L5.6019122,8.964 L4.72298537,11.0162687 L4.48641951,11.1061343 C3.21603902,11.5872985 1.74419512,12.1815672 1.19320976,12.4517015 L1.19320976,14.6588507 C1.75047805,14.9174328 3.21740488,15.4684478 4.48204878,15.911597 L4.72790244,15.9995821 L5.60833171,18.0479552 L5.50329756,18.2791343 C4.96173659,19.4800299 4.35994146,20.8958507 4.1664,21.4659403 L5.80542439,23.0432239 C6.33182439,22.8605373 7.80817561,22.2375224 9.05656585,21.6773731 L9.29026341,21.5720597 L11.3995512,22.4152388 L11.4939317,22.6464179 C11.9950634,23.8732388 12.6139317,25.2928209 12.8940683,25.8196567 L12.8940683,25.8196567 Z M13.9993171,18.2220448 C11.3005268,18.2220448 9.10286829,16.1034179 9.10286829,13.499194 C9.10286829,10.8969851 11.3001171,8.77970149 13.9993171,8.77970149 C16.6966049,8.77970149 18.8889366,10.8973881 18.8889366,13.499194 C18.8889366,16.1034179 16.6966049,18.2220448 13.9993171,18.2220448 L13.9993171,18.2220448 Z M13.9993171,9.95238806 C11.9565463,9.95238806 10.296078,11.5436418 10.296078,13.4993284 C10.296078,15.4563582 11.9561366,17.0490896 13.9993171,17.0490896 C16.0386732,17.0490896 17.6977756,15.4563582 17.6977756,13.4993284 C17.6972293,11.5436418 16.0386732,9.95238806 13.9993171,9.95238806 L13.9993171,9.95238806 Z" id="Shape"></path>
                </g>
            </g>
        </g>
    </g>
</svg>