<?xml version="1.0" encoding="UTF-8"?>
<svg width="28px" height="27px" viewBox="0 0 28 27" version="1.1" xmlns="http://www.w3.org/2000/svg" xmlns:xlink="http://www.w3.org/1999/xlink">
    <!-- Generator: Sketch 47.1 (45422) - http://www.bohemiancoding.com/sketch -->
    <title>Shape</title>
    <desc>Created with Sketch.</desc>
    <defs></defs>
    <g id="Menu-&amp;-New-RC-Activation" stroke="none" stroke-width="1" fill="none" fill-rule="evenodd">
        <g id="Collapsed-Menu---LA" transform="translate(-22.000000, -109.000000)" fill="#008EA3">
            <g id="Group-7" transform="translate(22.000000, 109.000000)">
                <path d="M20.298174,27 L16.0984637,27 C15.7120904,27 15.398512,26.6827362 15.398512,26.2918219 L15.398512,21.3345748 L12.5987052,21.3345748 L12.5987052,26.2918219 C12.5987052,26.6827362 12.2851268,27 11.8987535,27 L7.69904323,27 C6.54132311,27 5.59918811,26.0467922 5.59918811,24.8754656 L5.59918811,16.203116 L4.01869715,17.9707286 C3.75971502,18.2596653 3.32014535,18.2837434 3.03316515,18.0231338 L0.233358314,15.4892724 C0.0947678759,15.3632167 0.0107736709,15.1875885 0.000974347026,14.9992131 C-0.00882497689,14.8108377 0.0555705802,14.6267114 0.181561888,14.4864922 L12.5413091,0.665687457 C12.9248827,0.236531501 13.4428469,0 14.0000085,0 C14.5571701,0 15.0737344,0.236531501 15.4587079,0.665687457 L27.8184551,14.4864922 C27.9430465,14.6267114 28.008842,14.8108377 27.9990427,14.9992131 C27.9892433,15.1875885 27.9052491,15.3646331 27.7666587,15.4892724 L24.9668519,18.0231338 C24.6798717,18.282327 24.2389021,18.2596653 23.9813199,17.9707286 L22.4008289,16.203116 L22.4008289,24.8754656 C22.4008289,26.0467922 21.4586939,27 20.3009738,27 L20.298174,27 Z M16.7984154,25.5836437 L20.298174,25.5836437 C20.6845473,25.5836437 20.9981257,25.2663799 20.9981257,24.8754656 L20.9981257,14.3646855 C20.9981257,14.0714998 21.1759134,13.8094738 21.4460948,13.7032471 C21.7162761,13.5970204 22.022855,13.6720873 22.2174416,13.8887898 L24.5496806,16.4977181 L26.3065594,14.90715 L14.4185796,1.61322982 C14.3037875,1.48434139 14.1539979,1.41352358 13.9986086,1.41352358 C13.8432193,1.41352358 13.6934297,1.48434139 13.5786376,1.61322982 L1.69065777,14.90715 L3.44753656,16.4977181 L5.77977565,13.8887898 C5.97436222,13.6720873 6.28094107,13.5984368 6.55112243,13.7032471 C6.82130379,13.8080575 6.99909152,14.0714998 6.99909152,14.3646855 L6.99909152,24.8754656 C6.99909152,25.2663799 7.31266989,25.5836437 7.69904323,25.5836437 L11.1988018,25.5836437 L11.1988018,20.6263967 C11.1988018,20.2354823 11.5123801,19.9182185 11.8987535,19.9182185 L16.0984637,19.9182185 C16.4848371,19.9182185 16.7984154,20.2354823 16.7984154,20.6263967 L16.7984154,25.5836437 L16.7984154,25.5836437 Z" id="Shape"></path>
            </g>
        </g>
    </g>
</svg>