<?xml version="1.0" encoding="UTF-8" standalone="no"?>
<svg width="63px" height="63px" viewBox="0 0 63 63" version="1.1" xmlns="http://www.w3.org/2000/svg" xmlns:xlink="http://www.w3.org/1999/xlink">
    <!-- Generator: Sketch 3.6.1 (26313) - http://www.bohemiancoding.com/sketch -->
    <title>Question Mark</title>
    <desc>Created with Sketch.</desc>
    <defs></defs>
    <g id="Page-1" stroke="none" stroke-width="1" fill="none" fill-rule="evenodd">
        <g id="Question-Mark" fill="#307CB2">
            <g id="Group">
                <path d="M26.4638603,17.8058663 C25.7945224,18.4783633 25.3590191,18.912224 25.0320421,19.2376845 C25.6390055,18.6301756 26.4638603,17.8058663 26.4638603,17.8058663 L26.4638603,17.8058663 Z" id="Shape"></path>
                <path d="M35.7921277,21.7467774 C36.5739004,22.7089592 36.9620354,23.8433944 36.9620354,25.1499846 C36.9620354,26.0848496 36.6940749,26.9841437 36.1611016,27.8533697 C35.8685755,28.3453676 35.4832901,28.8210541 35.0021009,29.2747299 L33.4003316,30.8574365 C31.8641029,32.3663483 30.8718529,33.7029084 30.4180789,34.8729144 C29.9643048,36.0400709 29.7374178,37.5790508 29.7374178,39.4870047 L33.301873,39.4870047 C33.301873,37.8059378 33.4931892,36.5348202 33.8731684,35.67375 C34.2530495,34.8126798 35.0840515,33.763143 36.3660762,32.5193422 C38.1290936,30.8108603 39.2990996,29.5152754 39.8785508,28.6350441 C40.458002,27.7548128 40.7505281,26.6068175 40.7505281,25.1908616 C40.7505281,22.8565488 39.9605996,20.9375896 38.377893,19.4341805 C36.7952848,17.9307714 34.690512,17.1818182 32.0608235,17.1818182 C29.2180047,17.1818182 26.9820521,18.0591999 25.3528676,19.8141598 C23.7236832,21.5691197 22.9090909,23.8870227 22.9090909,26.7708168 L26.4735461,26.7708168 C26.5390869,25.035018 26.8153015,23.7066136 27.293641,22.7854071 C28.1464572,21.1316571 29.6881885,20.3034064 31.9186384,20.3034064 C33.7200762,20.3035047 35.013008,20.7845956 35.7921277,21.7467774 L35.7921277,21.7467774 Z" id="Shape"></path>
                <path d="M63,31.5 C63,14.1033529 48.8965441,0 31.5,0 C14.1033529,0 0,14.1033529 0,31.5 C0,48.8965441 14.1033529,63 31.5,63 C48.8965441,63 63,48.8965441 63,31.5 Z M2.86363636,31.4349271 C2.86363636,15.6549949 15.6549949,2.86363636 31.4349271,2.86363636 C47.2148594,2.86363636 60.0062179,15.6549949 60.0062179,31.4349271 C60.0062179,47.2148594 47.2148594,60.0062179 31.4349271,60.0062179 C15.6549949,60.0062179 2.86363636,47.2148594 2.86363636,31.4349271 Z" id="Shape"></path>
                <rect id="Rectangle-path" x="29.8375468" y="40.7997714" width="3.98540976" height="4.16306751"></rect>
            </g>
        </g>
    </g>
</svg>